  0
SECTION
  2
BLOCKS
  0
ENDSEC
  0
SECTION
  2
ENTITIES
  0
LINE
  8
0
 10
-127.635
 11
-127.55
 20
20.663
 21
21.412
  0
LINE
  8
0
 10
-127.55
 11
-113.118
 20
21.412
 21
103.263
  0
LINE
  8
0
 10
-113.118
 11
-112.941
 20
103.263
 21
103.996
  0
LINE
  8
0
 10
-112.941
 11
-112.673
 20
103.996
 21
104.7
  0
LINE
  8
0
 10
-112.673
 11
-112.32
 20
104.7
 21
105.366
  0
LINE
  8
0
 10
-112.32
 11
-111.885
 20
105.366
 21
105.982
  0
LINE
  8
0
 10
-111.885
 11
-111.377
 20
105.982
 21
106.538
  0
LINE
  8
0
 10
-111.377
 11
-110.803
 20
106.538
 21
107.026
  0
LINE
  8
0
 10
-110.803
 11
-110.173
 20
107.026
 21
107.438
  0
LINE
  8
0
 10
-110.173
 11
-109.495
 20
107.438
 21
107.769
  0
LINE
  8
0
 10
-109.495
 11
-108.782
 20
107.769
 21
108.012
  0
LINE
  8
0
 10
-108.782
 11
-108.044
 20
108.012
 21
108.163
  0
LINE
  8
0
 10
-108.044
 11
-107.292
 20
108.163
 21
108.221
  0
LINE
  8
0
 10
-107.292
 11
107.292
 20
108.221
 21
108.221
  0
LINE
  8
0
 10
107.292
 11
108.044
 20
108.221
 21
108.163
  0
LINE
  8
0
 10
108.044
 11
108.782
 20
108.163
 21
108.012
  0
LINE
  8
0
 10
108.782
 11
109.495
 20
108.012
 21
107.769
  0
LINE
  8
0
 10
109.495
 11
110.173
 20
107.769
 21
107.438
  0
LINE
  8
0
 10
110.173
 11
110.803
 20
107.438
 21
107.026
  0
LINE
  8
0
 10
110.803
 11
111.377
 20
107.026
 21
106.538
  0
LINE
  8
0
 10
111.377
 11
111.885
 20
106.538
 21
105.982
  0
LINE
  8
0
 10
111.885
 11
112.32
 20
105.982
 21
105.366
  0
LINE
  8
0
 10
112.32
 11
112.673
 20
105.366
 21
104.7
  0
LINE
  8
0
 10
112.673
 11
112.941
 20
104.7
 21
103.996
  0
LINE
  8
0
 10
112.941
 11
113.118
 20
103.996
 21
103.263
  0
LINE
  8
0
 10
113.118
 11
127.55
 20
103.263
 21
21.412
  0
LINE
  8
0
 10
127.55
 11
127.635
 20
21.412
 21
20.663
  0
LINE
  8
0
 10
127.635
 11
127.623
 20
20.663
 21
19.91
  0
LINE
  8
0
 10
127.623
 11
127.519
 20
19.91
 21
19.164
  0
LINE
  8
0
 10
127.519
 11
127.322
 20
19.164
 21
18.436
  0
LINE
  8
0
 10
127.322
 11
127.034
 20
18.436
 21
17.74
  0
LINE
  8
0
 10
127.034
 11
126.662
 20
17.74
 21
17.085
  0
LINE
  8
0
 10
126.662
 11
126.211
 20
17.085
 21
16.482
  0
LINE
  8
0
 10
126.211
 11
125.687
 20
16.482
 21
15.939
  0
LINE
  8
0
 10
125.687
 11
125.1
 20
15.939
 21
15.467
  0
LINE
  8
0
 10
125.1
 11
124.458
 20
15.467
 21
15.073
  0
LINE
  8
0
 10
124.458
 11
123.772
 20
15.073
 21
14.761
  0
LINE
  8
0
 10
123.772
 11
123.053
 20
14.761
 21
14.539
  0
LINE
  8
0
 10
123.053
 11
23.011
 20
14.539
 21
-6.148
  0
LINE
  8
0
 10
23.011
 11
22.268
 20
-6.148
 21
-6.279
  0
LINE
  8
0
 10
22.268
 11
21.516
 20
-6.279
 21
-6.316
  0
LINE
  8
0
 10
21.516
 11
-21.516
 20
-6.316
 21
-6.316
  0
LINE
  8
0
 10
-21.516
 11
-22.268
 20
-6.316
 21
-6.279
  0
LINE
  8
0
 10
-22.268
 11
-23.011
 20
-6.279
 21
-6.148
  0
LINE
  8
0
 10
-23.011
 11
-123.053
 20
-6.148
 21
14.539
  0
LINE
  8
0
 10
-123.053
 11
-123.772
 20
14.539
 21
14.761
  0
LINE
  8
0
 10
-123.772
 11
-124.458
 20
14.761
 21
15.073
  0
LINE
  8
0
 10
-124.458
 11
-125.1
 20
15.073
 21
15.467
  0
LINE
  8
0
 10
-125.1
 11
-125.687
 20
15.467
 21
15.939
  0
LINE
  8
0
 10
-125.687
 11
-126.211
 20
15.939
 21
16.482
  0
LINE
  8
0
 10
-126.211
 11
-126.662
 20
16.482
 21
17.085
  0
LINE
  8
0
 10
-126.662
 11
-127.034
 20
17.085
 21
17.74
  0
LINE
  8
0
 10
-127.034
 11
-127.322
 20
17.74
 21
18.436
  0
LINE
  8
0
 10
-127.322
 11
-127.519
 20
18.436
 21
19.164
  0
LINE
  8
0
 10
-127.519
 11
-127.623
 20
19.164
 21
19.91
  0
LINE
  8
0
 10
-127.623
 11
-127.635
 20
19.91
 21
20.663
  0
LINE
  8
0
 10
-127.635
 11
-127.55
 20
170.663
 21
171.412
  0
LINE
  8
0
 10
-127.55
 11
-113.118
 20
171.412
 21
253.263
  0
LINE
  8
0
 10
-113.118
 11
-112.941
 20
253.263
 21
253.996
  0
LINE
  8
0
 10
-112.941
 11
-112.673
 20
253.996
 21
254.7
  0
LINE
  8
0
 10
-112.673
 11
-112.32
 20
254.7
 21
255.366
  0
LINE
  8
0
 10
-112.32
 11
-111.885
 20
255.366
 21
255.982
  0
LINE
  8
0
 10
-111.885
 11
-111.377
 20
255.982
 21
256.538
  0
LINE
  8
0
 10
-111.377
 11
-110.803
 20
256.538
 21
257.026
  0
LINE
  8
0
 10
-110.803
 11
-110.173
 20
257.026
 21
257.438
  0
LINE
  8
0
 10
-110.173
 11
-109.495
 20
257.438
 21
257.769
  0
LINE
  8
0
 10
-109.495
 11
-108.782
 20
257.769
 21
258.012
  0
LINE
  8
0
 10
-108.782
 11
-108.044
 20
258.012
 21
258.163
  0
LINE
  8
0
 10
-108.044
 11
-107.292
 20
258.163
 21
258.221
  0
LINE
  8
0
 10
-107.292
 11
107.292
 20
258.221
 21
258.221
  0
LINE
  8
0
 10
107.292
 11
108.044
 20
258.221
 21
258.163
  0
LINE
  8
0
 10
108.044
 11
108.782
 20
258.163
 21
258.012
  0
LINE
  8
0
 10
108.782
 11
109.495
 20
258.012
 21
257.769
  0
LINE
  8
0
 10
109.495
 11
110.173
 20
257.769
 21
257.438
  0
LINE
  8
0
 10
110.173
 11
110.803
 20
257.438
 21
257.026
  0
LINE
  8
0
 10
110.803
 11
111.377
 20
257.026
 21
256.538
  0
LINE
  8
0
 10
111.377
 11
111.885
 20
256.538
 21
255.982
  0
LINE
  8
0
 10
111.885
 11
112.32
 20
255.982
 21
255.366
  0
LINE
  8
0
 10
112.32
 11
112.673
 20
255.366
 21
254.7
  0
LINE
  8
0
 10
112.673
 11
112.941
 20
254.7
 21
253.996
  0
LINE
  8
0
 10
112.941
 11
113.118
 20
253.996
 21
253.263
  0
LINE
  8
0
 10
113.118
 11
127.55
 20
253.263
 21
171.412
  0
LINE
  8
0
 10
127.55
 11
127.635
 20
171.412
 21
170.663
  0
LINE
  8
0
 10
127.635
 11
127.623
 20
170.663
 21
169.91
  0
LINE
  8
0
 10
127.623
 11
127.519
 20
169.91
 21
169.164
  0
LINE
  8
0
 10
127.519
 11
127.322
 20
169.164
 21
168.436
  0
LINE
  8
0
 10
127.322
 11
127.034
 20
168.436
 21
167.74
  0
LINE
  8
0
 10
127.034
 11
126.662
 20
167.74
 21
167.085
  0
LINE
  8
0
 10
126.662
 11
126.211
 20
167.085
 21
166.482
  0
LINE
  8
0
 10
126.211
 11
125.687
 20
166.482
 21
165.939
  0
LINE
  8
0
 10
125.687
 11
125.1
 20
165.939
 21
165.467
  0
LINE
  8
0
 10
125.1
 11
124.458
 20
165.467
 21
165.073
  0
LINE
  8
0
 10
124.458
 11
123.772
 20
165.073
 21
164.761
  0
LINE
  8
0
 10
123.772
 11
123.053
 20
164.761
 21
164.539
  0
LINE
  8
0
 10
123.053
 11
23.011
 20
164.539
 21
143.852
  0
LINE
  8
0
 10
23.011
 11
22.268
 20
143.852
 21
143.721
  0
LINE
  8
0
 10
22.268
 11
21.516
 20
143.721
 21
143.684
  0
LINE
  8
0
 10
21.516
 11
-21.516
 20
143.684
 21
143.684
  0
LINE
  8
0
 10
-21.516
 11
-22.268
 20
143.684
 21
143.721
  0
LINE
  8
0
 10
-22.268
 11
-23.011
 20
143.721
 21
143.852
  0
LINE
  8
0
 10
-23.011
 11
-123.053
 20
143.852
 21
164.539
  0
LINE
  8
0
 10
-123.053
 11
-123.772
 20
164.539
 21
164.761
  0
LINE
  8
0
 10
-123.772
 11
-124.458
 20
164.761
 21
165.073
  0
LINE
  8
0
 10
-124.458
 11
-125.1
 20
165.073
 21
165.467
  0
LINE
  8
0
 10
-125.1
 11
-125.687
 20
165.467
 21
165.939
  0
LINE
  8
0
 10
-125.687
 11
-126.211
 20
165.939
 21
166.482
  0
LINE
  8
0
 10
-126.211
 11
-126.662
 20
166.482
 21
167.085
  0
LINE
  8
0
 10
-126.662
 11
-127.034
 20
167.085
 21
167.74
  0
LINE
  8
0
 10
-127.034
 11
-127.322
 20
167.74
 21
168.436
  0
LINE
  8
0
 10
-127.322
 11
-127.519
 20
168.436
 21
169.164
  0
LINE
  8
0
 10
-127.519
 11
-127.623
 20
169.164
 21
169.91
  0
LINE
  8
0
 10
-127.623
 11
-127.635
 20
169.91
 21
170.663
  0
LINE
  8
0
 10
-123.14
 11
-123.119
 20
20.443
 21
20.631
  0
LINE
  8
0
 10
-123.119
 11
-123.074
 20
20.631
 21
20.814
  0
LINE
  8
0
 10
-123.074
 11
-123.008
 20
20.814
 21
20.99
  0
LINE
  8
0
 10
-123.008
 11
-122.92
 20
20.99
 21
21.156
  0
LINE
  8
0
 10
-122.92
 11
-122.81
 20
21.156
 21
21.31
  0
LINE
  8
0
 10
-122.81
 11
-122.684
 20
21.31
 21
21.45
  0
LINE
  8
0
 10
-122.684
 11
-122.54
 20
21.45
 21
21.571
  0
LINE
  8
0
 10
-122.54
 11
-122.382
 20
21.571
 21
21.675
  0
LINE
  8
0
 10
-122.382
 11
-122.214
 20
21.675
 21
21.757
  0
LINE
  8
0
 10
-122.214
 11
-122.035
 20
21.757
 21
21.818
  0
LINE
  8
0
 10
-122.035
 11
-121.851
 20
21.818
 21
21.856
  0
LINE
  8
0
 10
-121.851
 11
-121.663
 20
21.856
 21
21.87
  0
LINE
  8
0
 10
-121.663
 11
-121.474
 20
21.87
 21
21.861
  0
LINE
  8
0
 10
-121.474
 11
-121.289
 20
21.861
 21
21.828
  0
LINE
  8
0
 10
-121.289
 11
-121.109
 20
21.828
 21
21.772
  0
LINE
  8
0
 10
-121.109
 11
-120.937
 20
21.772
 21
21.695
  0
LINE
  8
0
 10
-120.937
 11
-120.777
 20
21.695
 21
21.596
  0
LINE
  8
0
 10
-120.777
 11
-120.63
 20
21.596
 21
21.477
  0
LINE
  8
0
 10
-120.63
 11
-120.499
 20
21.477
 21
21.343
  0
LINE
  8
0
 10
-120.499
 11
-120.387
 20
21.343
 21
21.192
  0
LINE
  8
0
 10
-120.387
 11
-120.293
 20
21.192
 21
21.028
  0
LINE
  8
0
 10
-120.293
 11
-120.222
 20
21.028
 21
20.854
  0
LINE
  8
0
 10
-120.222
 11
-120.172
 20
20.854
 21
20.672
  0
LINE
  8
0
 10
-120.172
 11
-120.146
 20
20.672
 21
20.485
  0
LINE
  8
0
 10
-120.146
 11
-120.144
 20
20.485
 21
20.297
  0
LINE
  8
0
 10
-120.144
 11
-120.164
 20
20.297
 21
20.11
  0
LINE
  8
0
 10
-120.164
 11
-120.209
 20
20.11
 21
19.927
  0
LINE
  8
0
 10
-120.209
 11
-120.275
 20
19.927
 21
19.751
  0
LINE
  8
0
 10
-120.275
 11
-120.364
 20
19.751
 21
19.584
  0
LINE
  8
0
 10
-120.364
 11
-120.473
 20
19.584
 21
19.43
  0
LINE
  8
0
 10
-120.473
 11
-120.599
 20
19.43
 21
19.291
  0
LINE
  8
0
 10
-120.599
 11
-120.744
 20
19.291
 21
19.169
  0
LINE
  8
0
 10
-120.744
 11
-120.901
 20
19.169
 21
19.066
  0
LINE
  8
0
 10
-120.901
 11
-121.07
 20
19.066
 21
18.984
  0
LINE
  8
0
 10
-121.07
 11
-121.248
 20
18.984
 21
18.923
  0
LINE
  8
0
 10
-121.248
 11
-121.432
 20
18.923
 21
18.884
  0
LINE
  8
0
 10
-121.432
 11
-121.621
 20
18.884
 21
18.871
  0
LINE
  8
0
 10
-121.621
 11
-121.809
 20
18.871
 21
18.88
  0
LINE
  8
0
 10
-121.809
 11
-121.994
 20
18.88
 21
18.912
  0
LINE
  8
0
 10
-121.994
 11
-122.174
 20
18.912
 21
18.968
  0
LINE
  8
0
 10
-122.174
 11
-122.346
 20
18.968
 21
19.045
  0
LINE
  8
0
 10
-122.346
 11
-122.507
 20
19.045
 21
19.145
  0
LINE
  8
0
 10
-122.507
 11
-122.653
 20
19.145
 21
19.263
  0
LINE
  8
0
 10
-122.653
 11
-122.784
 20
19.263
 21
19.398
  0
LINE
  8
0
 10
-122.784
 11
-122.896
 20
19.398
 21
19.549
  0
LINE
  8
0
 10
-122.896
 11
-122.99
 20
19.549
 21
19.712
  0
LINE
  8
0
 10
-122.99
 11
-123.061
 20
19.712
 21
19.886
  0
LINE
  8
0
 10
-123.061
 11
-123.111
 20
19.886
 21
20.069
  0
LINE
  8
0
 10
-123.111
 11
-123.137
 20
20.069
 21
20.255
  0
LINE
  8
0
 10
-123.137
 11
-123.14
 20
20.255
 21
20.443
  0
LINE
  8
0
 10
-123.14
 11
-123.119
 20
170.443
 21
170.631
  0
LINE
  8
0
 10
-123.119
 11
-123.074
 20
170.631
 21
170.814
  0
LINE
  8
0
 10
-123.074
 11
-123.008
 20
170.814
 21
170.99
  0
LINE
  8
0
 10
-123.008
 11
-122.92
 20
170.99
 21
171.156
  0
LINE
  8
0
 10
-122.92
 11
-122.81
 20
171.156
 21
171.31
  0
LINE
  8
0
 10
-122.81
 11
-122.684
 20
171.31
 21
171.45
  0
LINE
  8
0
 10
-122.684
 11
-122.54
 20
171.45
 21
171.571
  0
LINE
  8
0
 10
-122.54
 11
-122.382
 20
171.571
 21
171.675
  0
LINE
  8
0
 10
-122.382
 11
-122.214
 20
171.675
 21
171.757
  0
LINE
  8
0
 10
-122.214
 11
-122.035
 20
171.757
 21
171.818
  0
LINE
  8
0
 10
-122.035
 11
-121.851
 20
171.818
 21
171.856
  0
LINE
  8
0
 10
-121.851
 11
-121.663
 20
171.856
 21
171.87
  0
LINE
  8
0
 10
-121.663
 11
-121.474
 20
171.87
 21
171.861
  0
LINE
  8
0
 10
-121.474
 11
-121.289
 20
171.861
 21
171.828
  0
LINE
  8
0
 10
-121.289
 11
-121.109
 20
171.828
 21
171.772
  0
LINE
  8
0
 10
-121.109
 11
-120.937
 20
171.772
 21
171.695
  0
LINE
  8
0
 10
-120.937
 11
-120.777
 20
171.695
 21
171.596
  0
LINE
  8
0
 10
-120.777
 11
-120.63
 20
171.596
 21
171.477
  0
LINE
  8
0
 10
-120.63
 11
-120.499
 20
171.477
 21
171.343
  0
LINE
  8
0
 10
-120.499
 11
-120.387
 20
171.343
 21
171.192
  0
LINE
  8
0
 10
-120.387
 11
-120.293
 20
171.192
 21
171.028
  0
LINE
  8
0
 10
-120.293
 11
-120.222
 20
171.028
 21
170.854
  0
LINE
  8
0
 10
-120.222
 11
-120.172
 20
170.854
 21
170.672
  0
LINE
  8
0
 10
-120.172
 11
-120.146
 20
170.672
 21
170.485
  0
LINE
  8
0
 10
-120.146
 11
-120.144
 20
170.485
 21
170.297
  0
LINE
  8
0
 10
-120.144
 11
-120.164
 20
170.297
 21
170.11
  0
LINE
  8
0
 10
-120.164
 11
-120.209
 20
170.11
 21
169.927
  0
LINE
  8
0
 10
-120.209
 11
-120.275
 20
169.927
 21
169.751
  0
LINE
  8
0
 10
-120.275
 11
-120.364
 20
169.751
 21
169.584
  0
LINE
  8
0
 10
-120.364
 11
-120.473
 20
169.584
 21
169.43
  0
LINE
  8
0
 10
-120.473
 11
-120.599
 20
169.43
 21
169.291
  0
LINE
  8
0
 10
-120.599
 11
-120.744
 20
169.291
 21
169.169
  0
LINE
  8
0
 10
-120.744
 11
-120.901
 20
169.169
 21
169.066
  0
LINE
  8
0
 10
-120.901
 11
-121.07
 20
169.066
 21
168.984
  0
LINE
  8
0
 10
-121.07
 11
-121.248
 20
168.984
 21
168.923
  0
LINE
  8
0
 10
-121.248
 11
-121.432
 20
168.923
 21
168.884
  0
LINE
  8
0
 10
-121.432
 11
-121.621
 20
168.884
 21
168.871
  0
LINE
  8
0
 10
-121.621
 11
-121.809
 20
168.871
 21
168.88
  0
LINE
  8
0
 10
-121.809
 11
-121.994
 20
168.88
 21
168.912
  0
LINE
  8
0
 10
-121.994
 11
-122.174
 20
168.912
 21
168.968
  0
LINE
  8
0
 10
-122.174
 11
-122.346
 20
168.968
 21
169.045
  0
LINE
  8
0
 10
-122.346
 11
-122.507
 20
169.045
 21
169.145
  0
LINE
  8
0
 10
-122.507
 11
-122.653
 20
169.145
 21
169.263
  0
LINE
  8
0
 10
-122.653
 11
-122.784
 20
169.263
 21
169.398
  0
LINE
  8
0
 10
-122.784
 11
-122.896
 20
169.398
 21
169.549
  0
LINE
  8
0
 10
-122.896
 11
-122.99
 20
169.549
 21
169.712
  0
LINE
  8
0
 10
-122.99
 11
-123.061
 20
169.712
 21
169.886
  0
LINE
  8
0
 10
-123.061
 11
-123.111
 20
169.886
 21
170.069
  0
LINE
  8
0
 10
-123.111
 11
-123.137
 20
170.069
 21
170.255
  0
LINE
  8
0
 10
-123.137
 11
-123.14
 20
170.255
 21
170.443
  0
LINE
  8
0
 10
-118.1
 11
-104.729
 20
22.85
 21
98.68
  0
LINE
  8
0
 10
-104.729
 11
-86.018
 20
98.68
 21
95.381
  0
LINE
  8
0
 10
-86.018
 11
-85.497
 20
95.381
 21
98.335
  0
LINE
  8
0
 10
-85.497
 11
-66.786
 20
98.335
 21
95.036
  0
LINE
  8
0
 10
-66.786
 11
-65.917
 20
95.036
 21
99.96
  0
LINE
  8
0
 10
-65.917
 11
-46.221
 20
99.96
 21
96.487
  0
LINE
  8
0
 10
-46.221
 11
-47.263
 20
96.487
 21
90.578
  0
LINE
  8
0
 10
-47.263
 11
-28.552
 20
90.578
 21
87.279
  0
LINE
  8
0
 10
-28.552
 11
-29.42
 20
87.279
 21
82.355
  0
LINE
  8
0
 10
-29.42
 11
-10.709
 20
82.355
 21
79.055
  0
LINE
  8
0
 10
-10.709
 11
-18.089
 20
79.055
 21
37.201
  0
LINE
  8
0
 10
-18.089
 11
0
 20
37.201
 21
34.012
  0
LINE
  8
0
 10
0
 11
18.089
 20
34.012
 21
37.201
  0
LINE
  8
0
 10
18.089
 11
10.709
 20
37.201
 21
79.055
  0
LINE
  8
0
 10
10.709
 11
29.42
 20
79.055
 21
82.355
  0
LINE
  8
0
 10
29.42
 11
28.552
 20
82.355
 21
87.279
  0
LINE
  8
0
 10
28.552
 11
47.263
 20
87.279
 21
90.578
  0
LINE
  8
0
 10
47.263
 11
46.221
 20
90.578
 21
96.487
  0
LINE
  8
0
 10
46.221
 11
65.917
 20
96.487
 21
99.96
  0
LINE
  8
0
 10
65.917
 11
66.786
 20
99.96
 21
95.036
  0
LINE
  8
0
 10
66.786
 11
85.497
 20
95.036
 21
98.335
  0
LINE
  8
0
 10
85.497
 11
86.018
 20
98.335
 21
95.381
  0
LINE
  8
0
 10
86.018
 11
104.729
 20
95.381
 21
98.68
  0
LINE
  8
0
 10
104.729
 11
118.1
 20
98.68
 21
22.85
  0
LINE
  8
0
 10
118.1
 11
98.404
 20
22.85
 21
19.377
  0
LINE
  8
0
 10
98.404
 11
97.883
 20
19.377
 21
22.331
  0
LINE
  8
0
 10
97.883
 11
79.172
 20
22.331
 21
19.032
  0
LINE
  8
0
 10
79.172
 11
78.303
 20
19.032
 21
23.956
  0
LINE
  8
0
 10
78.303
 11
60.577
 20
23.956
 21
20.83
  0
LINE
  8
0
 10
60.577
 11
61.619
 20
20.83
 21
14.922
  0
LINE
  8
0
 10
61.619
 11
42.907
 20
14.922
 21
11.622
  0
LINE
  8
0
 10
42.907
 11
43.776
 20
11.622
 21
6.698
  0
LINE
  8
0
 10
43.776
 11
24.08
 20
6.698
 21
3.225
  0
LINE
  8
0
 10
24.08
 11
23.298
 20
3.225
 21
7.657
  0
LINE
  8
0
 10
23.298
 11
4.587
 20
7.657
 21
4.358
  0
LINE
  8
0
 10
4.587
 11
0
 20
4.358
 21
30.369
  0
LINE
  8
0
 10
0
 11
-4.587
 20
30.369
 21
4.358
  0
LINE
  8
0
 10
-4.587
 11
-23.298
 20
4.358
 21
7.657
  0
LINE
  8
0
 10
-23.298
 11
-24.08
 20
7.657
 21
3.225
  0
LINE
  8
0
 10
-24.08
 11
-43.776
 20
3.225
 21
6.698
  0
LINE
  8
0
 10
-43.776
 11
-42.907
 20
6.698
 21
11.622
  0
LINE
  8
0
 10
-42.907
 11
-61.619
 20
11.622
 21
14.922
  0
LINE
  8
0
 10
-61.619
 11
-60.577
 20
14.922
 21
20.83
  0
LINE
  8
0
 10
-60.577
 11
-78.303
 20
20.83
 21
23.956
  0
LINE
  8
0
 10
-78.303
 11
-79.172
 20
23.956
 21
19.032
  0
LINE
  8
0
 10
-79.172
 11
-97.883
 20
19.032
 21
22.331
  0
LINE
  8
0
 10
-97.883
 11
-98.404
 20
22.331
 21
19.377
  0
LINE
  8
0
 10
-98.404
 11
-118.1
 20
19.377
 21
22.85
  0
LINE
  8
0
 10
-108.707
 11
-108.686
 20
102.295
 21
102.482
  0
LINE
  8
0
 10
-108.686
 11
-108.642
 20
102.482
 21
102.665
  0
LINE
  8
0
 10
-108.642
 11
-108.575
 20
102.665
 21
102.841
  0
LINE
  8
0
 10
-108.575
 11
-108.487
 20
102.841
 21
103.007
  0
LINE
  8
0
 10
-108.487
 11
-108.377
 20
103.007
 21
103.162
  0
LINE
  8
0
 10
-108.377
 11
-108.251
 20
103.162
 21
103.301
  0
LINE
  8
0
 10
-108.251
 11
-108.107
 20
103.301
 21
103.423
  0
LINE
  8
0
 10
-108.107
 11
-107.95
 20
103.423
 21
103.526
  0
LINE
  8
0
 10
-107.95
 11
-107.781
 20
103.526
 21
103.608
  0
LINE
  8
0
 10
-107.781
 11
-107.603
 20
103.608
 21
103.669
  0
LINE
  8
0
 10
-107.603
 11
-107.418
 20
103.669
 21
103.707
  0
LINE
  8
0
 10
-107.418
 11
-107.23
 20
103.707
 21
103.721
  0
LINE
  8
0
 10
-107.23
 11
-107.042
 20
103.721
 21
103.712
  0
LINE
  8
0
 10
-107.042
 11
-106.856
 20
103.712
 21
103.679
  0
LINE
  8
0
 10
-106.856
 11
-106.676
 20
103.679
 21
103.623
  0
LINE
  8
0
 10
-106.676
 11
-106.504
 20
103.623
 21
103.546
  0
LINE
  8
0
 10
-106.504
 11
-106.344
 20
103.546
 21
103.447
  0
LINE
  8
0
 10
-106.344
 11
-106.197
 20
103.447
 21
103.329
  0
LINE
  8
0
 10
-106.197
 11
-106.067
 20
103.329
 21
103.194
  0
LINE
  8
0
 10
-106.067
 11
-105.954
 20
103.194
 21
103.043
  0
LINE
  8
0
 10
-105.954
 11
-105.86
 20
103.043
 21
102.879
  0
LINE
  8
0
 10
-105.86
 11
-105.789
 20
102.879
 21
102.705
  0
LINE
  8
0
 10
-105.789
 11
-105.739
 20
102.705
 21
102.523
  0
LINE
  8
0
 10
-105.739
 11
-105.713
 20
102.523
 21
102.336
  0
LINE
  8
0
 10
-105.713
 11
-105.711
 20
102.336
 21
102.148
  0
LINE
  8
0
 10
-105.711
 11
-105.732
 20
102.148
 21
101.961
  0
LINE
  8
0
 10
-105.732
 11
-105.776
 20
101.961
 21
101.778
  0
LINE
  8
0
 10
-105.776
 11
-105.843
 20
101.778
 21
101.602
  0
LINE
  8
0
 10
-105.843
 11
-105.931
 20
101.602
 21
101.436
  0
LINE
  8
0
 10
-105.931
 11
-106.04
 20
101.436
 21
101.281
  0
LINE
  8
0
 10
-106.04
 11
-106.167
 20
101.281
 21
101.142
  0
LINE
  8
0
 10
-106.167
 11
-106.311
 20
101.142
 21
101.02
  0
LINE
  8
0
 10
-106.311
 11
-106.468
 20
101.02
 21
100.917
  0
LINE
  8
0
 10
-106.468
 11
-106.637
 20
100.917
 21
100.835
  0
LINE
  8
0
 10
-106.637
 11
-106.815
 20
100.835
 21
100.774
  0
LINE
  8
0
 10
-106.815
 11
-107
 20
100.774
 21
100.736
  0
LINE
  8
0
 10
-107
 11
-107.188
 20
100.736
 21
100.722
  0
LINE
  8
0
 10
-107.188
 11
-107.376
 20
100.722
 21
100.731
  0
LINE
  8
0
 10
-107.376
 11
-107.561
 20
100.731
 21
100.764
  0
LINE
  8
0
 10
-107.561
 11
-107.741
 20
100.764
 21
100.82
  0
LINE
  8
0
 10
-107.741
 11
-107.914
 20
100.82
 21
100.897
  0
LINE
  8
0
 10
-107.914
 11
-108.074
 20
100.897
 21
100.996
  0
LINE
  8
0
 10
-108.074
 11
-108.221
 20
100.996
 21
101.114
  0
LINE
  8
0
 10
-108.221
 11
-108.351
 20
101.114
 21
101.249
  0
LINE
  8
0
 10
-108.351
 11
-108.464
 20
101.249
 21
101.4
  0
LINE
  8
0
 10
-108.464
 11
-108.558
 20
101.4
 21
101.564
  0
LINE
  8
0
 10
-108.558
 11
-108.629
 20
101.564
 21
101.738
  0
LINE
  8
0
 10
-108.629
 11
-108.679
 20
101.738
 21
101.92
  0
LINE
  8
0
 10
-108.679
 11
-108.705
 20
101.92
 21
102.106
  0
LINE
  8
0
 10
-108.705
 11
-108.707
 20
102.106
 21
102.295
  0
LINE
  8
0
 10
-108.707
 11
-108.686
 20
252.295
 21
252.482
  0
LINE
  8
0
 10
-108.686
 11
-108.642
 20
252.482
 21
252.665
  0
LINE
  8
0
 10
-108.642
 11
-108.575
 20
252.665
 21
252.841
  0
LINE
  8
0
 10
-108.575
 11
-108.487
 20
252.841
 21
253.007
  0
LINE
  8
0
 10
-108.487
 11
-108.377
 20
253.007
 21
253.162
  0
LINE
  8
0
 10
-108.377
 11
-108.251
 20
253.162
 21
253.301
  0
LINE
  8
0
 10
-108.251
 11
-108.107
 20
253.301
 21
253.423
  0
LINE
  8
0
 10
-108.107
 11
-107.95
 20
253.423
 21
253.526
  0
LINE
  8
0
 10
-107.95
 11
-107.781
 20
253.526
 21
253.608
  0
LINE
  8
0
 10
-107.781
 11
-107.603
 20
253.608
 21
253.669
  0
LINE
  8
0
 10
-107.603
 11
-107.418
 20
253.669
 21
253.707
  0
LINE
  8
0
 10
-107.418
 11
-107.23
 20
253.707
 21
253.721
  0
LINE
  8
0
 10
-107.23
 11
-107.042
 20
253.721
 21
253.712
  0
LINE
  8
0
 10
-107.042
 11
-106.856
 20
253.712
 21
253.679
  0
LINE
  8
0
 10
-106.856
 11
-106.676
 20
253.679
 21
253.623
  0
LINE
  8
0
 10
-106.676
 11
-106.504
 20
253.623
 21
253.546
  0
LINE
  8
0
 10
-106.504
 11
-106.344
 20
253.546
 21
253.447
  0
LINE
  8
0
 10
-106.344
 11
-106.197
 20
253.447
 21
253.329
  0
LINE
  8
0
 10
-106.197
 11
-106.067
 20
253.329
 21
253.194
  0
LINE
  8
0
 10
-106.067
 11
-105.954
 20
253.194
 21
253.043
  0
LINE
  8
0
 10
-105.954
 11
-105.86
 20
253.043
 21
252.879
  0
LINE
  8
0
 10
-105.86
 11
-105.789
 20
252.879
 21
252.705
  0
LINE
  8
0
 10
-105.789
 11
-105.739
 20
252.705
 21
252.523
  0
LINE
  8
0
 10
-105.739
 11
-105.713
 20
252.523
 21
252.336
  0
LINE
  8
0
 10
-105.713
 11
-105.711
 20
252.336
 21
252.148
  0
LINE
  8
0
 10
-105.711
 11
-105.732
 20
252.148
 21
251.961
  0
LINE
  8
0
 10
-105.732
 11
-105.776
 20
251.961
 21
251.778
  0
LINE
  8
0
 10
-105.776
 11
-105.843
 20
251.778
 21
251.602
  0
LINE
  8
0
 10
-105.843
 11
-105.931
 20
251.602
 21
251.436
  0
LINE
  8
0
 10
-105.931
 11
-106.04
 20
251.436
 21
251.281
  0
LINE
  8
0
 10
-106.04
 11
-106.167
 20
251.281
 21
251.142
  0
LINE
  8
0
 10
-106.167
 11
-106.311
 20
251.142
 21
251.02
  0
LINE
  8
0
 10
-106.311
 11
-106.468
 20
251.02
 21
250.917
  0
LINE
  8
0
 10
-106.468
 11
-106.637
 20
250.917
 21
250.835
  0
LINE
  8
0
 10
-106.637
 11
-106.815
 20
250.835
 21
250.774
  0
LINE
  8
0
 10
-106.815
 11
-107
 20
250.774
 21
250.736
  0
LINE
  8
0
 10
-107
 11
-107.188
 20
250.736
 21
250.722
  0
LINE
  8
0
 10
-107.188
 11
-107.376
 20
250.722
 21
250.731
  0
LINE
  8
0
 10
-107.376
 11
-107.561
 20
250.731
 21
250.764
  0
LINE
  8
0
 10
-107.561
 11
-107.741
 20
250.764
 21
250.82
  0
LINE
  8
0
 10
-107.741
 11
-107.914
 20
250.82
 21
250.897
  0
LINE
  8
0
 10
-107.914
 11
-108.074
 20
250.897
 21
250.996
  0
LINE
  8
0
 10
-108.074
 11
-108.221
 20
250.996
 21
251.114
  0
LINE
  8
0
 10
-108.221
 11
-108.351
 20
251.114
 21
251.249
  0
LINE
  8
0
 10
-108.351
 11
-108.464
 20
251.249
 21
251.4
  0
LINE
  8
0
 10
-108.464
 11
-108.558
 20
251.4
 21
251.564
  0
LINE
  8
0
 10
-108.558
 11
-108.629
 20
251.564
 21
251.738
  0
LINE
  8
0
 10
-108.629
 11
-108.679
 20
251.738
 21
251.92
  0
LINE
  8
0
 10
-108.679
 11
-108.705
 20
251.92
 21
252.106
  0
LINE
  8
0
 10
-108.705
 11
-108.707
 20
252.106
 21
252.295
  0
LINE
  8
0
 10
-23.098
 11
-23.077
 20
-0.243
 21
-0.056
  0
LINE
  8
0
 10
-23.077
 11
-23.033
 20
-0.056
 21
0.127
  0
LINE
  8
0
 10
-23.033
 11
-22.966
 20
0.127
 21
0.303
  0
LINE
  8
0
 10
-22.966
 11
-22.878
 20
0.303
 21
0.47
  0
LINE
  8
0
 10
-22.878
 11
-22.768
 20
0.47
 21
0.624
  0
LINE
  8
0
 10
-22.768
 11
-22.642
 20
0.624
 21
0.763
  0
LINE
  8
0
 10
-22.642
 11
-22.498
 20
0.763
 21
0.885
  0
LINE
  8
0
 10
-22.498
 11
-22.341
 20
0.885
 21
0.988
  0
LINE
  8
0
 10
-22.341
 11
-22.172
 20
0.988
 21
1.07
  0
LINE
  8
0
 10
-22.172
 11
-21.994
 20
1.07
 21
1.131
  0
LINE
  8
0
 10
-21.994
 11
-21.809
 20
1.131
 21
1.17
  0
LINE
  8
0
 10
-21.809
 11
-21.621
 20
1.17
 21
1.183
  0
LINE
  8
0
 10
-21.621
 11
-21.432
 20
1.183
 21
1.174
  0
LINE
  8
0
 10
-21.432
 11
-21.247
 20
1.174
 21
1.142
  0
LINE
  8
0
 10
-21.247
 11
-21.067
 20
1.142
 21
1.086
  0
LINE
  8
0
 10
-21.067
 11
-20.895
 20
1.086
 21
1.009
  0
LINE
  8
0
 10
-20.895
 11
-20.735
 20
1.009
 21
0.909
  0
LINE
  8
0
 10
-20.735
 11
-20.588
 20
0.909
 21
0.791
  0
LINE
  8
0
 10
-20.588
 11
-20.458
 20
0.791
 21
0.656
  0
LINE
  8
0
 10
-20.458
 11
-20.345
 20
0.656
 21
0.505
  0
LINE
  8
0
 10
-20.345
 11
-20.251
 20
0.505
 21
0.342
  0
LINE
  8
0
 10
-20.251
 11
-20.18
 20
0.342
 21
0.168
  0
LINE
  8
0
 10
-20.18
 11
-20.13
 20
0.168
 21
-0.015
  0
LINE
  8
0
 10
-20.13
 11
-20.104
 20
-0.015
 21
-0.201
  0
LINE
  8
0
 10
-20.104
 11
-20.102
 20
-0.201
 21
-0.389
  0
LINE
  8
0
 10
-20.102
 11
-20.123
 20
-0.389
 21
-0.577
  0
LINE
  8
0
 10
-20.123
 11
-20.167
 20
-0.577
 21
-0.76
  0
LINE
  8
0
 10
-20.167
 11
-20.234
 20
-0.76
 21
-0.936
  0
LINE
  8
0
 10
-20.234
 11
-20.322
 20
-0.936
 21
-1.102
  0
LINE
  8
0
 10
-20.322
 11
-20.431
 20
-1.102
 21
-1.256
  0
LINE
  8
0
 10
-20.431
 11
-20.557
 20
-1.256
 21
-1.396
  0
LINE
  8
0
 10
-20.557
 11
-20.702
 20
-1.396
 21
-1.517
  0
LINE
  8
0
 10
-20.702
 11
-20.859
 20
-1.517
 21
-1.621
  0
LINE
  8
0
 10
-20.859
 11
-21.028
 20
-1.621
 21
-1.703
  0
LINE
  8
0
 10
-21.028
 11
-21.206
 20
-1.703
 21
-1.764
  0
LINE
  8
0
 10
-21.206
 11
-21.391
 20
-1.764
 21
-1.802
  0
LINE
  8
0
 10
-21.391
 11
-21.579
 20
-1.802
 21
-1.816
  0
LINE
  8
0
 10
-21.579
 11
-21.767
 20
-1.816
 21
-1.807
  0
LINE
  8
0
 10
-21.767
 11
-21.952
 20
-1.807
 21
-1.774
  0
LINE
  8
0
 10
-21.952
 11
-22.132
 20
-1.774
 21
-1.718
  0
LINE
  8
0
 10
-22.132
 11
-22.305
 20
-1.718
 21
-1.641
  0
LINE
  8
0
 10
-22.305
 11
-22.465
 20
-1.641
 21
-1.542
  0
LINE
  8
0
 10
-22.465
 11
-22.611
 20
-1.542
 21
-1.423
  0
LINE
  8
0
 10
-22.611
 11
-22.742
 20
-1.423
 21
-1.289
  0
LINE
  8
0
 10
-22.742
 11
-22.855
 20
-1.289
 21
-1.138
  0
LINE
  8
0
 10
-22.855
 11
-22.949
 20
-1.138
 21
-0.974
  0
LINE
  8
0
 10
-22.949
 11
-23.019
 20
-0.974
 21
-0.8
  0
LINE
  8
0
 10
-23.019
 11
-23.07
 20
-0.8
 21
-0.618
  0
LINE
  8
0
 10
-23.07
 11
-23.096
 20
-0.618
 21
-0.431
  0
LINE
  8
0
 10
-23.096
 11
-23.098
 20
-0.431
 21
-0.243
  0
LINE
  8
0
 10
-23.098
 11
-23.077
 20
149.757
 21
149.944
  0
LINE
  8
0
 10
-23.077
 11
-23.033
 20
149.944
 21
150.127
  0
LINE
  8
0
 10
-23.033
 11
-22.966
 20
150.127
 21
150.303
  0
LINE
  8
0
 10
-22.966
 11
-22.878
 20
150.303
 21
150.47
  0
LINE
  8
0
 10
-22.878
 11
-22.768
 20
150.47
 21
150.624
  0
LINE
  8
0
 10
-22.768
 11
-22.642
 20
150.624
 21
150.763
  0
LINE
  8
0
 10
-22.642
 11
-22.498
 20
150.763
 21
150.885
  0
LINE
  8
0
 10
-22.498
 11
-22.341
 20
150.885
 21
150.988
  0
LINE
  8
0
 10
-22.341
 11
-22.172
 20
150.988
 21
151.07
  0
LINE
  8
0
 10
-22.172
 11
-21.994
 20
151.07
 21
151.131
  0
LINE
  8
0
 10
-21.994
 11
-21.809
 20
151.131
 21
151.17
  0
LINE
  8
0
 10
-21.809
 11
-21.621
 20
151.17
 21
151.183
  0
LINE
  8
0
 10
-21.621
 11
-21.432
 20
151.183
 21
151.174
  0
LINE
  8
0
 10
-21.432
 11
-21.247
 20
151.174
 21
151.142
  0
LINE
  8
0
 10
-21.247
 11
-21.067
 20
151.142
 21
151.086
  0
LINE
  8
0
 10
-21.067
 11
-20.895
 20
151.086
 21
151.009
  0
LINE
  8
0
 10
-20.895
 11
-20.735
 20
151.009
 21
150.909
  0
LINE
  8
0
 10
-20.735
 11
-20.588
 20
150.909
 21
150.791
  0
LINE
  8
0
 10
-20.588
 11
-20.458
 20
150.791
 21
150.656
  0
LINE
  8
0
 10
-20.458
 11
-20.345
 20
150.656
 21
150.505
  0
LINE
  8
0
 10
-20.345
 11
-20.251
 20
150.505
 21
150.342
  0
LINE
  8
0
 10
-20.251
 11
-20.18
 20
150.342
 21
150.168
  0
LINE
  8
0
 10
-20.18
 11
-20.13
 20
150.168
 21
149.985
  0
LINE
  8
0
 10
-20.13
 11
-20.104
 20
149.985
 21
149.799
  0
LINE
  8
0
 10
-20.104
 11
-20.102
 20
149.799
 21
149.611
  0
LINE
  8
0
 10
-20.102
 11
-20.123
 20
149.611
 21
149.423
  0
LINE
  8
0
 10
-20.123
 11
-20.167
 20
149.423
 21
149.24
  0
LINE
  8
0
 10
-20.167
 11
-20.234
 20
149.24
 21
149.064
  0
LINE
  8
0
 10
-20.234
 11
-20.322
 20
149.064
 21
148.898
  0
LINE
  8
0
 10
-20.322
 11
-20.431
 20
148.898
 21
148.744
  0
LINE
  8
0
 10
-20.431
 11
-20.557
 20
148.744
 21
148.604
  0
LINE
  8
0
 10
-20.557
 11
-20.702
 20
148.604
 21
148.483
  0
LINE
  8
0
 10
-20.702
 11
-20.859
 20
148.483
 21
148.379
  0
LINE
  8
0
 10
-20.859
 11
-21.028
 20
148.379
 21
148.297
  0
LINE
  8
0
 10
-21.028
 11
-21.206
 20
148.297
 21
148.236
  0
LINE
  8
0
 10
-21.206
 11
-21.391
 20
148.236
 21
148.198
  0
LINE
  8
0
 10
-21.391
 11
-21.579
 20
148.198
 21
148.184
  0
LINE
  8
0
 10
-21.579
 11
-21.767
 20
148.184
 21
148.193
  0
LINE
  8
0
 10
-21.767
 11
-21.952
 20
148.193
 21
148.226
  0
LINE
  8
0
 10
-21.952
 11
-22.132
 20
148.226
 21
148.282
  0
LINE
  8
0
 10
-22.132
 11
-22.305
 20
148.282
 21
148.359
  0
LINE
  8
0
 10
-22.305
 11
-22.465
 20
148.359
 21
148.458
  0
LINE
  8
0
 10
-22.465
 11
-22.611
 20
148.458
 21
148.577
  0
LINE
  8
0
 10
-22.611
 11
-22.742
 20
148.577
 21
148.711
  0
LINE
  8
0
 10
-22.742
 11
-22.855
 20
148.711
 21
148.862
  0
LINE
  8
0
 10
-22.855
 11
-22.949
 20
148.862
 21
149.026
  0
LINE
  8
0
 10
-22.949
 11
-23.019
 20
149.026
 21
149.2
  0
LINE
  8
0
 10
-23.019
 11
-23.07
 20
149.2
 21
149.382
  0
LINE
  8
0
 10
-23.07
 11
-23.096
 20
149.382
 21
149.569
  0
LINE
  8
0
 10
-23.096
 11
-23.098
 20
149.569
 21
149.757
  0
LINE
  8
0
 10
-12.734
 11
-12.713
 20
102.295
 21
102.482
  0
LINE
  8
0
 10
-12.713
 11
-12.669
 20
102.482
 21
102.665
  0
LINE
  8
0
 10
-12.669
 11
-12.602
 20
102.665
 21
102.841
  0
LINE
  8
0
 10
-12.602
 11
-12.514
 20
102.841
 21
103.007
  0
LINE
  8
0
 10
-12.514
 11
-12.404
 20
103.007
 21
103.162
  0
LINE
  8
0
 10
-12.404
 11
-12.278
 20
103.162
 21
103.301
  0
LINE
  8
0
 10
-12.278
 11
-12.134
 20
103.301
 21
103.423
  0
LINE
  8
0
 10
-12.134
 11
-11.977
 20
103.423
 21
103.526
  0
LINE
  8
0
 10
-11.977
 11
-11.808
 20
103.526
 21
103.608
  0
LINE
  8
0
 10
-11.808
 11
-11.63
 20
103.608
 21
103.669
  0
LINE
  8
0
 10
-11.63
 11
-11.445
 20
103.669
 21
103.707
  0
LINE
  8
0
 10
-11.445
 11
-11.257
 20
103.707
 21
103.721
  0
LINE
  8
0
 10
-11.257
 11
-11.069
 20
103.721
 21
103.712
  0
LINE
  8
0
 10
-11.069
 11
-10.883
 20
103.712
 21
103.679
  0
LINE
  8
0
 10
-10.883
 11
-10.703
 20
103.679
 21
103.623
  0
LINE
  8
0
 10
-10.703
 11
-10.531
 20
103.623
 21
103.546
  0
LINE
  8
0
 10
-10.531
 11
-10.371
 20
103.546
 21
103.447
  0
LINE
  8
0
 10
-10.371
 11
-10.224
 20
103.447
 21
103.329
  0
LINE
  8
0
 10
-10.224
 11
-10.094
 20
103.329
 21
103.194
  0
LINE
  8
0
 10
-10.094
 11
-9.981
 20
103.194
 21
103.043
  0
LINE
  8
0
 10
-9.981
 11
-9.887
 20
103.043
 21
102.879
  0
LINE
  8
0
 10
-9.887
 11
-9.816
 20
102.879
 21
102.705
  0
LINE
  8
0
 10
-9.816
 11
-9.766
 20
102.705
 21
102.523
  0
LINE
  8
0
 10
-9.766
 11
-9.74
 20
102.523
 21
102.336
  0
LINE
  8
0
 10
-9.74
 11
-9.738
 20
102.336
 21
102.148
  0
LINE
  8
0
 10
-9.738
 11
-9.759
 20
102.148
 21
101.961
  0
LINE
  8
0
 10
-9.759
 11
-9.803
 20
101.961
 21
101.778
  0
LINE
  8
0
 10
-9.803
 11
-9.87
 20
101.778
 21
101.602
  0
LINE
  8
0
 10
-9.87
 11
-9.958
 20
101.602
 21
101.436
  0
LINE
  8
0
 10
-9.958
 11
-10.067
 20
101.436
 21
101.281
  0
LINE
  8
0
 10
-10.067
 11
-10.194
 20
101.281
 21
101.142
  0
LINE
  8
0
 10
-10.194
 11
-10.338
 20
101.142
 21
101.02
  0
LINE
  8
0
 10
-10.338
 11
-10.495
 20
101.02
 21
100.917
  0
LINE
  8
0
 10
-10.495
 11
-10.664
 20
100.917
 21
100.835
  0
LINE
  8
0
 10
-10.664
 11
-10.842
 20
100.835
 21
100.774
  0
LINE
  8
0
 10
-10.842
 11
-11.027
 20
100.774
 21
100.736
  0
LINE
  8
0
 10
-11.027
 11
-11.215
 20
100.736
 21
100.722
  0
LINE
  8
0
 10
-11.215
 11
-11.403
 20
100.722
 21
100.731
  0
LINE
  8
0
 10
-11.403
 11
-11.588
 20
100.731
 21
100.764
  0
LINE
  8
0
 10
-11.588
 11
-11.768
 20
100.764
 21
100.82
  0
LINE
  8
0
 10
-11.768
 11
-11.941
 20
100.82
 21
100.897
  0
LINE
  8
0
 10
-11.941
 11
-12.101
 20
100.897
 21
100.996
  0
LINE
  8
0
 10
-12.101
 11
-12.248
 20
100.996
 21
101.114
  0
LINE
  8
0
 10
-12.248
 11
-12.378
 20
101.114
 21
101.249
  0
LINE
  8
0
 10
-12.378
 11
-12.491
 20
101.249
 21
101.4
  0
LINE
  8
0
 10
-12.491
 11
-12.585
 20
101.4
 21
101.564
  0
LINE
  8
0
 10
-12.585
 11
-12.656
 20
101.564
 21
101.738
  0
LINE
  8
0
 10
-12.656
 11
-12.706
 20
101.738
 21
101.92
  0
LINE
  8
0
 10
-12.706
 11
-12.732
 20
101.92
 21
102.106
  0
LINE
  8
0
 10
-12.732
 11
-12.734
 20
102.106
 21
102.295
  0
LINE
  8
0
 10
-12.734
 11
-12.713
 20
252.295
 21
252.482
  0
LINE
  8
0
 10
-12.713
 11
-12.669
 20
252.482
 21
252.665
  0
LINE
  8
0
 10
-12.669
 11
-12.602
 20
252.665
 21
252.841
  0
LINE
  8
0
 10
-12.602
 11
-12.514
 20
252.841
 21
253.007
  0
LINE
  8
0
 10
-12.514
 11
-12.404
 20
253.007
 21
253.162
  0
LINE
  8
0
 10
-12.404
 11
-12.278
 20
253.162
 21
253.301
  0
LINE
  8
0
 10
-12.278
 11
-12.134
 20
253.301
 21
253.423
  0
LINE
  8
0
 10
-12.134
 11
-11.977
 20
253.423
 21
253.526
  0
LINE
  8
0
 10
-11.977
 11
-11.808
 20
253.526
 21
253.608
  0
LINE
  8
0
 10
-11.808
 11
-11.63
 20
253.608
 21
253.669
  0
LINE
  8
0
 10
-11.63
 11
-11.445
 20
253.669
 21
253.707
  0
LINE
  8
0
 10
-11.445
 11
-11.257
 20
253.707
 21
253.721
  0
LINE
  8
0
 10
-11.257
 11
-11.069
 20
253.721
 21
253.712
  0
LINE
  8
0
 10
-11.069
 11
-10.883
 20
253.712
 21
253.679
  0
LINE
  8
0
 10
-10.883
 11
-10.703
 20
253.679
 21
253.623
  0
LINE
  8
0
 10
-10.703
 11
-10.531
 20
253.623
 21
253.546
  0
LINE
  8
0
 10
-10.531
 11
-10.371
 20
253.546
 21
253.447
  0
LINE
  8
0
 10
-10.371
 11
-10.224
 20
253.447
 21
253.329
  0
LINE
  8
0
 10
-10.224
 11
-10.094
 20
253.329
 21
253.194
  0
LINE
  8
0
 10
-10.094
 11
-9.981
 20
253.194
 21
253.043
  0
LINE
  8
0
 10
-9.981
 11
-9.887
 20
253.043
 21
252.879
  0
LINE
  8
0
 10
-9.887
 11
-9.816
 20
252.879
 21
252.705
  0
LINE
  8
0
 10
-9.816
 11
-9.766
 20
252.705
 21
252.523
  0
LINE
  8
0
 10
-9.766
 11
-9.74
 20
252.523
 21
252.336
  0
LINE
  8
0
 10
-9.74
 11
-9.738
 20
252.336
 21
252.148
  0
LINE
  8
0
 10
-9.738
 11
-9.759
 20
252.148
 21
251.961
  0
LINE
  8
0
 10
-9.759
 11
-9.803
 20
251.961
 21
251.778
  0
LINE
  8
0
 10
-9.803
 11
-9.87
 20
251.778
 21
251.602
  0
LINE
  8
0
 10
-9.87
 11
-9.958
 20
251.602
 21
251.436
  0
LINE
  8
0
 10
-9.958
 11
-10.067
 20
251.436
 21
251.281
  0
LINE
  8
0
 10
-10.067
 11
-10.194
 20
251.281
 21
251.142
  0
LINE
  8
0
 10
-10.194
 11
-10.338
 20
251.142
 21
251.02
  0
LINE
  8
0
 10
-10.338
 11
-10.495
 20
251.02
 21
250.917
  0
LINE
  8
0
 10
-10.495
 11
-10.664
 20
250.917
 21
250.835
  0
LINE
  8
0
 10
-10.664
 11
-10.842
 20
250.835
 21
250.774
  0
LINE
  8
0
 10
-10.842
 11
-11.027
 20
250.774
 21
250.736
  0
LINE
  8
0
 10
-11.027
 11
-11.215
 20
250.736
 21
250.722
  0
LINE
  8
0
 10
-11.215
 11
-11.403
 20
250.722
 21
250.731
  0
LINE
  8
0
 10
-11.403
 11
-11.588
 20
250.731
 21
250.764
  0
LINE
  8
0
 10
-11.588
 11
-11.768
 20
250.764
 21
250.82
  0
LINE
  8
0
 10
-11.768
 11
-11.941
 20
250.82
 21
250.897
  0
LINE
  8
0
 10
-11.941
 11
-12.101
 20
250.897
 21
250.996
  0
LINE
  8
0
 10
-12.101
 11
-12.248
 20
250.996
 21
251.114
  0
LINE
  8
0
 10
-12.248
 11
-12.378
 20
251.114
 21
251.249
  0
LINE
  8
0
 10
-12.378
 11
-12.491
 20
251.249
 21
251.4
  0
LINE
  8
0
 10
-12.491
 11
-12.585
 20
251.4
 21
251.564
  0
LINE
  8
0
 10
-12.585
 11
-12.656
 20
251.564
 21
251.738
  0
LINE
  8
0
 10
-12.656
 11
-12.706
 20
251.738
 21
251.92
  0
LINE
  8
0
 10
-12.706
 11
-12.732
 20
251.92
 21
252.106
  0
LINE
  8
0
 10
-12.732
 11
-12.734
 20
252.106
 21
252.295
  0
LINE
  8
0
 10
9.738
 11
9.74
 20
102.148
 21
102.336
  0
LINE
  8
0
 10
9.74
 11
9.766
 20
102.336
 21
102.523
  0
LINE
  8
0
 10
9.766
 11
9.816
 20
102.523
 21
102.705
  0
LINE
  8
0
 10
9.816
 11
9.887
 20
102.705
 21
102.879
  0
LINE
  8
0
 10
9.887
 11
9.981
 20
102.879
 21
103.043
  0
LINE
  8
0
 10
9.981
 11
10.094
 20
103.043
 21
103.194
  0
LINE
  8
0
 10
10.094
 11
10.224
 20
103.194
 21
103.329
  0
LINE
  8
0
 10
10.224
 11
10.371
 20
103.329
 21
103.447
  0
LINE
  8
0
 10
10.371
 11
10.531
 20
103.447
 21
103.546
  0
LINE
  8
0
 10
10.531
 11
10.703
 20
103.546
 21
103.623
  0
LINE
  8
0
 10
10.703
 11
10.883
 20
103.623
 21
103.679
  0
LINE
  8
0
 10
10.883
 11
11.069
 20
103.679
 21
103.712
  0
LINE
  8
0
 10
11.069
 11
11.257
 20
103.712
 21
103.721
  0
LINE
  8
0
 10
11.257
 11
11.445
 20
103.721
 21
103.707
  0
LINE
  8
0
 10
11.445
 11
11.63
 20
103.707
 21
103.669
  0
LINE
  8
0
 10
11.63
 11
11.808
 20
103.669
 21
103.608
  0
LINE
  8
0
 10
11.808
 11
11.977
 20
103.608
 21
103.526
  0
LINE
  8
0
 10
11.977
 11
12.134
 20
103.526
 21
103.423
  0
LINE
  8
0
 10
12.134
 11
12.278
 20
103.423
 21
103.301
  0
LINE
  8
0
 10
12.278
 11
12.404
 20
103.301
 21
103.162
  0
LINE
  8
0
 10
12.404
 11
12.514
 20
103.162
 21
103.007
  0
LINE
  8
0
 10
12.514
 11
12.602
 20
103.007
 21
102.841
  0
LINE
  8
0
 10
12.602
 11
12.669
 20
102.841
 21
102.665
  0
LINE
  8
0
 10
12.669
 11
12.713
 20
102.665
 21
102.482
  0
LINE
  8
0
 10
12.713
 11
12.734
 20
102.482
 21
102.295
  0
LINE
  8
0
 10
12.734
 11
12.732
 20
102.295
 21
102.106
  0
LINE
  8
0
 10
12.732
 11
12.706
 20
102.106
 21
101.92
  0
LINE
  8
0
 10
12.706
 11
12.656
 20
101.92
 21
101.738
  0
LINE
  8
0
 10
12.656
 11
12.585
 20
101.738
 21
101.564
  0
LINE
  8
0
 10
12.585
 11
12.491
 20
101.564
 21
101.4
  0
LINE
  8
0
 10
12.491
 11
12.378
 20
101.4
 21
101.249
  0
LINE
  8
0
 10
12.378
 11
12.248
 20
101.249
 21
101.114
  0
LINE
  8
0
 10
12.248
 11
12.101
 20
101.114
 21
100.996
  0
LINE
  8
0
 10
12.101
 11
11.941
 20
100.996
 21
100.897
  0
LINE
  8
0
 10
11.941
 11
11.768
 20
100.897
 21
100.82
  0
LINE
  8
0
 10
11.768
 11
11.588
 20
100.82
 21
100.764
  0
LINE
  8
0
 10
11.588
 11
11.403
 20
100.764
 21
100.731
  0
LINE
  8
0
 10
11.403
 11
11.215
 20
100.731
 21
100.722
  0
LINE
  8
0
 10
11.215
 11
11.027
 20
100.722
 21
100.736
  0
LINE
  8
0
 10
11.027
 11
10.842
 20
100.736
 21
100.774
  0
LINE
  8
0
 10
10.842
 11
10.664
 20
100.774
 21
100.835
  0
LINE
  8
0
 10
10.664
 11
10.495
 20
100.835
 21
100.917
  0
LINE
  8
0
 10
10.495
 11
10.338
 20
100.917
 21
101.02
  0
LINE
  8
0
 10
10.338
 11
10.194
 20
101.02
 21
101.142
  0
LINE
  8
0
 10
10.194
 11
10.067
 20
101.142
 21
101.281
  0
LINE
  8
0
 10
10.067
 11
9.958
 20
101.281
 21
101.436
  0
LINE
  8
0
 10
9.958
 11
9.87
 20
101.436
 21
101.602
  0
LINE
  8
0
 10
9.87
 11
9.803
 20
101.602
 21
101.778
  0
LINE
  8
0
 10
9.803
 11
9.759
 20
101.778
 21
101.961
  0
LINE
  8
0
 10
9.759
 11
9.738
 20
101.961
 21
102.148
  0
LINE
  8
0
 10
9.738
 11
9.74
 20
252.148
 21
252.336
  0
LINE
  8
0
 10
9.74
 11
9.766
 20
252.336
 21
252.523
  0
LINE
  8
0
 10
9.766
 11
9.816
 20
252.523
 21
252.705
  0
LINE
  8
0
 10
9.816
 11
9.887
 20
252.705
 21
252.879
  0
LINE
  8
0
 10
9.887
 11
9.981
 20
252.879
 21
253.043
  0
LINE
  8
0
 10
9.981
 11
10.094
 20
253.043
 21
253.194
  0
LINE
  8
0
 10
10.094
 11
10.224
 20
253.194
 21
253.329
  0
LINE
  8
0
 10
10.224
 11
10.371
 20
253.329
 21
253.447
  0
LINE
  8
0
 10
10.371
 11
10.531
 20
253.447
 21
253.546
  0
LINE
  8
0
 10
10.531
 11
10.703
 20
253.546
 21
253.623
  0
LINE
  8
0
 10
10.703
 11
10.883
 20
253.623
 21
253.679
  0
LINE
  8
0
 10
10.883
 11
11.069
 20
253.679
 21
253.712
  0
LINE
  8
0
 10
11.069
 11
11.257
 20
253.712
 21
253.721
  0
LINE
  8
0
 10
11.257
 11
11.445
 20
253.721
 21
253.707
  0
LINE
  8
0
 10
11.445
 11
11.63
 20
253.707
 21
253.669
  0
LINE
  8
0
 10
11.63
 11
11.808
 20
253.669
 21
253.608
  0
LINE
  8
0
 10
11.808
 11
11.977
 20
253.608
 21
253.526
  0
LINE
  8
0
 10
11.977
 11
12.134
 20
253.526
 21
253.423
  0
LINE
  8
0
 10
12.134
 11
12.278
 20
253.423
 21
253.301
  0
LINE
  8
0
 10
12.278
 11
12.404
 20
253.301
 21
253.162
  0
LINE
  8
0
 10
12.404
 11
12.514
 20
253.162
 21
253.007
  0
LINE
  8
0
 10
12.514
 11
12.602
 20
253.007
 21
252.841
  0
LINE
  8
0
 10
12.602
 11
12.669
 20
252.841
 21
252.665
  0
LINE
  8
0
 10
12.669
 11
12.713
 20
252.665
 21
252.482
  0
LINE
  8
0
 10
12.713
 11
12.734
 20
252.482
 21
252.295
  0
LINE
  8
0
 10
12.734
 11
12.732
 20
252.295
 21
252.106
  0
LINE
  8
0
 10
12.732
 11
12.706
 20
252.106
 21
251.92
  0
LINE
  8
0
 10
12.706
 11
12.656
 20
251.92
 21
251.738
  0
LINE
  8
0
 10
12.656
 11
12.585
 20
251.738
 21
251.564
  0
LINE
  8
0
 10
12.585
 11
12.491
 20
251.564
 21
251.4
  0
LINE
  8
0
 10
12.491
 11
12.378
 20
251.4
 21
251.249
  0
LINE
  8
0
 10
12.378
 11
12.248
 20
251.249
 21
251.114
  0
LINE
  8
0
 10
12.248
 11
12.101
 20
251.114
 21
250.996
  0
LINE
  8
0
 10
12.101
 11
11.941
 20
250.996
 21
250.897
  0
LINE
  8
0
 10
11.941
 11
11.768
 20
250.897
 21
250.82
  0
LINE
  8
0
 10
11.768
 11
11.588
 20
250.82
 21
250.764
  0
LINE
  8
0
 10
11.588
 11
11.403
 20
250.764
 21
250.731
  0
LINE
  8
0
 10
11.403
 11
11.215
 20
250.731
 21
250.722
  0
LINE
  8
0
 10
11.215
 11
11.027
 20
250.722
 21
250.736
  0
LINE
  8
0
 10
11.027
 11
10.842
 20
250.736
 21
250.774
  0
LINE
  8
0
 10
10.842
 11
10.664
 20
250.774
 21
250.835
  0
LINE
  8
0
 10
10.664
 11
10.495
 20
250.835
 21
250.917
  0
LINE
  8
0
 10
10.495
 11
10.338
 20
250.917
 21
251.02
  0
LINE
  8
0
 10
10.338
 11
10.194
 20
251.02
 21
251.142
  0
LINE
  8
0
 10
10.194
 11
10.067
 20
251.142
 21
251.281
  0
LINE
  8
0
 10
10.067
 11
9.958
 20
251.281
 21
251.436
  0
LINE
  8
0
 10
9.958
 11
9.87
 20
251.436
 21
251.602
  0
LINE
  8
0
 10
9.87
 11
9.803
 20
251.602
 21
251.778
  0
LINE
  8
0
 10
9.803
 11
9.759
 20
251.778
 21
251.961
  0
LINE
  8
0
 10
9.759
 11
9.738
 20
251.961
 21
252.148
  0
LINE
  8
0
 10
20.102
 11
20.104
 20
-0.389
 21
-0.201
  0
LINE
  8
0
 10
20.104
 11
20.13
 20
-0.201
 21
-0.015
  0
LINE
  8
0
 10
20.13
 11
20.18
 20
-0.015
 21
0.168
  0
LINE
  8
0
 10
20.18
 11
20.251
 20
0.168
 21
0.342
  0
LINE
  8
0
 10
20.251
 11
20.345
 20
0.342
 21
0.505
  0
LINE
  8
0
 10
20.345
 11
20.458
 20
0.505
 21
0.656
  0
LINE
  8
0
 10
20.458
 11
20.588
 20
0.656
 21
0.791
  0
LINE
  8
0
 10
20.588
 11
20.735
 20
0.791
 21
0.909
  0
LINE
  8
0
 10
20.735
 11
20.895
 20
0.909
 21
1.009
  0
LINE
  8
0
 10
20.895
 11
21.067
 20
1.009
 21
1.086
  0
LINE
  8
0
 10
21.067
 11
21.247
 20
1.086
 21
1.142
  0
LINE
  8
0
 10
21.247
 11
21.432
 20
1.142
 21
1.174
  0
LINE
  8
0
 10
21.432
 11
21.621
 20
1.174
 21
1.183
  0
LINE
  8
0
 10
21.621
 11
21.809
 20
1.183
 21
1.17
  0
LINE
  8
0
 10
21.809
 11
21.994
 20
1.17
 21
1.131
  0
LINE
  8
0
 10
21.994
 11
22.172
 20
1.131
 21
1.07
  0
LINE
  8
0
 10
22.172
 11
22.341
 20
1.07
 21
0.988
  0
LINE
  8
0
 10
22.341
 11
22.498
 20
0.988
 21
0.885
  0
LINE
  8
0
 10
22.498
 11
22.642
 20
0.885
 21
0.763
  0
LINE
  8
0
 10
22.642
 11
22.768
 20
0.763
 21
0.624
  0
LINE
  8
0
 10
22.768
 11
22.878
 20
0.624
 21
0.47
  0
LINE
  8
0
 10
22.878
 11
22.966
 20
0.47
 21
0.303
  0
LINE
  8
0
 10
22.966
 11
23.033
 20
0.303
 21
0.127
  0
LINE
  8
0
 10
23.033
 11
23.077
 20
0.127
 21
-0.056
  0
LINE
  8
0
 10
23.077
 11
23.098
 20
-0.056
 21
-0.243
  0
LINE
  8
0
 10
23.098
 11
23.096
 20
-0.243
 21
-0.431
  0
LINE
  8
0
 10
23.096
 11
23.07
 20
-0.431
 21
-0.618
  0
LINE
  8
0
 10
23.07
 11
23.019
 20
-0.618
 21
-0.8
  0
LINE
  8
0
 10
23.019
 11
22.949
 20
-0.8
 21
-0.974
  0
LINE
  8
0
 10
22.949
 11
22.855
 20
-0.974
 21
-1.138
  0
LINE
  8
0
 10
22.855
 11
22.742
 20
-1.138
 21
-1.289
  0
LINE
  8
0
 10
22.742
 11
22.611
 20
-1.289
 21
-1.423
  0
LINE
  8
0
 10
22.611
 11
22.465
 20
-1.423
 21
-1.542
  0
LINE
  8
0
 10
22.465
 11
22.305
 20
-1.542
 21
-1.641
  0
LINE
  8
0
 10
22.305
 11
22.132
 20
-1.641
 21
-1.718
  0
LINE
  8
0
 10
22.132
 11
21.952
 20
-1.718
 21
-1.774
  0
LINE
  8
0
 10
21.952
 11
21.767
 20
-1.774
 21
-1.807
  0
LINE
  8
0
 10
21.767
 11
21.579
 20
-1.807
 21
-1.816
  0
LINE
  8
0
 10
21.579
 11
21.391
 20
-1.816
 21
-1.802
  0
LINE
  8
0
 10
21.391
 11
21.206
 20
-1.802
 21
-1.764
  0
LINE
  8
0
 10
21.206
 11
21.028
 20
-1.764
 21
-1.703
  0
LINE
  8
0
 10
21.028
 11
20.859
 20
-1.703
 21
-1.621
  0
LINE
  8
0
 10
20.859
 11
20.702
 20
-1.621
 21
-1.517
  0
LINE
  8
0
 10
20.702
 11
20.557
 20
-1.517
 21
-1.396
  0
LINE
  8
0
 10
20.557
 11
20.431
 20
-1.396
 21
-1.256
  0
LINE
  8
0
 10
20.431
 11
20.322
 20
-1.256
 21
-1.102
  0
LINE
  8
0
 10
20.322
 11
20.234
 20
-1.102
 21
-0.936
  0
LINE
  8
0
 10
20.234
 11
20.167
 20
-0.936
 21
-0.76
  0
LINE
  8
0
 10
20.167
 11
20.123
 20
-0.76
 21
-0.577
  0
LINE
  8
0
 10
20.123
 11
20.102
 20
-0.577
 21
-0.389
  0
LINE
  8
0
 10
20.102
 11
20.104
 20
149.611
 21
149.799
  0
LINE
  8
0
 10
20.104
 11
20.13
 20
149.799
 21
149.985
  0
LINE
  8
0
 10
20.13
 11
20.18
 20
149.985
 21
150.168
  0
LINE
  8
0
 10
20.18
 11
20.251
 20
150.168
 21
150.342
  0
LINE
  8
0
 10
20.251
 11
20.345
 20
150.342
 21
150.505
  0
LINE
  8
0
 10
20.345
 11
20.458
 20
150.505
 21
150.656
  0
LINE
  8
0
 10
20.458
 11
20.588
 20
150.656
 21
150.791
  0
LINE
  8
0
 10
20.588
 11
20.735
 20
150.791
 21
150.909
  0
LINE
  8
0
 10
20.735
 11
20.895
 20
150.909
 21
151.009
  0
LINE
  8
0
 10
20.895
 11
21.067
 20
151.009
 21
151.086
  0
LINE
  8
0
 10
21.067
 11
21.247
 20
151.086
 21
151.142
  0
LINE
  8
0
 10
21.247
 11
21.432
 20
151.142
 21
151.174
  0
LINE
  8
0
 10
21.432
 11
21.621
 20
151.174
 21
151.183
  0
LINE
  8
0
 10
21.621
 11
21.809
 20
151.183
 21
151.17
  0
LINE
  8
0
 10
21.809
 11
21.994
 20
151.17
 21
151.131
  0
LINE
  8
0
 10
21.994
 11
22.172
 20
151.131
 21
151.07
  0
LINE
  8
0
 10
22.172
 11
22.341
 20
151.07
 21
150.988
  0
LINE
  8
0
 10
22.341
 11
22.498
 20
150.988
 21
150.885
  0
LINE
  8
0
 10
22.498
 11
22.642
 20
150.885
 21
150.763
  0
LINE
  8
0
 10
22.642
 11
22.768
 20
150.763
 21
150.624
  0
LINE
  8
0
 10
22.768
 11
22.878
 20
150.624
 21
150.47
  0
LINE
  8
0
 10
22.878
 11
22.966
 20
150.47
 21
150.303
  0
LINE
  8
0
 10
22.966
 11
23.033
 20
150.303
 21
150.127
  0
LINE
  8
0
 10
23.033
 11
23.077
 20
150.127
 21
149.944
  0
LINE
  8
0
 10
23.077
 11
23.098
 20
149.944
 21
149.757
  0
LINE
  8
0
 10
23.098
 11
23.096
 20
149.757
 21
149.569
  0
LINE
  8
0
 10
23.096
 11
23.07
 20
149.569
 21
149.382
  0
LINE
  8
0
 10
23.07
 11
23.019
 20
149.382
 21
149.2
  0
LINE
  8
0
 10
23.019
 11
22.949
 20
149.2
 21
149.026
  0
LINE
  8
0
 10
22.949
 11
22.855
 20
149.026
 21
148.862
  0
LINE
  8
0
 10
22.855
 11
22.742
 20
148.862
 21
148.711
  0
LINE
  8
0
 10
22.742
 11
22.611
 20
148.711
 21
148.577
  0
LINE
  8
0
 10
22.611
 11
22.465
 20
148.577
 21
148.458
  0
LINE
  8
0
 10
22.465
 11
22.305
 20
148.458
 21
148.359
  0
LINE
  8
0
 10
22.305
 11
22.132
 20
148.359
 21
148.282
  0
LINE
  8
0
 10
22.132
 11
21.952
 20
148.282
 21
148.226
  0
LINE
  8
0
 10
21.952
 11
21.767
 20
148.226
 21
148.193
  0
LINE
  8
0
 10
21.767
 11
21.579
 20
148.193
 21
148.184
  0
LINE
  8
0
 10
21.579
 11
21.391
 20
148.184
 21
148.198
  0
LINE
  8
0
 10
21.391
 11
21.206
 20
148.198
 21
148.236
  0
LINE
  8
0
 10
21.206
 11
21.028
 20
148.236
 21
148.297
  0
LINE
  8
0
 10
21.028
 11
20.859
 20
148.297
 21
148.379
  0
LINE
  8
0
 10
20.859
 11
20.702
 20
148.379
 21
148.483
  0
LINE
  8
0
 10
20.702
 11
20.557
 20
148.483
 21
148.604
  0
LINE
  8
0
 10
20.557
 11
20.431
 20
148.604
 21
148.744
  0
LINE
  8
0
 10
20.431
 11
20.322
 20
148.744
 21
148.898
  0
LINE
  8
0
 10
20.322
 11
20.234
 20
148.898
 21
149.064
  0
LINE
  8
0
 10
20.234
 11
20.167
 20
149.064
 21
149.24
  0
LINE
  8
0
 10
20.167
 11
20.123
 20
149.24
 21
149.423
  0
LINE
  8
0
 10
20.123
 11
20.102
 20
149.423
 21
149.611
  0
LINE
  8
0
 10
105.711
 11
105.713
 20
102.148
 21
102.336
  0
LINE
  8
0
 10
105.713
 11
105.739
 20
102.336
 21
102.523
  0
LINE
  8
0
 10
105.739
 11
105.789
 20
102.523
 21
102.705
  0
LINE
  8
0
 10
105.789
 11
105.86
 20
102.705
 21
102.879
  0
LINE
  8
0
 10
105.86
 11
105.954
 20
102.879
 21
103.043
  0
LINE
  8
0
 10
105.954
 11
106.067
 20
103.043
 21
103.194
  0
LINE
  8
0
 10
106.067
 11
106.197
 20
103.194
 21
103.329
  0
LINE
  8
0
 10
106.197
 11
106.344
 20
103.329
 21
103.447
  0
LINE
  8
0
 10
106.344
 11
106.504
 20
103.447
 21
103.546
  0
LINE
  8
0
 10
106.504
 11
106.676
 20
103.546
 21
103.623
  0
LINE
  8
0
 10
106.676
 11
106.856
 20
103.623
 21
103.679
  0
LINE
  8
0
 10
106.856
 11
107.042
 20
103.679
 21
103.712
  0
LINE
  8
0
 10
107.042
 11
107.23
 20
103.712
 21
103.721
  0
LINE
  8
0
 10
107.23
 11
107.418
 20
103.721
 21
103.707
  0
LINE
  8
0
 10
107.418
 11
107.603
 20
103.707
 21
103.669
  0
LINE
  8
0
 10
107.603
 11
107.781
 20
103.669
 21
103.608
  0
LINE
  8
0
 10
107.781
 11
107.95
 20
103.608
 21
103.526
  0
LINE
  8
0
 10
107.95
 11
108.107
 20
103.526
 21
103.423
  0
LINE
  8
0
 10
108.107
 11
108.251
 20
103.423
 21
103.301
  0
LINE
  8
0
 10
108.251
 11
108.377
 20
103.301
 21
103.162
  0
LINE
  8
0
 10
108.377
 11
108.487
 20
103.162
 21
103.007
  0
LINE
  8
0
 10
108.487
 11
108.575
 20
103.007
 21
102.841
  0
LINE
  8
0
 10
108.575
 11
108.642
 20
102.841
 21
102.665
  0
LINE
  8
0
 10
108.642
 11
108.686
 20
102.665
 21
102.482
  0
LINE
  8
0
 10
108.686
 11
108.707
 20
102.482
 21
102.295
  0
LINE
  8
0
 10
108.707
 11
108.705
 20
102.295
 21
102.106
  0
LINE
  8
0
 10
108.705
 11
108.679
 20
102.106
 21
101.92
  0
LINE
  8
0
 10
108.679
 11
108.629
 20
101.92
 21
101.738
  0
LINE
  8
0
 10
108.629
 11
108.558
 20
101.738
 21
101.564
  0
LINE
  8
0
 10
108.558
 11
108.464
 20
101.564
 21
101.4
  0
LINE
  8
0
 10
108.464
 11
108.351
 20
101.4
 21
101.249
  0
LINE
  8
0
 10
108.351
 11
108.221
 20
101.249
 21
101.114
  0
LINE
  8
0
 10
108.221
 11
108.074
 20
101.114
 21
100.996
  0
LINE
  8
0
 10
108.074
 11
107.914
 20
100.996
 21
100.897
  0
LINE
  8
0
 10
107.914
 11
107.741
 20
100.897
 21
100.82
  0
LINE
  8
0
 10
107.741
 11
107.561
 20
100.82
 21
100.764
  0
LINE
  8
0
 10
107.561
 11
107.376
 20
100.764
 21
100.731
  0
LINE
  8
0
 10
107.376
 11
107.188
 20
100.731
 21
100.722
  0
LINE
  8
0
 10
107.188
 11
107
 20
100.722
 21
100.736
  0
LINE
  8
0
 10
107
 11
106.815
 20
100.736
 21
100.774
  0
LINE
  8
0
 10
106.815
 11
106.637
 20
100.774
 21
100.835
  0
LINE
  8
0
 10
106.637
 11
106.468
 20
100.835
 21
100.917
  0
LINE
  8
0
 10
106.468
 11
106.311
 20
100.917
 21
101.02
  0
LINE
  8
0
 10
106.311
 11
106.167
 20
101.02
 21
101.142
  0
LINE
  8
0
 10
106.167
 11
106.04
 20
101.142
 21
101.281
  0
LINE
  8
0
 10
106.04
 11
105.931
 20
101.281
 21
101.436
  0
LINE
  8
0
 10
105.931
 11
105.843
 20
101.436
 21
101.602
  0
LINE
  8
0
 10
105.843
 11
105.776
 20
101.602
 21
101.778
  0
LINE
  8
0
 10
105.776
 11
105.732
 20
101.778
 21
101.961
  0
LINE
  8
0
 10
105.732
 11
105.711
 20
101.961
 21
102.148
  0
LINE
  8
0
 10
105.711
 11
105.713
 20
252.148
 21
252.336
  0
LINE
  8
0
 10
105.713
 11
105.739
 20
252.336
 21
252.523
  0
LINE
  8
0
 10
105.739
 11
105.789
 20
252.523
 21
252.705
  0
LINE
  8
0
 10
105.789
 11
105.86
 20
252.705
 21
252.879
  0
LINE
  8
0
 10
105.86
 11
105.954
 20
252.879
 21
253.043
  0
LINE
  8
0
 10
105.954
 11
106.067
 20
253.043
 21
253.194
  0
LINE
  8
0
 10
106.067
 11
106.197
 20
253.194
 21
253.329
  0
LINE
  8
0
 10
106.197
 11
106.344
 20
253.329
 21
253.447
  0
LINE
  8
0
 10
106.344
 11
106.504
 20
253.447
 21
253.546
  0
LINE
  8
0
 10
106.504
 11
106.676
 20
253.546
 21
253.623
  0
LINE
  8
0
 10
106.676
 11
106.856
 20
253.623
 21
253.679
  0
LINE
  8
0
 10
106.856
 11
107.042
 20
253.679
 21
253.712
  0
LINE
  8
0
 10
107.042
 11
107.23
 20
253.712
 21
253.721
  0
LINE
  8
0
 10
107.23
 11
107.418
 20
253.721
 21
253.707
  0
LINE
  8
0
 10
107.418
 11
107.603
 20
253.707
 21
253.669
  0
LINE
  8
0
 10
107.603
 11
107.781
 20
253.669
 21
253.608
  0
LINE
  8
0
 10
107.781
 11
107.95
 20
253.608
 21
253.526
  0
LINE
  8
0
 10
107.95
 11
108.107
 20
253.526
 21
253.423
  0
LINE
  8
0
 10
108.107
 11
108.251
 20
253.423
 21
253.301
  0
LINE
  8
0
 10
108.251
 11
108.377
 20
253.301
 21
253.162
  0
LINE
  8
0
 10
108.377
 11
108.487
 20
253.162
 21
253.007
  0
LINE
  8
0
 10
108.487
 11
108.575
 20
253.007
 21
252.841
  0
LINE
  8
0
 10
108.575
 11
108.642
 20
252.841
 21
252.665
  0
LINE
  8
0
 10
108.642
 11
108.686
 20
252.665
 21
252.482
  0
LINE
  8
0
 10
108.686
 11
108.707
 20
252.482
 21
252.295
  0
LINE
  8
0
 10
108.707
 11
108.705
 20
252.295
 21
252.106
  0
LINE
  8
0
 10
108.705
 11
108.679
 20
252.106
 21
251.92
  0
LINE
  8
0
 10
108.679
 11
108.629
 20
251.92
 21
251.738
  0
LINE
  8
0
 10
108.629
 11
108.558
 20
251.738
 21
251.564
  0
LINE
  8
0
 10
108.558
 11
108.464
 20
251.564
 21
251.4
  0
LINE
  8
0
 10
108.464
 11
108.351
 20
251.4
 21
251.249
  0
LINE
  8
0
 10
108.351
 11
108.221
 20
251.249
 21
251.114
  0
LINE
  8
0
 10
108.221
 11
108.074
 20
251.114
 21
250.996
  0
LINE
  8
0
 10
108.074
 11
107.914
 20
250.996
 21
250.897
  0
LINE
  8
0
 10
107.914
 11
107.741
 20
250.897
 21
250.82
  0
LINE
  8
0
 10
107.741
 11
107.561
 20
250.82
 21
250.764
  0
LINE
  8
0
 10
107.561
 11
107.376
 20
250.764
 21
250.731
  0
LINE
  8
0
 10
107.376
 11
107.188
 20
250.731
 21
250.722
  0
LINE
  8
0
 10
107.188
 11
107
 20
250.722
 21
250.736
  0
LINE
  8
0
 10
107
 11
106.815
 20
250.736
 21
250.774
  0
LINE
  8
0
 10
106.815
 11
106.637
 20
250.774
 21
250.835
  0
LINE
  8
0
 10
106.637
 11
106.468
 20
250.835
 21
250.917
  0
LINE
  8
0
 10
106.468
 11
106.311
 20
250.917
 21
251.02
  0
LINE
  8
0
 10
106.311
 11
106.167
 20
251.02
 21
251.142
  0
LINE
  8
0
 10
106.167
 11
106.04
 20
251.142
 21
251.281
  0
LINE
  8
0
 10
106.04
 11
105.931
 20
251.281
 21
251.436
  0
LINE
  8
0
 10
105.931
 11
105.843
 20
251.436
 21
251.602
  0
LINE
  8
0
 10
105.843
 11
105.776
 20
251.602
 21
251.778
  0
LINE
  8
0
 10
105.776
 11
105.732
 20
251.778
 21
251.961
  0
LINE
  8
0
 10
105.732
 11
105.711
 20
251.961
 21
252.148
  0
LINE
  8
0
 10
120.144
 11
120.146
 20
20.297
 21
20.485
  0
LINE
  8
0
 10
120.146
 11
120.172
 20
20.485
 21
20.672
  0
LINE
  8
0
 10
120.172
 11
120.222
 20
20.672
 21
20.854
  0
LINE
  8
0
 10
120.222
 11
120.293
 20
20.854
 21
21.028
  0
LINE
  8
0
 10
120.293
 11
120.387
 20
21.028
 21
21.192
  0
LINE
  8
0
 10
120.387
 11
120.499
 20
21.192
 21
21.343
  0
LINE
  8
0
 10
120.499
 11
120.63
 20
21.343
 21
21.477
  0
LINE
  8
0
 10
120.63
 11
120.777
 20
21.477
 21
21.596
  0
LINE
  8
0
 10
120.777
 11
120.937
 20
21.596
 21
21.695
  0
LINE
  8
0
 10
120.937
 11
121.109
 20
21.695
 21
21.772
  0
LINE
  8
0
 10
121.109
 11
121.289
 20
21.772
 21
21.828
  0
LINE
  8
0
 10
121.289
 11
121.474
 20
21.828
 21
21.861
  0
LINE
  8
0
 10
121.474
 11
121.663
 20
21.861
 21
21.87
  0
LINE
  8
0
 10
121.663
 11
121.851
 20
21.87
 21
21.856
  0
LINE
  8
0
 10
121.851
 11
122.035
 20
21.856
 21
21.818
  0
LINE
  8
0
 10
122.035
 11
122.214
 20
21.818
 21
21.757
  0
LINE
  8
0
 10
122.214
 11
122.382
 20
21.757
 21
21.675
  0
LINE
  8
0
 10
122.382
 11
122.54
 20
21.675
 21
21.571
  0
LINE
  8
0
 10
122.54
 11
122.684
 20
21.571
 21
21.45
  0
LINE
  8
0
 10
122.684
 11
122.81
 20
21.45
 21
21.31
  0
LINE
  8
0
 10
122.81
 11
122.92
 20
21.31
 21
21.156
  0
LINE
  8
0
 10
122.92
 11
123.008
 20
21.156
 21
20.99
  0
LINE
  8
0
 10
123.008
 11
123.074
 20
20.99
 21
20.814
  0
LINE
  8
0
 10
123.074
 11
123.119
 20
20.814
 21
20.631
  0
LINE
  8
0
 10
123.119
 11
123.14
 20
20.631
 21
20.443
  0
LINE
  8
0
 10
123.14
 11
123.137
 20
20.443
 21
20.255
  0
LINE
  8
0
 10
123.137
 11
123.111
 20
20.255
 21
20.069
  0
LINE
  8
0
 10
123.111
 11
123.061
 20
20.069
 21
19.886
  0
LINE
  8
0
 10
123.061
 11
122.99
 20
19.886
 21
19.712
  0
LINE
  8
0
 10
122.99
 11
122.896
 20
19.712
 21
19.549
  0
LINE
  8
0
 10
122.896
 11
122.784
 20
19.549
 21
19.398
  0
LINE
  8
0
 10
122.784
 11
122.653
 20
19.398
 21
19.263
  0
LINE
  8
0
 10
122.653
 11
122.507
 20
19.263
 21
19.145
  0
LINE
  8
0
 10
122.507
 11
122.346
 20
19.145
 21
19.045
  0
LINE
  8
0
 10
122.346
 11
122.174
 20
19.045
 21
18.968
  0
LINE
  8
0
 10
122.174
 11
121.994
 20
18.968
 21
18.912
  0
LINE
  8
0
 10
121.994
 11
121.809
 20
18.912
 21
18.88
  0
LINE
  8
0
 10
121.809
 11
121.621
 20
18.88
 21
18.871
  0
LINE
  8
0
 10
121.621
 11
121.432
 20
18.871
 21
18.884
  0
LINE
  8
0
 10
121.432
 11
121.248
 20
18.884
 21
18.923
  0
LINE
  8
0
 10
121.248
 11
121.07
 20
18.923
 21
18.984
  0
LINE
  8
0
 10
121.07
 11
120.901
 20
18.984
 21
19.066
  0
LINE
  8
0
 10
120.901
 11
120.744
 20
19.066
 21
19.169
  0
LINE
  8
0
 10
120.744
 11
120.599
 20
19.169
 21
19.291
  0
LINE
  8
0
 10
120.599
 11
120.473
 20
19.291
 21
19.43
  0
LINE
  8
0
 10
120.473
 11
120.364
 20
19.43
 21
19.584
  0
LINE
  8
0
 10
120.364
 11
120.275
 20
19.584
 21
19.751
  0
LINE
  8
0
 10
120.275
 11
120.209
 20
19.751
 21
19.927
  0
LINE
  8
0
 10
120.209
 11
120.164
 20
19.927
 21
20.11
  0
LINE
  8
0
 10
120.164
 11
120.144
 20
20.11
 21
20.297
  0
LINE
  8
0
 10
120.144
 11
120.146
 20
170.297
 21
170.485
  0
LINE
  8
0
 10
120.146
 11
120.172
 20
170.485
 21
170.672
  0
LINE
  8
0
 10
120.172
 11
120.222
 20
170.672
 21
170.854
  0
LINE
  8
0
 10
120.222
 11
120.293
 20
170.854
 21
171.028
  0
LINE
  8
0
 10
120.293
 11
120.387
 20
171.028
 21
171.192
  0
LINE
  8
0
 10
120.387
 11
120.499
 20
171.192
 21
171.343
  0
LINE
  8
0
 10
120.499
 11
120.63
 20
171.343
 21
171.477
  0
LINE
  8
0
 10
120.63
 11
120.777
 20
171.477
 21
171.596
  0
LINE
  8
0
 10
120.777
 11
120.937
 20
171.596
 21
171.695
  0
LINE
  8
0
 10
120.937
 11
121.109
 20
171.695
 21
171.772
  0
LINE
  8
0
 10
121.109
 11
121.289
 20
171.772
 21
171.828
  0
LINE
  8
0
 10
121.289
 11
121.474
 20
171.828
 21
171.861
  0
LINE
  8
0
 10
121.474
 11
121.663
 20
171.861
 21
171.87
  0
LINE
  8
0
 10
121.663
 11
121.851
 20
171.87
 21
171.856
  0
LINE
  8
0
 10
121.851
 11
122.035
 20
171.856
 21
171.818
  0
LINE
  8
0
 10
122.035
 11
122.214
 20
171.818
 21
171.757
  0
LINE
  8
0
 10
122.214
 11
122.382
 20
171.757
 21
171.675
  0
LINE
  8
0
 10
122.382
 11
122.54
 20
171.675
 21
171.571
  0
LINE
  8
0
 10
122.54
 11
122.684
 20
171.571
 21
171.45
  0
LINE
  8
0
 10
122.684
 11
122.81
 20
171.45
 21
171.31
  0
LINE
  8
0
 10
122.81
 11
122.92
 20
171.31
 21
171.156
  0
LINE
  8
0
 10
122.92
 11
123.008
 20
171.156
 21
170.99
  0
LINE
  8
0
 10
123.008
 11
123.074
 20
170.99
 21
170.814
  0
LINE
  8
0
 10
123.074
 11
123.119
 20
170.814
 21
170.631
  0
LINE
  8
0
 10
123.119
 11
123.14
 20
170.631
 21
170.443
  0
LINE
  8
0
 10
123.14
 11
123.137
 20
170.443
 21
170.255
  0
LINE
  8
0
 10
123.137
 11
123.111
 20
170.255
 21
170.069
  0
LINE
  8
0
 10
123.111
 11
123.061
 20
170.069
 21
169.886
  0
LINE
  8
0
 10
123.061
 11
122.99
 20
169.886
 21
169.712
  0
LINE
  8
0
 10
122.99
 11
122.896
 20
169.712
 21
169.549
  0
LINE
  8
0
 10
122.896
 11
122.784
 20
169.549
 21
169.398
  0
LINE
  8
0
 10
122.784
 11
122.653
 20
169.398
 21
169.263
  0
LINE
  8
0
 10
122.653
 11
122.507
 20
169.263
 21
169.145
  0
LINE
  8
0
 10
122.507
 11
122.346
 20
169.145
 21
169.045
  0
LINE
  8
0
 10
122.346
 11
122.174
 20
169.045
 21
168.968
  0
LINE
  8
0
 10
122.174
 11
121.994
 20
168.968
 21
168.912
  0
LINE
  8
0
 10
121.994
 11
121.809
 20
168.912
 21
168.88
  0
LINE
  8
0
 10
121.809
 11
121.621
 20
168.88
 21
168.871
  0
LINE
  8
0
 10
121.621
 11
121.432
 20
168.871
 21
168.884
  0
LINE
  8
0
 10
121.432
 11
121.248
 20
168.884
 21
168.923
  0
LINE
  8
0
 10
121.248
 11
121.07
 20
168.923
 21
168.984
  0
LINE
  8
0
 10
121.07
 11
120.901
 20
168.984
 21
169.066
  0
LINE
  8
0
 10
120.901
 11
120.744
 20
169.066
 21
169.169
  0
LINE
  8
0
 10
120.744
 11
120.599
 20
169.169
 21
169.291
  0
LINE
  8
0
 10
120.599
 11
120.473
 20
169.291
 21
169.43
  0
LINE
  8
0
 10
120.473
 11
120.364
 20
169.43
 21
169.584
  0
LINE
  8
0
 10
120.364
 11
120.275
 20
169.584
 21
169.751
  0
LINE
  8
0
 10
120.275
 11
120.209
 20
169.751
 21
169.927
  0
LINE
  8
0
 10
120.209
 11
120.164
 20
169.927
 21
170.11
  0
LINE
  8
0
 10
120.164
 11
120.144
 20
170.11
 21
170.297
  0
LINE
  8
0
 10
172.365
 11
172.45
 20
20.663
 21
21.412
  0
LINE
  8
0
 10
172.45
 11
186.882
 20
21.412
 21
103.263
  0
LINE
  8
0
 10
186.882
 11
187.059
 20
103.263
 21
103.996
  0
LINE
  8
0
 10
187.059
 11
187.327
 20
103.996
 21
104.7
  0
LINE
  8
0
 10
187.327
 11
187.68
 20
104.7
 21
105.366
  0
LINE
  8
0
 10
187.68
 11
188.115
 20
105.366
 21
105.982
  0
LINE
  8
0
 10
188.115
 11
188.623
 20
105.982
 21
106.538
  0
LINE
  8
0
 10
188.623
 11
189.197
 20
106.538
 21
107.026
  0
LINE
  8
0
 10
189.197
 11
189.827
 20
107.026
 21
107.438
  0
LINE
  8
0
 10
189.827
 11
190.505
 20
107.438
 21
107.769
  0
LINE
  8
0
 10
190.505
 11
191.218
 20
107.769
 21
108.012
  0
LINE
  8
0
 10
191.218
 11
191.956
 20
108.012
 21
108.163
  0
LINE
  8
0
 10
191.956
 11
192.708
 20
108.163
 21
108.221
  0
LINE
  8
0
 10
192.708
 11
407.292
 20
108.221
 21
108.221
  0
LINE
  8
0
 10
407.292
 11
408.044
 20
108.221
 21
108.163
  0
LINE
  8
0
 10
408.044
 11
408.782
 20
108.163
 21
108.012
  0
LINE
  8
0
 10
408.782
 11
409.495
 20
108.012
 21
107.769
  0
LINE
  8
0
 10
409.495
 11
410.173
 20
107.769
 21
107.438
  0
LINE
  8
0
 10
410.173
 11
410.803
 20
107.438
 21
107.026
  0
LINE
  8
0
 10
410.803
 11
411.377
 20
107.026
 21
106.538
  0
LINE
  8
0
 10
411.377
 11
411.885
 20
106.538
 21
105.982
  0
LINE
  8
0
 10
411.885
 11
412.32
 20
105.982
 21
105.366
  0
LINE
  8
0
 10
412.32
 11
412.673
 20
105.366
 21
104.7
  0
LINE
  8
0
 10
412.673
 11
412.941
 20
104.7
 21
103.996
  0
LINE
  8
0
 10
412.941
 11
413.118
 20
103.996
 21
103.263
  0
LINE
  8
0
 10
413.118
 11
427.55
 20
103.263
 21
21.412
  0
LINE
  8
0
 10
427.55
 11
427.635
 20
21.412
 21
20.663
  0
LINE
  8
0
 10
427.635
 11
427.623
 20
20.663
 21
19.91
  0
LINE
  8
0
 10
427.623
 11
427.519
 20
19.91
 21
19.164
  0
LINE
  8
0
 10
427.519
 11
427.322
 20
19.164
 21
18.436
  0
LINE
  8
0
 10
427.322
 11
427.034
 20
18.436
 21
17.74
  0
LINE
  8
0
 10
427.034
 11
426.662
 20
17.74
 21
17.085
  0
LINE
  8
0
 10
426.662
 11
426.211
 20
17.085
 21
16.482
  0
LINE
  8
0
 10
426.211
 11
425.687
 20
16.482
 21
15.939
  0
LINE
  8
0
 10
425.687
 11
425.1
 20
15.939
 21
15.467
  0
LINE
  8
0
 10
425.1
 11
424.458
 20
15.467
 21
15.073
  0
LINE
  8
0
 10
424.458
 11
423.772
 20
15.073
 21
14.761
  0
LINE
  8
0
 10
423.772
 11
423.053
 20
14.761
 21
14.539
  0
LINE
  8
0
 10
423.053
 11
323.011
 20
14.539
 21
-6.148
  0
LINE
  8
0
 10
323.011
 11
322.268
 20
-6.148
 21
-6.279
  0
LINE
  8
0
 10
322.268
 11
321.516
 20
-6.279
 21
-6.316
  0
LINE
  8
0
 10
321.516
 11
278.484
 20
-6.316
 21
-6.316
  0
LINE
  8
0
 10
278.484
 11
277.732
 20
-6.316
 21
-6.279
  0
LINE
  8
0
 10
277.732
 11
276.989
 20
-6.279
 21
-6.148
  0
LINE
  8
0
 10
276.989
 11
176.947
 20
-6.148
 21
14.539
  0
LINE
  8
0
 10
176.947
 11
176.228
 20
14.539
 21
14.761
  0
LINE
  8
0
 10
176.228
 11
175.542
 20
14.761
 21
15.073
  0
LINE
  8
0
 10
175.542
 11
174.9
 20
15.073
 21
15.467
  0
LINE
  8
0
 10
174.9
 11
174.313
 20
15.467
 21
15.939
  0
LINE
  8
0
 10
174.313
 11
173.789
 20
15.939
 21
16.482
  0
LINE
  8
0
 10
173.789
 11
173.338
 20
16.482
 21
17.085
  0
LINE
  8
0
 10
173.338
 11
172.966
 20
17.085
 21
17.74
  0
LINE
  8
0
 10
172.966
 11
172.678
 20
17.74
 21
18.436
  0
LINE
  8
0
 10
172.678
 11
172.481
 20
18.436
 21
19.164
  0
LINE
  8
0
 10
172.481
 11
172.377
 20
19.164
 21
19.91
  0
LINE
  8
0
 10
172.377
 11
172.365
 20
19.91
 21
20.663
  0
LINE
  8
0
 10
172.365
 11
172.45
 20
170.663
 21
171.412
  0
LINE
  8
0
 10
172.45
 11
186.882
 20
171.412
 21
253.263
  0
LINE
  8
0
 10
186.882
 11
187.059
 20
253.263
 21
253.996
  0
LINE
  8
0
 10
187.059
 11
187.327
 20
253.996
 21
254.7
  0
LINE
  8
0
 10
187.327
 11
187.68
 20
254.7
 21
255.366
  0
LINE
  8
0
 10
187.68
 11
188.115
 20
255.366
 21
255.982
  0
LINE
  8
0
 10
188.115
 11
188.623
 20
255.982
 21
256.538
  0
LINE
  8
0
 10
188.623
 11
189.197
 20
256.538
 21
257.026
  0
LINE
  8
0
 10
189.197
 11
189.827
 20
257.026
 21
257.438
  0
LINE
  8
0
 10
189.827
 11
190.505
 20
257.438
 21
257.769
  0
LINE
  8
0
 10
190.505
 11
191.218
 20
257.769
 21
258.012
  0
LINE
  8
0
 10
191.218
 11
191.956
 20
258.012
 21
258.163
  0
LINE
  8
0
 10
191.956
 11
192.708
 20
258.163
 21
258.221
  0
LINE
  8
0
 10
192.708
 11
298
 20
258.221
 21
258.221
  0
LINE
  8
0
 10
298
 11
298
 20
258.221
 21
248.222
  0
LINE
  8
0
 10
298
 11
293.222
 20
248.222
 21
248.222
  0
LINE
  8
0
 10
293.222
 11
292.932
 20
248.222
 21
247.905
  0
LINE
  8
0
 10
292.932
 11
292.358
 20
247.905
 21
247.417
  0
LINE
  8
0
 10
292.358
 11
291.728
 20
247.417
 21
247.005
  0
LINE
  8
0
 10
291.728
 11
291.05
 20
247.005
 21
246.674
  0
LINE
  8
0
 10
291.05
 11
290.337
 20
246.674
 21
246.431
  0
LINE
  8
0
 10
290.337
 11
289.599
 20
246.431
 21
246.28
  0
LINE
  8
0
 10
289.599
 11
288.847
 20
246.28
 21
246.222
  0
LINE
  8
0
 10
288.847
 11
288.095
 20
246.222
 21
246.259
  0
LINE
  8
0
 10
288.095
 11
287.353
 20
246.259
 21
246.39
  0
LINE
  8
0
 10
287.353
 11
286.634
 20
246.39
 21
246.612
  0
LINE
  8
0
 10
286.634
 11
285.947
 20
246.612
 21
246.924
  0
LINE
  8
0
 10
285.947
 11
285.305
 20
246.924
 21
247.319
  0
LINE
  8
0
 10
285.305
 11
284.718
 20
247.319
 21
247.791
  0
LINE
  8
0
 10
284.718
 11
284.301
 20
247.791
 21
248.222
  0
LINE
  8
0
 10
284.301
 11
235.299
 20
248.222
 21
248.222
  0
LINE
  8
0
 10
235.299
 11
196.487
 20
248.222
 21
246.942
  0
LINE
  8
0
 10
196.487
 11
193.535
 20
246.942
 21
230.201
  0
LINE
  8
0
 10
193.535
 11
183.638
 20
230.201
 21
174.067
  0
LINE
  8
0
 10
183.638
 11
257.962
 20
174.067
 21
157.915
  0
LINE
  8
0
 10
257.962
 11
274.704
 20
157.915
 21
154.963
  0
LINE
  8
0
 10
274.704
 11
275.563
 20
154.963
 21
154.963
  0
LINE
  8
0
 10
275.563
 11
276.114
 20
154.963
 21
155.231
  0
LINE
  8
0
 10
276.114
 11
276.827
 20
155.231
 21
155.474
  0
LINE
  8
0
 10
276.827
 11
277.565
 20
155.474
 21
155.625
  0
LINE
  8
0
 10
277.565
 11
278.317
 20
155.625
 21
155.683
  0
LINE
  8
0
 10
278.317
 11
279.069
 20
155.683
 21
155.646
  0
LINE
  8
0
 10
279.069
 11
279.811
 20
155.646
 21
155.515
  0
LINE
  8
0
 10
279.811
 11
280.531
 20
155.515
 21
155.293
  0
LINE
  8
0
 10
280.531
 11
281.217
 20
155.293
 21
154.981
  0
LINE
  8
0
 10
281.217
 11
281.246
 20
154.981
 21
154.963
  0
LINE
  8
0
 10
281.246
 11
318.754
 20
154.963
 21
154.963
  0
LINE
  8
0
 10
318.754
 11
318.783
 20
154.963
 21
154.981
  0
LINE
  8
0
 10
318.783
 11
319.469
 20
154.981
 21
155.293
  0
LINE
  8
0
 10
319.469
 11
320.189
 20
155.293
 21
155.515
  0
LINE
  8
0
 10
320.189
 11
320.931
 20
155.515
 21
155.646
  0
LINE
  8
0
 10
320.931
 11
321.683
 20
155.646
 21
155.683
  0
LINE
  8
0
 10
321.683
 11
322.435
 20
155.683
 21
155.625
  0
LINE
  8
0
 10
322.435
 11
323.173
 20
155.625
 21
155.474
  0
LINE
  8
0
 10
323.173
 11
323.886
 20
155.474
 21
155.231
  0
LINE
  8
0
 10
323.886
 11
324.437
 20
155.231
 21
154.963
  0
LINE
  8
0
 10
324.437
 11
325.296
 20
154.963
 21
154.963
  0
LINE
  8
0
 10
325.296
 11
342.038
 20
154.963
 21
157.915
  0
LINE
  8
0
 10
342.038
 11
416.362
 20
157.915
 21
174.067
  0
LINE
  8
0
 10
416.362
 11
406.465
 20
174.067
 21
230.201
  0
LINE
  8
0
 10
406.465
 11
403.513
 20
230.201
 21
246.942
  0
LINE
  8
0
 10
403.513
 11
364.701
 20
246.942
 21
248.222
  0
LINE
  8
0
 10
364.701
 11
315.699
 20
248.222
 21
248.222
  0
LINE
  8
0
 10
315.699
 11
315.282
 20
248.222
 21
247.791
  0
LINE
  8
0
 10
315.282
 11
314.695
 20
247.791
 21
247.319
  0
LINE
  8
0
 10
314.695
 11
314.053
 20
247.319
 21
246.924
  0
LINE
  8
0
 10
314.053
 11
313.366
 20
246.924
 21
246.612
  0
LINE
  8
0
 10
313.366
 11
312.647
 20
246.612
 21
246.39
  0
LINE
  8
0
 10
312.647
 11
311.905
 20
246.39
 21
246.259
  0
LINE
  8
0
 10
311.905
 11
311.153
 20
246.259
 21
246.222
  0
LINE
  8
0
 10
311.153
 11
310.401
 20
246.222
 21
246.28
  0
LINE
  8
0
 10
310.401
 11
309.663
 20
246.28
 21
246.431
  0
LINE
  8
0
 10
309.663
 11
308.95
 20
246.431
 21
246.674
  0
LINE
  8
0
 10
308.95
 11
308.272
 20
246.674
 21
247.005
  0
LINE
  8
0
 10
308.272
 11
307.642
 20
247.005
 21
247.417
  0
LINE
  8
0
 10
307.642
 11
307.068
 20
247.417
 21
247.905
  0
LINE
  8
0
 10
307.068
 11
306.778
 20
247.905
 21
248.222
  0
LINE
  8
0
 10
306.778
 11
302
 20
248.222
 21
248.222
  0
LINE
  8
0
 10
302
 11
302
 20
248.222
 21
258.221
  0
LINE
  8
0
 10
302
 11
407.292
 20
258.221
 21
258.221
  0
LINE
  8
0
 10
407.292
 11
408.044
 20
258.221
 21
258.163
  0
LINE
  8
0
 10
408.044
 11
408.782
 20
258.163
 21
258.012
  0
LINE
  8
0
 10
408.782
 11
409.495
 20
258.012
 21
257.769
  0
LINE
  8
0
 10
409.495
 11
410.173
 20
257.769
 21
257.438
  0
LINE
  8
0
 10
410.173
 11
410.803
 20
257.438
 21
257.026
  0
LINE
  8
0
 10
410.803
 11
411.377
 20
257.026
 21
256.538
  0
LINE
  8
0
 10
411.377
 11
411.885
 20
256.538
 21
255.982
  0
LINE
  8
0
 10
411.885
 11
412.32
 20
255.982
 21
255.366
  0
LINE
  8
0
 10
412.32
 11
412.673
 20
255.366
 21
254.7
  0
LINE
  8
0
 10
412.673
 11
412.941
 20
254.7
 21
253.996
  0
LINE
  8
0
 10
412.941
 11
413.118
 20
253.996
 21
253.263
  0
LINE
  8
0
 10
413.118
 11
427.55
 20
253.263
 21
171.412
  0
LINE
  8
0
 10
427.55
 11
427.635
 20
171.412
 21
170.663
  0
LINE
  8
0
 10
427.635
 11
427.623
 20
170.663
 21
169.91
  0
LINE
  8
0
 10
427.623
 11
427.519
 20
169.91
 21
169.164
  0
LINE
  8
0
 10
427.519
 11
427.322
 20
169.164
 21
168.436
  0
LINE
  8
0
 10
427.322
 11
427.034
 20
168.436
 21
167.74
  0
LINE
  8
0
 10
427.034
 11
426.662
 20
167.74
 21
167.085
  0
LINE
  8
0
 10
426.662
 11
426.211
 20
167.085
 21
166.482
  0
LINE
  8
0
 10
426.211
 11
425.687
 20
166.482
 21
165.939
  0
LINE
  8
0
 10
425.687
 11
425.1
 20
165.939
 21
165.467
  0
LINE
  8
0
 10
425.1
 11
424.458
 20
165.467
 21
165.073
  0
LINE
  8
0
 10
424.458
 11
423.772
 20
165.073
 21
164.761
  0
LINE
  8
0
 10
423.772
 11
423.053
 20
164.761
 21
164.539
  0
LINE
  8
0
 10
423.053
 11
323.011
 20
164.539
 21
143.852
  0
LINE
  8
0
 10
323.011
 11
322.268
 20
143.852
 21
143.721
  0
LINE
  8
0
 10
322.268
 11
321.516
 20
143.721
 21
143.684
  0
LINE
  8
0
 10
321.516
 11
278.484
 20
143.684
 21
143.684
  0
LINE
  8
0
 10
278.484
 11
277.732
 20
143.684
 21
143.721
  0
LINE
  8
0
 10
277.732
 11
276.989
 20
143.721
 21
143.852
  0
LINE
  8
0
 10
276.989
 11
176.947
 20
143.852
 21
164.539
  0
LINE
  8
0
 10
176.947
 11
176.228
 20
164.539
 21
164.761
  0
LINE
  8
0
 10
176.228
 11
175.542
 20
164.761
 21
165.073
  0
LINE
  8
0
 10
175.542
 11
174.9
 20
165.073
 21
165.467
  0
LINE
  8
0
 10
174.9
 11
174.313
 20
165.467
 21
165.939
  0
LINE
  8
0
 10
174.313
 11
173.789
 20
165.939
 21
166.482
  0
LINE
  8
0
 10
173.789
 11
173.338
 20
166.482
 21
167.085
  0
LINE
  8
0
 10
173.338
 11
172.966
 20
167.085
 21
167.74
  0
LINE
  8
0
 10
172.966
 11
172.678
 20
167.74
 21
168.436
  0
LINE
  8
0
 10
172.678
 11
172.481
 20
168.436
 21
169.164
  0
LINE
  8
0
 10
172.481
 11
172.377
 20
169.164
 21
169.91
  0
LINE
  8
0
 10
172.377
 11
172.365
 20
169.91
 21
170.663
  0
LINE
  8
0
 10
176.86
 11
176.881
 20
20.443
 21
20.631
  0
LINE
  8
0
 10
176.881
 11
176.926
 20
20.631
 21
20.814
  0
LINE
  8
0
 10
176.926
 11
176.992
 20
20.814
 21
20.99
  0
LINE
  8
0
 10
176.992
 11
177.08
 20
20.99
 21
21.156
  0
LINE
  8
0
 10
177.08
 11
177.19
 20
21.156
 21
21.31
  0
LINE
  8
0
 10
177.19
 11
177.316
 20
21.31
 21
21.45
  0
LINE
  8
0
 10
177.316
 11
177.46
 20
21.45
 21
21.571
  0
LINE
  8
0
 10
177.46
 11
177.618
 20
21.571
 21
21.675
  0
LINE
  8
0
 10
177.618
 11
177.786
 20
21.675
 21
21.757
  0
LINE
  8
0
 10
177.786
 11
177.965
 20
21.757
 21
21.818
  0
LINE
  8
0
 10
177.965
 11
178.149
 20
21.818
 21
21.856
  0
LINE
  8
0
 10
178.149
 11
178.337
 20
21.856
 21
21.87
  0
LINE
  8
0
 10
178.337
 11
178.526
 20
21.87
 21
21.861
  0
LINE
  8
0
 10
178.526
 11
178.711
 20
21.861
 21
21.828
  0
LINE
  8
0
 10
178.711
 11
178.891
 20
21.828
 21
21.772
  0
LINE
  8
0
 10
178.891
 11
179.063
 20
21.772
 21
21.695
  0
LINE
  8
0
 10
179.063
 11
179.223
 20
21.695
 21
21.596
  0
LINE
  8
0
 10
179.223
 11
179.37
 20
21.596
 21
21.477
  0
LINE
  8
0
 10
179.37
 11
179.501
 20
21.477
 21
21.343
  0
LINE
  8
0
 10
179.501
 11
179.613
 20
21.343
 21
21.192
  0
LINE
  8
0
 10
179.613
 11
179.707
 20
21.192
 21
21.028
  0
LINE
  8
0
 10
179.707
 11
179.778
 20
21.028
 21
20.854
  0
LINE
  8
0
 10
179.778
 11
179.828
 20
20.854
 21
20.672
  0
LINE
  8
0
 10
179.828
 11
179.854
 20
20.672
 21
20.485
  0
LINE
  8
0
 10
179.854
 11
179.856
 20
20.485
 21
20.297
  0
LINE
  8
0
 10
179.856
 11
179.836
 20
20.297
 21
20.11
  0
LINE
  8
0
 10
179.836
 11
179.791
 20
20.11
 21
19.927
  0
LINE
  8
0
 10
179.791
 11
179.725
 20
19.927
 21
19.751
  0
LINE
  8
0
 10
179.725
 11
179.636
 20
19.751
 21
19.584
  0
LINE
  8
0
 10
179.636
 11
179.527
 20
19.584
 21
19.43
  0
LINE
  8
0
 10
179.527
 11
179.401
 20
19.43
 21
19.291
  0
LINE
  8
0
 10
179.401
 11
179.256
 20
19.291
 21
19.169
  0
LINE
  8
0
 10
179.256
 11
179.099
 20
19.169
 21
19.066
  0
LINE
  8
0
 10
179.099
 11
178.93
 20
19.066
 21
18.984
  0
LINE
  8
0
 10
178.93
 11
178.752
 20
18.984
 21
18.923
  0
LINE
  8
0
 10
178.752
 11
178.568
 20
18.923
 21
18.884
  0
LINE
  8
0
 10
178.568
 11
178.379
 20
18.884
 21
18.871
  0
LINE
  8
0
 10
178.379
 11
178.191
 20
18.871
 21
18.88
  0
LINE
  8
0
 10
178.191
 11
178.006
 20
18.88
 21
18.912
  0
LINE
  8
0
 10
178.006
 11
177.826
 20
18.912
 21
18.968
  0
LINE
  8
0
 10
177.826
 11
177.654
 20
18.968
 21
19.045
  0
LINE
  8
0
 10
177.654
 11
177.493
 20
19.045
 21
19.145
  0
LINE
  8
0
 10
177.493
 11
177.347
 20
19.145
 21
19.263
  0
LINE
  8
0
 10
177.347
 11
177.216
 20
19.263
 21
19.398
  0
LINE
  8
0
 10
177.216
 11
177.104
 20
19.398
 21
19.549
  0
LINE
  8
0
 10
177.104
 11
177.01
 20
19.549
 21
19.712
  0
LINE
  8
0
 10
177.01
 11
176.939
 20
19.712
 21
19.886
  0
LINE
  8
0
 10
176.939
 11
176.889
 20
19.886
 21
20.069
  0
LINE
  8
0
 10
176.889
 11
176.863
 20
20.069
 21
20.255
  0
LINE
  8
0
 10
176.863
 11
176.86
 20
20.255
 21
20.443
  0
LINE
  8
0
 10
176.86
 11
176.881
 20
170.443
 21
170.631
  0
LINE
  8
0
 10
176.881
 11
176.926
 20
170.631
 21
170.814
  0
LINE
  8
0
 10
176.926
 11
176.992
 20
170.814
 21
170.99
  0
LINE
  8
0
 10
176.992
 11
177.08
 20
170.99
 21
171.156
  0
LINE
  8
0
 10
177.08
 11
177.19
 20
171.156
 21
171.31
  0
LINE
  8
0
 10
177.19
 11
177.316
 20
171.31
 21
171.45
  0
LINE
  8
0
 10
177.316
 11
177.46
 20
171.45
 21
171.571
  0
LINE
  8
0
 10
177.46
 11
177.618
 20
171.571
 21
171.675
  0
LINE
  8
0
 10
177.618
 11
177.786
 20
171.675
 21
171.757
  0
LINE
  8
0
 10
177.786
 11
177.965
 20
171.757
 21
171.818
  0
LINE
  8
0
 10
177.965
 11
178.149
 20
171.818
 21
171.856
  0
LINE
  8
0
 10
178.149
 11
178.337
 20
171.856
 21
171.87
  0
LINE
  8
0
 10
178.337
 11
178.526
 20
171.87
 21
171.861
  0
LINE
  8
0
 10
178.526
 11
178.711
 20
171.861
 21
171.828
  0
LINE
  8
0
 10
178.711
 11
178.891
 20
171.828
 21
171.772
  0
LINE
  8
0
 10
178.891
 11
179.063
 20
171.772
 21
171.695
  0
LINE
  8
0
 10
179.063
 11
179.223
 20
171.695
 21
171.596
  0
LINE
  8
0
 10
179.223
 11
179.37
 20
171.596
 21
171.477
  0
LINE
  8
0
 10
179.37
 11
179.501
 20
171.477
 21
171.343
  0
LINE
  8
0
 10
179.501
 11
179.613
 20
171.343
 21
171.192
  0
LINE
  8
0
 10
179.613
 11
179.707
 20
171.192
 21
171.028
  0
LINE
  8
0
 10
179.707
 11
179.778
 20
171.028
 21
170.854
  0
LINE
  8
0
 10
179.778
 11
179.828
 20
170.854
 21
170.672
  0
LINE
  8
0
 10
179.828
 11
179.854
 20
170.672
 21
170.485
  0
LINE
  8
0
 10
179.854
 11
179.856
 20
170.485
 21
170.297
  0
LINE
  8
0
 10
179.856
 11
179.836
 20
170.297
 21
170.11
  0
LINE
  8
0
 10
179.836
 11
179.791
 20
170.11
 21
169.927
  0
LINE
  8
0
 10
179.791
 11
179.725
 20
169.927
 21
169.751
  0
LINE
  8
0
 10
179.725
 11
179.636
 20
169.751
 21
169.584
  0
LINE
  8
0
 10
179.636
 11
179.527
 20
169.584
 21
169.43
  0
LINE
  8
0
 10
179.527
 11
179.401
 20
169.43
 21
169.291
  0
LINE
  8
0
 10
179.401
 11
179.256
 20
169.291
 21
169.169
  0
LINE
  8
0
 10
179.256
 11
179.099
 20
169.169
 21
169.066
  0
LINE
  8
0
 10
179.099
 11
178.93
 20
169.066
 21
168.984
  0
LINE
  8
0
 10
178.93
 11
178.752
 20
168.984
 21
168.923
  0
LINE
  8
0
 10
178.752
 11
178.568
 20
168.923
 21
168.884
  0
LINE
  8
0
 10
178.568
 11
178.379
 20
168.884
 21
168.871
  0
LINE
  8
0
 10
178.379
 11
178.191
 20
168.871
 21
168.88
  0
LINE
  8
0
 10
178.191
 11
178.006
 20
168.88
 21
168.912
  0
LINE
  8
0
 10
178.006
 11
177.826
 20
168.912
 21
168.968
  0
LINE
  8
0
 10
177.826
 11
177.654
 20
168.968
 21
169.045
  0
LINE
  8
0
 10
177.654
 11
177.493
 20
169.045
 21
169.145
  0
LINE
  8
0
 10
177.493
 11
177.347
 20
169.145
 21
169.263
  0
LINE
  8
0
 10
177.347
 11
177.216
 20
169.263
 21
169.398
  0
LINE
  8
0
 10
177.216
 11
177.104
 20
169.398
 21
169.549
  0
LINE
  8
0
 10
177.104
 11
177.01
 20
169.549
 21
169.712
  0
LINE
  8
0
 10
177.01
 11
176.939
 20
169.712
 21
169.886
  0
LINE
  8
0
 10
176.939
 11
176.889
 20
169.886
 21
170.069
  0
LINE
  8
0
 10
176.889
 11
176.863
 20
170.069
 21
170.255
  0
LINE
  8
0
 10
176.863
 11
176.86
 20
170.255
 21
170.443
  0
LINE
  8
0
 10
184.762
 11
185.37
 20
26.402
 21
29.85
  0
LINE
  8
0
 10
185.37
 11
186.171
 20
29.85
 21
29.708
  0
LINE
  8
0
 10
186.171
 11
187.04
 20
29.708
 21
34.64
  0
LINE
  8
0
 10
187.04
 11
186.24
 20
34.64
 21
34.782
  0
LINE
  8
0
 10
186.24
 11
186.848
 20
34.782
 21
38.229
  0
LINE
  8
0
 10
186.848
 11
187.648
 20
38.229
 21
38.088
  0
LINE
  8
0
 10
187.648
 11
187.818
 20
38.088
 21
39.053
  0
LINE
  8
0
 10
187.818
 11
201.576
 20
39.053
 21
36.627
  0
LINE
  8
0
 10
201.576
 11
201.406
 20
36.627
 21
35.662
  0
LINE
  8
0
 10
201.406
 11
202.207
 20
35.662
 21
35.521
  0
LINE
  8
0
 10
202.207
 11
201.599
 20
35.521
 21
32.073
  0
LINE
  8
0
 10
201.599
 11
200.798
 20
32.073
 21
32.215
  0
LINE
  8
0
 10
200.798
 11
199.928
 20
32.215
 21
27.283
  0
LINE
  8
0
 10
199.928
 11
200.729
 20
27.283
 21
27.141
  0
LINE
  8
0
 10
200.729
 11
200.121
 20
27.141
 21
23.694
  0
LINE
  8
0
 10
200.121
 11
199.321
 20
23.694
 21
23.835
  0
LINE
  8
0
 10
199.321
 11
199.15
 20
23.835
 21
22.87
  0
LINE
  8
0
 10
199.15
 11
185.393
 20
22.87
 21
25.296
  0
LINE
  8
0
 10
185.393
 11
185.563
 20
25.296
 21
26.261
  0
LINE
  8
0
 10
185.563
 11
184.762
 20
26.261
 21
26.402
  0
LINE
  8
0
 10
188.061
 11
188.669
 20
45.113
 21
48.561
  0
LINE
  8
0
 10
188.669
 11
189.47
 20
48.561
 21
48.42
  0
LINE
  8
0
 10
189.47
 11
190.34
 20
48.42
 21
53.352
  0
LINE
  8
0
 10
190.34
 11
189.539
 20
53.352
 21
53.493
  0
LINE
  8
0
 10
189.539
 11
190.147
 20
53.493
 21
56.941
  0
LINE
  8
0
 10
190.147
 11
190.948
 20
56.941
 21
56.8
  0
LINE
  8
0
 10
190.948
 11
191.118
 20
56.8
 21
57.765
  0
LINE
  8
0
 10
191.118
 11
204.876
 20
57.765
 21
55.339
  0
LINE
  8
0
 10
204.876
 11
204.705
 20
55.339
 21
54.374
  0
LINE
  8
0
 10
204.705
 11
205.506
 20
54.374
 21
54.232
  0
LINE
  8
0
 10
205.506
 11
204.898
 20
54.232
 21
50.785
  0
LINE
  8
0
 10
204.898
 11
204.097
 20
50.785
 21
50.926
  0
LINE
  8
0
 10
204.097
 11
203.228
 20
50.926
 21
45.994
  0
LINE
  8
0
 10
203.228
 11
204.028
 20
45.994
 21
45.853
  0
LINE
  8
0
 10
204.028
 11
203.42
 20
45.853
 21
42.405
  0
LINE
  8
0
 10
203.42
 11
202.62
 20
42.405
 21
42.546
  0
LINE
  8
0
 10
202.62
 11
202.45
 20
42.546
 21
41.581
  0
LINE
  8
0
 10
202.45
 11
188.692
 20
41.581
 21
44.007
  0
LINE
  8
0
 10
188.692
 11
188.862
 20
44.007
 21
44.972
  0
LINE
  8
0
 10
188.862
 11
188.061
 20
44.972
 21
45.113
  0
LINE
  8
0
 10
191.293
 11
191.314
 20
102.295
 21
102.482
  0
LINE
  8
0
 10
191.314
 11
191.358
 20
102.482
 21
102.665
  0
LINE
  8
0
 10
191.358
 11
191.425
 20
102.665
 21
102.841
  0
LINE
  8
0
 10
191.425
 11
191.513
 20
102.841
 21
103.007
  0
LINE
  8
0
 10
191.513
 11
191.623
 20
103.007
 21
103.162
  0
LINE
  8
0
 10
191.623
 11
191.749
 20
103.162
 21
103.301
  0
LINE
  8
0
 10
191.749
 11
191.893
 20
103.301
 21
103.423
  0
LINE
  8
0
 10
191.893
 11
192.05
 20
103.423
 21
103.526
  0
LINE
  8
0
 10
192.05
 11
192.219
 20
103.526
 21
103.608
  0
LINE
  8
0
 10
192.219
 11
192.397
 20
103.608
 21
103.669
  0
LINE
  8
0
 10
192.397
 11
192.582
 20
103.669
 21
103.707
  0
LINE
  8
0
 10
192.582
 11
192.77
 20
103.707
 21
103.721
  0
LINE
  8
0
 10
192.77
 11
192.958
 20
103.721
 21
103.712
  0
LINE
  8
0
 10
192.958
 11
193.144
 20
103.712
 21
103.679
  0
LINE
  8
0
 10
193.144
 11
193.324
 20
103.679
 21
103.623
  0
LINE
  8
0
 10
193.324
 11
193.496
 20
103.623
 21
103.546
  0
LINE
  8
0
 10
193.496
 11
193.656
 20
103.546
 21
103.447
  0
LINE
  8
0
 10
193.656
 11
193.803
 20
103.447
 21
103.329
  0
LINE
  8
0
 10
193.803
 11
193.933
 20
103.329
 21
103.194
  0
LINE
  8
0
 10
193.933
 11
194.046
 20
103.194
 21
103.043
  0
LINE
  8
0
 10
194.046
 11
194.14
 20
103.043
 21
102.879
  0
LINE
  8
0
 10
194.14
 11
194.211
 20
102.879
 21
102.705
  0
LINE
  8
0
 10
194.211
 11
194.261
 20
102.705
 21
102.523
  0
LINE
  8
0
 10
194.261
 11
194.287
 20
102.523
 21
102.336
  0
LINE
  8
0
 10
194.287
 11
194.289
 20
102.336
 21
102.148
  0
LINE
  8
0
 10
194.289
 11
194.268
 20
102.148
 21
101.961
  0
LINE
  8
0
 10
194.268
 11
194.224
 20
101.961
 21
101.778
  0
LINE
  8
0
 10
194.224
 11
194.157
 20
101.778
 21
101.602
  0
LINE
  8
0
 10
194.157
 11
194.069
 20
101.602
 21
101.436
  0
LINE
  8
0
 10
194.069
 11
193.96
 20
101.436
 21
101.281
  0
LINE
  8
0
 10
193.96
 11
193.833
 20
101.281
 21
101.142
  0
LINE
  8
0
 10
193.833
 11
193.689
 20
101.142
 21
101.02
  0
LINE
  8
0
 10
193.689
 11
193.532
 20
101.02
 21
100.917
  0
LINE
  8
0
 10
193.532
 11
193.363
 20
100.917
 21
100.835
  0
LINE
  8
0
 10
193.363
 11
193.185
 20
100.835
 21
100.774
  0
LINE
  8
0
 10
193.185
 11
193
 20
100.774
 21
100.736
  0
LINE
  8
0
 10
193
 11
192.812
 20
100.736
 21
100.722
  0
LINE
  8
0
 10
192.812
 11
192.624
 20
100.722
 21
100.731
  0
LINE
  8
0
 10
192.624
 11
192.439
 20
100.731
 21
100.764
  0
LINE
  8
0
 10
192.439
 11
192.259
 20
100.764
 21
100.82
  0
LINE
  8
0
 10
192.259
 11
192.086
 20
100.82
 21
100.897
  0
LINE
  8
0
 10
192.086
 11
191.926
 20
100.897
 21
100.996
  0
LINE
  8
0
 10
191.926
 11
191.779
 20
100.996
 21
101.114
  0
LINE
  8
0
 10
191.779
 11
191.649
 20
101.114
 21
101.249
  0
LINE
  8
0
 10
191.649
 11
191.536
 20
101.249
 21
101.4
  0
LINE
  8
0
 10
191.536
 11
191.442
 20
101.4
 21
101.564
  0
LINE
  8
0
 10
191.442
 11
191.371
 20
101.564
 21
101.738
  0
LINE
  8
0
 10
191.371
 11
191.321
 20
101.738
 21
101.92
  0
LINE
  8
0
 10
191.321
 11
191.295
 20
101.92
 21
102.106
  0
LINE
  8
0
 10
191.295
 11
191.293
 20
102.106
 21
102.295
  0
LINE
  8
0
 10
191.293
 11
191.314
 20
252.295
 21
252.482
  0
LINE
  8
0
 10
191.314
 11
191.358
 20
252.482
 21
252.665
  0
LINE
  8
0
 10
191.358
 11
191.425
 20
252.665
 21
252.841
  0
LINE
  8
0
 10
191.425
 11
191.513
 20
252.841
 21
253.007
  0
LINE
  8
0
 10
191.513
 11
191.623
 20
253.007
 21
253.162
  0
LINE
  8
0
 10
191.623
 11
191.749
 20
253.162
 21
253.301
  0
LINE
  8
0
 10
191.749
 11
191.893
 20
253.301
 21
253.423
  0
LINE
  8
0
 10
191.893
 11
192.05
 20
253.423
 21
253.526
  0
LINE
  8
0
 10
192.05
 11
192.219
 20
253.526
 21
253.608
  0
LINE
  8
0
 10
192.219
 11
192.397
 20
253.608
 21
253.669
  0
LINE
  8
0
 10
192.397
 11
192.582
 20
253.669
 21
253.707
  0
LINE
  8
0
 10
192.582
 11
192.77
 20
253.707
 21
253.721
  0
LINE
  8
0
 10
192.77
 11
192.958
 20
253.721
 21
253.712
  0
LINE
  8
0
 10
192.958
 11
193.144
 20
253.712
 21
253.679
  0
LINE
  8
0
 10
193.144
 11
193.324
 20
253.679
 21
253.623
  0
LINE
  8
0
 10
193.324
 11
193.496
 20
253.623
 21
253.546
  0
LINE
  8
0
 10
193.496
 11
193.656
 20
253.546
 21
253.447
  0
LINE
  8
0
 10
193.656
 11
193.803
 20
253.447
 21
253.329
  0
LINE
  8
0
 10
193.803
 11
193.933
 20
253.329
 21
253.194
  0
LINE
  8
0
 10
193.933
 11
194.046
 20
253.194
 21
253.043
  0
LINE
  8
0
 10
194.046
 11
194.14
 20
253.043
 21
252.879
  0
LINE
  8
0
 10
194.14
 11
194.211
 20
252.879
 21
252.705
  0
LINE
  8
0
 10
194.211
 11
194.261
 20
252.705
 21
252.523
  0
LINE
  8
0
 10
194.261
 11
194.287
 20
252.523
 21
252.336
  0
LINE
  8
0
 10
194.287
 11
194.289
 20
252.336
 21
252.148
  0
LINE
  8
0
 10
194.289
 11
194.268
 20
252.148
 21
251.961
  0
LINE
  8
0
 10
194.268
 11
194.224
 20
251.961
 21
251.778
  0
LINE
  8
0
 10
194.224
 11
194.157
 20
251.778
 21
251.602
  0
LINE
  8
0
 10
194.157
 11
194.069
 20
251.602
 21
251.436
  0
LINE
  8
0
 10
194.069
 11
193.96
 20
251.436
 21
251.281
  0
LINE
  8
0
 10
193.96
 11
193.833
 20
251.281
 21
251.142
  0
LINE
  8
0
 10
193.833
 11
193.689
 20
251.142
 21
251.02
  0
LINE
  8
0
 10
193.689
 11
193.532
 20
251.02
 21
250.917
  0
LINE
  8
0
 10
193.532
 11
193.363
 20
250.917
 21
250.835
  0
LINE
  8
0
 10
193.363
 11
193.185
 20
250.835
 21
250.774
  0
LINE
  8
0
 10
193.185
 11
193
 20
250.774
 21
250.736
  0
LINE
  8
0
 10
193
 11
192.812
 20
250.736
 21
250.722
  0
LINE
  8
0
 10
192.812
 11
192.624
 20
250.722
 21
250.731
  0
LINE
  8
0
 10
192.624
 11
192.439
 20
250.731
 21
250.764
  0
LINE
  8
0
 10
192.439
 11
192.259
 20
250.764
 21
250.82
  0
LINE
  8
0
 10
192.259
 11
192.086
 20
250.82
 21
250.897
  0
LINE
  8
0
 10
192.086
 11
191.926
 20
250.897
 21
250.996
  0
LINE
  8
0
 10
191.926
 11
191.779
 20
250.996
 21
251.114
  0
LINE
  8
0
 10
191.779
 11
191.649
 20
251.114
 21
251.249
  0
LINE
  8
0
 10
191.649
 11
191.536
 20
251.249
 21
251.4
  0
LINE
  8
0
 10
191.536
 11
191.442
 20
251.4
 21
251.564
  0
LINE
  8
0
 10
191.442
 11
191.371
 20
251.564
 21
251.738
  0
LINE
  8
0
 10
191.371
 11
191.321
 20
251.738
 21
251.92
  0
LINE
  8
0
 10
191.321
 11
191.295
 20
251.92
 21
252.106
  0
LINE
  8
0
 10
191.295
 11
191.293
 20
252.106
 21
252.295
  0
LINE
  8
0
 10
191.361
 11
191.969
 20
63.825
 21
67.272
  0
LINE
  8
0
 10
191.969
 11
192.769
 20
67.272
 21
67.131
  0
LINE
  8
0
 10
192.769
 11
193.639
 20
67.131
 21
72.063
  0
LINE
  8
0
 10
193.639
 11
192.838
 20
72.063
 21
72.204
  0
LINE
  8
0
 10
192.838
 11
193.446
 20
72.204
 21
75.652
  0
LINE
  8
0
 10
193.446
 11
194.247
 20
75.652
 21
75.511
  0
LINE
  8
0
 10
194.247
 11
194.417
 20
75.511
 21
76.476
  0
LINE
  8
0
 10
194.417
 11
208.175
 20
76.476
 21
74.05
  0
LINE
  8
0
 10
208.175
 11
208.005
 20
74.05
 21
73.085
  0
LINE
  8
0
 10
208.005
 11
208.805
 20
73.085
 21
72.944
  0
LINE
  8
0
 10
208.805
 11
208.197
 20
72.944
 21
69.496
  0
LINE
  8
0
 10
208.197
 11
207.397
 20
69.496
 21
69.637
  0
LINE
  8
0
 10
207.397
 11
206.527
 20
69.637
 21
64.705
  0
LINE
  8
0
 10
206.527
 11
207.328
 20
64.705
 21
64.564
  0
LINE
  8
0
 10
207.328
 11
206.72
 20
64.564
 21
61.116
  0
LINE
  8
0
 10
206.72
 11
205.919
 20
61.116
 21
61.257
  0
LINE
  8
0
 10
205.919
 11
205.749
 20
61.257
 21
60.292
  0
LINE
  8
0
 10
205.749
 11
191.991
 20
60.292
 21
62.718
  0
LINE
  8
0
 10
191.991
 11
192.161
 20
62.718
 21
63.683
  0
LINE
  8
0
 10
192.161
 11
191.361
 20
63.683
 21
63.825
  0
LINE
  8
0
 10
194.66
 11
195.268
 20
82.536
 21
85.984
  0
LINE
  8
0
 10
195.268
 11
196.069
 20
85.984
 21
85.842
  0
LINE
  8
0
 10
196.069
 11
196.938
 20
85.842
 21
90.774
  0
LINE
  8
0
 10
196.938
 11
196.138
 20
90.774
 21
90.916
  0
LINE
  8
0
 10
196.138
 11
196.746
 20
90.916
 21
94.363
  0
LINE
  8
0
 10
196.746
 11
197.546
 20
94.363
 21
94.222
  0
LINE
  8
0
 10
197.546
 11
197.716
 20
94.222
 21
95.187
  0
LINE
  8
0
 10
197.716
 11
211.474
 20
95.187
 21
92.761
  0
LINE
  8
0
 10
211.474
 11
211.304
 20
92.761
 21
91.796
  0
LINE
  8
0
 10
211.304
 11
212.105
 20
91.796
 21
91.655
  0
LINE
  8
0
 10
212.105
 11
211.497
 20
91.655
 21
88.207
  0
LINE
  8
0
 10
211.497
 11
210.696
 20
88.207
 21
88.349
  0
LINE
  8
0
 10
210.696
 11
209.826
 20
88.349
 21
83.417
  0
LINE
  8
0
 10
209.826
 11
210.627
 20
83.417
 21
83.275
  0
LINE
  8
0
 10
210.627
 11
210.019
 20
83.275
 21
79.828
  0
LINE
  8
0
 10
210.019
 11
209.218
 20
79.828
 21
79.969
  0
LINE
  8
0
 10
209.218
 11
209.048
 20
79.969
 21
79.004
  0
LINE
  8
0
 10
209.048
 11
195.291
 20
79.004
 21
81.43
  0
LINE
  8
0
 10
195.291
 11
195.461
 20
81.43
 21
82.395
  0
LINE
  8
0
 10
195.461
 11
194.66
 20
82.395
 21
82.536
  0
LINE
  8
0
 10
203.994
 11
204.602
 20
26.057
 21
29.505
  0
LINE
  8
0
 10
204.602
 11
205.403
 20
29.505
 21
29.364
  0
LINE
  8
0
 10
205.403
 11
206.273
 20
29.364
 21
34.295
  0
LINE
  8
0
 10
206.273
 11
205.472
 20
34.295
 21
34.437
  0
LINE
  8
0
 10
205.472
 11
206.08
 20
34.437
 21
37.884
  0
LINE
  8
0
 10
206.08
 11
206.881
 20
37.884
 21
37.743
  0
LINE
  8
0
 10
206.881
 11
207.051
 20
37.743
 21
38.708
  0
LINE
  8
0
 10
207.051
 11
220.808
 20
38.708
 21
36.283
  0
LINE
  8
0
 10
220.808
 11
220.638
 20
36.283
 21
35.317
  0
LINE
  8
0
 10
220.638
 11
221.439
 20
35.317
 21
35.176
  0
LINE
  8
0
 10
221.439
 11
220.831
 20
35.176
 21
31.728
  0
LINE
  8
0
 10
220.831
 11
220.03
 20
31.728
 21
31.87
  0
LINE
  8
0
 10
220.03
 11
219.161
 20
31.87
 21
26.938
  0
LINE
  8
0
 10
219.161
 11
219.961
 20
26.938
 21
26.797
  0
LINE
  8
0
 10
219.961
 11
219.353
 20
26.797
 21
23.349
  0
LINE
  8
0
 10
219.353
 11
218.553
 20
23.349
 21
23.49
  0
LINE
  8
0
 10
218.553
 11
218.383
 20
23.49
 21
22.525
  0
LINE
  8
0
 10
218.383
 11
204.625
 20
22.525
 21
24.951
  0
LINE
  8
0
 10
204.625
 11
204.795
 20
24.951
 21
25.916
  0
LINE
  8
0
 10
204.795
 11
203.994
 20
25.916
 21
26.057
  0
LINE
  8
0
 10
207.294
 11
207.902
 20
44.768
 21
48.216
  0
LINE
  8
0
 10
207.902
 11
208.702
 20
48.216
 21
48.075
  0
LINE
  8
0
 10
208.702
 11
209.572
 20
48.075
 21
53.007
  0
LINE
  8
0
 10
209.572
 11
208.771
 20
53.007
 21
53.148
  0
LINE
  8
0
 10
208.771
 11
209.379
 20
53.148
 21
56.596
  0
LINE
  8
0
 10
209.379
 11
210.18
 20
56.596
 21
56.455
  0
LINE
  8
0
 10
210.18
 11
210.35
 20
56.455
 21
57.42
  0
LINE
  8
0
 10
210.35
 11
224.108
 20
57.42
 21
54.994
  0
LINE
  8
0
 10
224.108
 11
223.938
 20
54.994
 21
54.029
  0
LINE
  8
0
 10
223.938
 11
224.738
 20
54.029
 21
53.888
  0
LINE
  8
0
 10
224.738
 11
224.13
 20
53.888
 21
50.44
  0
LINE
  8
0
 10
224.13
 11
223.33
 20
50.44
 21
50.581
  0
LINE
  8
0
 10
223.33
 11
222.46
 20
50.581
 21
45.649
  0
LINE
  8
0
 10
222.46
 11
223.261
 20
45.649
 21
45.508
  0
LINE
  8
0
 10
223.261
 11
222.653
 20
45.508
 21
42.06
  0
LINE
  8
0
 10
222.653
 11
221.852
 20
42.06
 21
42.201
  0
LINE
  8
0
 10
221.852
 11
221.682
 20
42.201
 21
41.236
  0
LINE
  8
0
 10
221.682
 11
207.924
 20
41.236
 21
43.662
  0
LINE
  8
0
 10
207.924
 11
208.094
 20
43.662
 21
44.627
  0
LINE
  8
0
 10
208.094
 11
207.294
 20
44.627
 21
44.768
  0
LINE
  8
0
 10
210.593
 11
211.201
 20
63.48
 21
66.927
  0
LINE
  8
0
 10
211.201
 11
212.002
 20
66.927
 21
66.786
  0
LINE
  8
0
 10
212.002
 11
212.871
 20
66.786
 21
71.718
  0
LINE
  8
0
 10
212.871
 11
212.071
 20
71.718
 21
71.859
  0
LINE
  8
0
 10
212.071
 11
212.679
 20
71.859
 21
75.307
  0
LINE
  8
0
 10
212.679
 11
213.479
 20
75.307
 21
75.166
  0
LINE
  8
0
 10
213.479
 11
213.649
 20
75.166
 21
76.131
  0
LINE
  8
0
 10
213.649
 11
227.407
 20
76.131
 21
73.705
  0
LINE
  8
0
 10
227.407
 11
227.237
 20
73.705
 21
72.74
  0
LINE
  8
0
 10
227.237
 11
228.038
 20
72.74
 21
72.599
  0
LINE
  8
0
 10
228.038
 11
227.43
 20
72.599
 21
69.151
  0
LINE
  8
0
 10
227.43
 11
226.629
 20
69.151
 21
69.292
  0
LINE
  8
0
 10
226.629
 11
225.759
 20
69.292
 21
64.36
  0
LINE
  8
0
 10
225.759
 11
226.56
 20
64.36
 21
64.219
  0
LINE
  8
0
 10
226.56
 11
225.952
 20
64.219
 21
60.771
  0
LINE
  8
0
 10
225.952
 11
225.151
 20
60.771
 21
60.913
  0
LINE
  8
0
 10
225.151
 11
224.981
 20
60.913
 21
59.947
  0
LINE
  8
0
 10
224.981
 11
211.223
 20
59.947
 21
62.373
  0
LINE
  8
0
 10
211.223
 11
211.394
 20
62.373
 21
63.338
  0
LINE
  8
0
 10
211.394
 11
210.593
 20
63.338
 21
63.48
  0
LINE
  8
0
 10
213.892
 11
214.5
 20
82.191
 21
85.639
  0
LINE
  8
0
 10
214.5
 11
215.301
 20
85.639
 21
85.498
  0
LINE
  8
0
 10
215.301
 11
216.171
 20
85.498
 21
90.43
  0
LINE
  8
0
 10
216.171
 11
215.37
 20
90.43
 21
90.571
  0
LINE
  8
0
 10
215.37
 11
215.978
 20
90.571
 21
94.019
  0
LINE
  8
0
 10
215.978
 11
216.779
 20
94.019
 21
93.877
  0
LINE
  8
0
 10
216.779
 11
216.949
 20
93.877
 21
94.842
  0
LINE
  8
0
 10
216.949
 11
230.706
 20
94.842
 21
92.417
  0
LINE
  8
0
 10
230.706
 11
230.536
 20
92.417
 21
91.451
  0
LINE
  8
0
 10
230.536
 11
231.337
 20
91.451
 21
91.31
  0
LINE
  8
0
 10
231.337
 11
230.729
 20
91.31
 21
87.862
  0
LINE
  8
0
 10
230.729
 11
229.928
 20
87.862
 21
88.004
  0
LINE
  8
0
 10
229.928
 11
229.059
 20
88.004
 21
83.072
  0
LINE
  8
0
 10
229.059
 11
229.859
 20
83.072
 21
82.931
  0
LINE
  8
0
 10
229.859
 11
229.251
 20
82.931
 21
79.483
  0
LINE
  8
0
 10
229.251
 11
228.451
 20
79.483
 21
79.624
  0
LINE
  8
0
 10
228.451
 11
228.281
 20
79.624
 21
78.659
  0
LINE
  8
0
 10
228.281
 11
214.523
 20
78.659
 21
81.085
  0
LINE
  8
0
 10
214.523
 11
214.693
 20
81.085
 21
82.05
  0
LINE
  8
0
 10
214.693
 11
213.892
 20
82.05
 21
82.191
  0
LINE
  8
0
 10
223.574
 11
224.182
 20
27.682
 21
31.129
  0
LINE
  8
0
 10
224.182
 11
224.983
 20
31.129
 21
30.988
  0
LINE
  8
0
 10
224.983
 11
225.852
 20
30.988
 21
35.92
  0
LINE
  8
0
 10
225.852
 11
225.052
 20
35.92
 21
36.061
  0
LINE
  8
0
 10
225.052
 11
225.659
 20
36.061
 21
39.509
  0
LINE
  8
0
 10
225.659
 11
226.46
 20
39.509
 21
39.368
  0
LINE
  8
0
 10
226.46
 11
226.63
 20
39.368
 21
40.333
  0
LINE
  8
0
 10
226.63
 11
240.388
 20
40.333
 21
37.907
  0
LINE
  8
0
 10
240.388
 11
240.218
 20
37.907
 21
36.942
  0
LINE
  8
0
 10
240.218
 11
241.019
 20
36.942
 21
36.801
  0
LINE
  8
0
 10
241.019
 11
240.411
 20
36.801
 21
33.353
  0
LINE
  8
0
 10
240.411
 11
239.61
 20
33.353
 21
33.494
  0
LINE
  8
0
 10
239.61
 11
238.74
 20
33.494
 21
28.562
  0
LINE
  8
0
 10
238.74
 11
239.541
 20
28.562
 21
28.421
  0
LINE
  8
0
 10
239.541
 11
238.933
 20
28.421
 21
24.973
  0
LINE
  8
0
 10
238.933
 11
238.132
 20
24.973
 21
25.115
  0
LINE
  8
0
 10
238.132
 11
237.962
 20
25.115
 21
24.149
  0
LINE
  8
0
 10
237.962
 11
224.204
 20
24.149
 21
26.575
  0
LINE
  8
0
 10
224.204
 11
224.375
 20
26.575
 21
27.54
  0
LINE
  8
0
 10
224.375
 11
223.574
 20
27.54
 21
27.682
  0
LINE
  8
0
 10
226.873
 11
227.481
 20
46.393
 21
49.841
  0
LINE
  8
0
 10
227.481
 11
228.282
 20
49.841
 21
49.7
  0
LINE
  8
0
 10
228.282
 11
229.152
 20
49.7
 21
54.632
  0
LINE
  8
0
 10
229.152
 11
228.351
 20
54.632
 21
54.773
  0
LINE
  8
0
 10
228.351
 11
228.959
 20
54.773
 21
58.221
  0
LINE
  8
0
 10
228.959
 11
229.759
 20
58.221
 21
58.079
  0
LINE
  8
0
 10
229.759
 11
229.93
 20
58.079
 21
59.044
  0
LINE
  8
0
 10
229.93
 11
243.687
 20
59.044
 21
56.619
  0
LINE
  8
0
 10
243.687
 11
243.517
 20
56.619
 21
55.653
  0
LINE
  8
0
 10
243.517
 11
244.318
 20
55.653
 21
55.512
  0
LINE
  8
0
 10
244.318
 11
243.71
 20
55.512
 21
52.065
  0
LINE
  8
0
 10
243.71
 11
242.909
 20
52.065
 21
52.206
  0
LINE
  8
0
 10
242.909
 11
242.04
 20
52.206
 21
47.274
  0
LINE
  8
0
 10
242.04
 11
242.84
 20
47.274
 21
47.133
  0
LINE
  8
0
 10
242.84
 11
242.232
 20
47.133
 21
43.685
  0
LINE
  8
0
 10
242.232
 11
241.432
 20
43.685
 21
43.826
  0
LINE
  8
0
 10
241.432
 11
241.262
 20
43.826
 21
42.861
  0
LINE
  8
0
 10
241.262
 11
227.504
 20
42.861
 21
45.287
  0
LINE
  8
0
 10
227.504
 11
227.674
 20
45.287
 21
46.252
  0
LINE
  8
0
 10
227.674
 11
226.873
 20
46.252
 21
46.393
  0
LINE
  8
0
 10
230.173
 11
230.781
 20
65.104
 21
68.552
  0
LINE
  8
0
 10
230.781
 11
231.581
 20
68.552
 21
68.411
  0
LINE
  8
0
 10
231.581
 11
232.451
 20
68.411
 21
73.343
  0
LINE
  8
0
 10
232.451
 11
231.65
 20
73.343
 21
73.484
  0
LINE
  8
0
 10
231.65
 11
232.258
 20
73.484
 21
76.932
  0
LINE
  8
0
 10
232.258
 11
233.059
 20
76.932
 21
76.791
  0
LINE
  8
0
 10
233.059
 11
233.229
 20
76.791
 21
77.756
  0
LINE
  8
0
 10
233.229
 11
246.987
 20
77.756
 21
75.33
  0
LINE
  8
0
 10
246.987
 11
246.817
 20
75.33
 21
74.365
  0
LINE
  8
0
 10
246.817
 11
247.617
 20
74.365
 21
74.224
  0
LINE
  8
0
 10
247.617
 11
247.009
 20
74.224
 21
70.776
  0
LINE
  8
0
 10
247.009
 11
246.209
 20
70.776
 21
70.917
  0
LINE
  8
0
 10
246.209
 11
245.339
 20
70.917
 21
65.985
  0
LINE
  8
0
 10
245.339
 11
246.14
 20
65.985
 21
65.844
  0
LINE
  8
0
 10
246.14
 11
245.532
 20
65.844
 21
62.396
  0
LINE
  8
0
 10
245.532
 11
244.731
 20
62.396
 21
62.537
  0
LINE
  8
0
 10
244.731
 11
244.561
 20
62.537
 21
61.572
  0
LINE
  8
0
 10
244.561
 11
230.803
 20
61.572
 21
63.998
  0
LINE
  8
0
 10
230.803
 11
230.973
 20
63.998
 21
64.963
  0
LINE
  8
0
 10
230.973
 11
230.173
 20
64.963
 21
65.104
  0
LINE
  8
0
 10
233.472
 11
234.08
 20
83.816
 21
87.263
  0
LINE
  8
0
 10
234.08
 11
234.881
 20
87.263
 21
87.122
  0
LINE
  8
0
 10
234.881
 11
235.75
 20
87.122
 21
92.054
  0
LINE
  8
0
 10
235.75
 11
234.949
 20
92.054
 21
92.195
  0
LINE
  8
0
 10
234.949
 11
235.557
 20
92.195
 21
95.643
  0
LINE
  8
0
 10
235.557
 11
236.358
 20
95.643
 21
95.502
  0
LINE
  8
0
 10
236.358
 11
236.528
 20
95.502
 21
96.467
  0
LINE
  8
0
 10
236.528
 11
250.286
 20
96.467
 21
94.041
  0
LINE
  8
0
 10
250.286
 11
250.116
 20
94.041
 21
93.076
  0
LINE
  8
0
 10
250.116
 11
250.917
 20
93.076
 21
92.935
  0
LINE
  8
0
 10
250.917
 11
250.309
 20
92.935
 21
89.487
  0
LINE
  8
0
 10
250.309
 11
249.508
 20
89.487
 21
89.628
  0
LINE
  8
0
 10
249.508
 11
248.638
 20
89.628
 21
84.696
  0
LINE
  8
0
 10
248.638
 11
249.439
 20
84.696
 21
84.555
  0
LINE
  8
0
 10
249.439
 11
248.831
 20
84.555
 21
81.107
  0
LINE
  8
0
 10
248.831
 11
248.03
 20
81.107
 21
81.249
  0
LINE
  8
0
 10
248.03
 11
247.86
 20
81.249
 21
80.284
  0
LINE
  8
0
 10
247.86
 11
234.102
 20
80.284
 21
82.709
  0
LINE
  8
0
 10
234.102
 11
234.273
 20
82.709
 21
83.675
  0
LINE
  8
0
 10
234.273
 11
233.472
 20
83.675
 21
83.816
  0
LINE
  8
0
 10
241.243
 11
241.851
 20
18.473
 21
21.921
  0
LINE
  8
0
 10
241.851
 11
242.652
 20
21.921
 21
21.78
  0
LINE
  8
0
 10
242.652
 11
243.522
 20
21.78
 21
26.712
  0
LINE
  8
0
 10
243.522
 11
242.721
 20
26.712
 21
26.853
  0
LINE
  8
0
 10
242.721
 11
243.329
 20
26.853
 21
30.301
  0
LINE
  8
0
 10
243.329
 11
244.13
 20
30.301
 21
30.16
  0
LINE
  8
0
 10
244.13
 11
244.3
 20
30.16
 21
31.125
  0
LINE
  8
0
 10
244.3
 11
258.058
 20
31.125
 21
28.699
  0
LINE
  8
0
 10
258.058
 11
257.887
 20
28.699
 21
27.734
  0
LINE
  8
0
 10
257.887
 11
258.688
 20
27.734
 21
27.593
  0
LINE
  8
0
 10
258.688
 11
258.08
 20
27.593
 21
24.145
  0
LINE
  8
0
 10
258.08
 11
257.279
 20
24.145
 21
24.286
  0
LINE
  8
0
 10
257.279
 11
256.41
 20
24.286
 21
19.354
  0
LINE
  8
0
 10
256.41
 11
257.21
 20
19.354
 21
19.213
  0
LINE
  8
0
 10
257.21
 11
256.603
 20
19.213
 21
15.765
  0
LINE
  8
0
 10
256.603
 11
255.802
 20
15.765
 21
15.906
  0
LINE
  8
0
 10
255.802
 11
255.632
 20
15.906
 21
14.941
  0
LINE
  8
0
 10
255.632
 11
241.874
 20
14.941
 21
17.367
  0
LINE
  8
0
 10
241.874
 11
242.044
 20
17.367
 21
18.332
  0
LINE
  8
0
 10
242.044
 11
241.243
 20
18.332
 21
18.473
  0
LINE
  8
0
 10
244.543
 11
245.151
 20
37.185
 21
40.633
  0
LINE
  8
0
 10
245.151
 11
245.951
 20
40.633
 21
40.491
  0
LINE
  8
0
 10
245.951
 11
246.821
 20
40.491
 21
45.423
  0
LINE
  8
0
 10
246.821
 11
246.02
 20
45.423
 21
45.565
  0
LINE
  8
0
 10
246.02
 11
246.628
 20
45.565
 21
49.012
  0
LINE
  8
0
 10
246.628
 11
247.429
 20
49.012
 21
48.871
  0
LINE
  8
0
 10
247.429
 11
247.599
 20
48.871
 21
49.836
  0
LINE
  8
0
 10
247.599
 11
261.357
 20
49.836
 21
47.41
  0
LINE
  8
0
 10
261.357
 11
261.187
 20
47.41
 21
46.445
  0
LINE
  8
0
 10
261.187
 11
261.987
 20
46.445
 21
46.304
  0
LINE
  8
0
 10
261.987
 11
261.379
 20
46.304
 21
42.856
  0
LINE
  8
0
 10
261.379
 11
260.579
 20
42.856
 21
42.998
  0
LINE
  8
0
 10
260.579
 11
259.709
 20
42.998
 21
38.066
  0
LINE
  8
0
 10
259.709
 11
260.51
 20
38.066
 21
37.924
  0
LINE
  8
0
 10
260.51
 11
259.902
 20
37.924
 21
34.477
  0
LINE
  8
0
 10
259.902
 11
259.101
 20
34.477
 21
34.618
  0
LINE
  8
0
 10
259.101
 11
258.931
 20
34.618
 21
33.653
  0
LINE
  8
0
 10
258.931
 11
245.173
 20
33.653
 21
36.079
  0
LINE
  8
0
 10
245.173
 11
245.343
 20
36.079
 21
37.044
  0
LINE
  8
0
 10
245.343
 11
244.543
 20
37.044
 21
37.185
  0
LINE
  8
0
 10
247.842
 11
248.45
 20
55.896
 21
59.344
  0
LINE
  8
0
 10
248.45
 11
249.251
 20
59.344
 21
59.203
  0
LINE
  8
0
 10
249.251
 11
250.12
 20
59.203
 21
64.135
  0
LINE
  8
0
 10
250.12
 11
249.32
 20
64.135
 21
64.276
  0
LINE
  8
0
 10
249.32
 11
249.928
 20
64.276
 21
67.724
  0
LINE
  8
0
 10
249.928
 11
250.728
 20
67.724
 21
67.583
  0
LINE
  8
0
 10
250.728
 11
250.898
 20
67.583
 21
68.548
  0
LINE
  8
0
 10
250.898
 11
264.656
 20
68.548
 21
66.122
  0
LINE
  8
0
 10
264.656
 11
264.486
 20
66.122
 21
65.157
  0
LINE
  8
0
 10
264.486
 11
265.287
 20
65.157
 21
65.016
  0
LINE
  8
0
 10
265.287
 11
264.679
 20
65.016
 21
61.568
  0
LINE
  8
0
 10
264.679
 11
263.878
 20
61.568
 21
61.709
  0
LINE
  8
0
 10
263.878
 11
263.008
 20
61.709
 21
56.777
  0
LINE
  8
0
 10
263.008
 11
263.809
 20
56.777
 21
56.636
  0
LINE
  8
0
 10
263.809
 11
263.201
 20
56.636
 21
53.188
  0
LINE
  8
0
 10
263.201
 11
262.4
 20
53.188
 21
53.329
  0
LINE
  8
0
 10
262.4
 11
262.23
 20
53.329
 21
52.364
  0
LINE
  8
0
 10
262.23
 11
248.473
 20
52.364
 21
54.79
  0
LINE
  8
0
 10
248.473
 11
248.643
 20
54.79
 21
55.755
  0
LINE
  8
0
 10
248.643
 11
247.842
 20
55.755
 21
55.896
  0
LINE
  8
0
 10
251.141
 11
251.749
 20
74.608
 21
78.055
  0
LINE
  8
0
 10
251.749
 11
252.55
 20
78.055
 21
77.914
  0
LINE
  8
0
 10
252.55
 11
253.42
 20
77.914
 21
82.846
  0
LINE
  8
0
 10
253.42
 11
252.619
 20
82.846
 21
82.987
  0
LINE
  8
0
 10
252.619
 11
253.227
 20
82.987
 21
86.435
  0
LINE
  8
0
 10
253.227
 11
254.028
 20
86.435
 21
86.294
  0
LINE
  8
0
 10
254.028
 11
254.198
 20
86.294
 21
87.259
  0
LINE
  8
0
 10
254.198
 11
267.955
 20
87.259
 21
84.833
  0
LINE
  8
0
 10
267.955
 11
267.785
 20
84.833
 21
83.868
  0
LINE
  8
0
 10
267.785
 11
268.586
 20
83.868
 21
83.727
  0
LINE
  8
0
 10
268.586
 11
267.978
 20
83.727
 21
80.279
  0
LINE
  8
0
 10
267.978
 11
267.177
 20
80.279
 21
80.42
  0
LINE
  8
0
 10
267.177
 11
266.308
 20
80.42
 21
75.488
  0
LINE
  8
0
 10
266.308
 11
267.108
 20
75.488
 21
75.347
  0
LINE
  8
0
 10
267.108
 11
266.5
 20
75.347
 21
71.899
  0
LINE
  8
0
 10
266.5
 11
265.7
 20
71.899
 21
72.04
  0
LINE
  8
0
 10
265.7
 11
265.53
 20
72.04
 21
71.075
  0
LINE
  8
0
 10
265.53
 11
251.772
 20
71.075
 21
73.501
  0
LINE
  8
0
 10
251.772
 11
251.942
 20
73.501
 21
74.466
  0
LINE
  8
0
 10
251.942
 11
251.141
 20
74.466
 21
74.608
  0
LINE
  8
0
 10
259.087
 11
259.694
 20
10.25
 21
13.698
  0
LINE
  8
0
 10
259.694
 11
260.495
 20
13.698
 21
13.557
  0
LINE
  8
0
 10
260.495
 11
261.365
 20
13.557
 21
18.489
  0
LINE
  8
0
 10
261.365
 11
260.564
 20
18.489
 21
18.63
  0
LINE
  8
0
 10
260.564
 11
261.172
 20
18.63
 21
22.078
  0
LINE
  8
0
 10
261.172
 11
261.973
 20
22.078
 21
21.936
  0
LINE
  8
0
 10
261.973
 11
262.143
 20
21.936
 21
22.902
  0
LINE
  8
0
 10
262.143
 11
275.901
 20
22.902
 21
20.476
  0
LINE
  8
0
 10
275.901
 11
275.73
 20
20.476
 21
19.511
  0
LINE
  8
0
 10
275.73
 11
276.531
 20
19.511
 21
19.369
  0
LINE
  8
0
 10
276.531
 11
275.923
 20
19.369
 21
15.922
  0
LINE
  8
0
 10
275.923
 11
275.123
 20
15.922
 21
16.063
  0
LINE
  8
0
 10
275.123
 11
274.253
 20
16.063
 21
11.131
  0
LINE
  8
0
 10
274.253
 11
275.054
 20
11.131
 21
10.99
  0
LINE
  8
0
 10
275.054
 11
274.446
 20
10.99
 21
7.542
  0
LINE
  8
0
 10
274.446
 11
273.645
 20
7.542
 21
7.683
  0
LINE
  8
0
 10
273.645
 11
273.475
 20
7.683
 21
6.718
  0
LINE
  8
0
 10
273.475
 11
259.717
 20
6.718
 21
9.144
  0
LINE
  8
0
 10
259.717
 11
259.887
 20
9.144
 21
10.109
  0
LINE
  8
0
 10
259.887
 11
259.087
 20
10.109
 21
10.25
  0
LINE
  8
0
 10
262.386
 11
262.994
 20
28.961
 21
32.409
  0
LINE
  8
0
 10
262.994
 11
263.794
 20
32.409
 21
32.268
  0
LINE
  8
0
 10
263.794
 11
264.664
 20
32.268
 21
37.2
  0
LINE
  8
0
 10
264.664
 11
263.863
 20
37.2
 21
37.341
  0
LINE
  8
0
 10
263.863
 11
264.471
 20
37.341
 21
40.789
  0
LINE
  8
0
 10
264.471
 11
265.272
 20
40.789
 21
40.648
  0
LINE
  8
0
 10
265.272
 11
265.442
 20
40.648
 21
41.613
  0
LINE
  8
0
 10
265.442
 11
279.2
 20
41.613
 21
39.187
  0
LINE
  8
0
 10
279.2
 11
279.03
 20
39.187
 21
38.222
  0
LINE
  8
0
 10
279.03
 11
279.83
 20
38.222
 21
38.081
  0
LINE
  8
0
 10
279.83
 11
279.222
 20
38.081
 21
34.633
  0
LINE
  8
0
 10
279.222
 11
278.422
 20
34.633
 21
34.774
  0
LINE
  8
0
 10
278.422
 11
277.552
 20
34.774
 21
29.842
  0
LINE
  8
0
 10
277.552
 11
278.353
 20
29.842
 21
29.701
  0
LINE
  8
0
 10
278.353
 11
277.745
 20
29.701
 21
26.253
  0
LINE
  8
0
 10
277.745
 11
276.944
 20
26.253
 21
26.394
  0
LINE
  8
0
 10
276.944
 11
276.774
 20
26.394
 21
25.429
  0
LINE
  8
0
 10
276.774
 11
263.016
 20
25.429
 21
27.855
  0
LINE
  8
0
 10
263.016
 11
263.187
 20
27.855
 21
28.82
  0
LINE
  8
0
 10
263.187
 11
262.386
 20
28.82
 21
28.961
  0
LINE
  8
0
 10
265.685
 11
266.293
 20
47.673
 21
51.121
  0
LINE
  8
0
 10
266.293
 11
267.094
 20
51.121
 21
50.979
  0
LINE
  8
0
 10
267.094
 11
267.963
 20
50.979
 21
55.911
  0
LINE
  8
0
 10
267.963
 11
267.163
 20
55.911
 21
56.053
  0
LINE
  8
0
 10
267.163
 11
267.771
 20
56.053
 21
59.5
  0
LINE
  8
0
 10
267.771
 11
268.571
 20
59.5
 21
59.359
  0
LINE
  8
0
 10
268.571
 11
268.742
 20
59.359
 21
60.324
  0
LINE
  8
0
 10
268.742
 11
282.499
 20
60.324
 21
57.898
  0
LINE
  8
0
 10
282.499
 11
282.329
 20
57.898
 21
56.933
  0
LINE
  8
0
 10
282.329
 11
283.13
 20
56.933
 21
56.792
  0
LINE
  8
0
 10
283.13
 11
282.522
 20
56.792
 21
53.344
  0
LINE
  8
0
 10
282.522
 11
281.721
 20
53.344
 21
53.486
  0
LINE
  8
0
 10
281.721
 11
280.852
 20
53.486
 21
48.554
  0
LINE
  8
0
 10
280.852
 11
281.652
 20
48.554
 21
48.412
  0
LINE
  8
0
 10
281.652
 11
281.044
 20
48.412
 21
44.965
  0
LINE
  8
0
 10
281.044
 11
280.244
 20
44.965
 21
45.106
  0
LINE
  8
0
 10
280.244
 11
280.073
 20
45.106
 21
44.141
  0
LINE
  8
0
 10
280.073
 11
266.316
 20
44.141
 21
46.567
  0
LINE
  8
0
 10
266.316
 11
266.486
 20
46.567
 21
47.532
  0
LINE
  8
0
 10
266.486
 11
265.685
 20
47.532
 21
47.673
  0
LINE
  8
0
 10
268.984
 11
269.592
 20
66.384
 21
69.832
  0
LINE
  8
0
 10
269.592
 11
270.393
 20
69.832
 21
69.691
  0
LINE
  8
0
 10
270.393
 11
271.263
 20
69.691
 21
74.623
  0
LINE
  8
0
 10
271.263
 11
270.462
 20
74.623
 21
74.764
  0
LINE
  8
0
 10
270.462
 11
271.07
 20
74.764
 21
78.212
  0
LINE
  8
0
 10
271.07
 11
271.871
 20
78.212
 21
78.071
  0
LINE
  8
0
 10
271.871
 11
272.041
 20
78.071
 21
79.036
  0
LINE
  8
0
 10
272.041
 11
285.799
 20
79.036
 21
76.61
  0
LINE
  8
0
 10
285.799
 11
285.628
 20
76.61
 21
75.645
  0
LINE
  8
0
 10
285.628
 11
286.429
 20
75.645
 21
75.503
  0
LINE
  8
0
 10
286.429
 11
285.821
 20
75.503
 21
72.056
  0
LINE
  8
0
 10
285.821
 11
285.02
 20
72.056
 21
72.197
  0
LINE
  8
0
 10
285.02
 11
284.151
 20
72.197
 21
67.265
  0
LINE
  8
0
 10
284.151
 11
284.951
 20
67.265
 21
67.124
  0
LINE
  8
0
 10
284.951
 11
284.344
 20
67.124
 21
63.676
  0
LINE
  8
0
 10
284.344
 11
283.543
 20
63.676
 21
63.817
  0
LINE
  8
0
 10
283.543
 11
283.373
 20
63.817
 21
62.852
  0
LINE
  8
0
 10
283.373
 11
269.615
 20
62.852
 21
65.278
  0
LINE
  8
0
 10
269.615
 11
269.785
 20
65.278
 21
66.243
  0
LINE
  8
0
 10
269.785
 11
268.984
 20
66.243
 21
66.384
  0
LINE
  8
0
 10
276.902
 11
276.923
 20
-0.243
 21
-0.056
  0
LINE
  8
0
 10
276.923
 11
276.967
 20
-0.056
 21
0.127
  0
LINE
  8
0
 10
276.967
 11
277.034
 20
0.127
 21
0.303
  0
LINE
  8
0
 10
277.034
 11
277.122
 20
0.303
 21
0.47
  0
LINE
  8
0
 10
277.122
 11
277.232
 20
0.47
 21
0.624
  0
LINE
  8
0
 10
277.232
 11
277.358
 20
0.624
 21
0.763
  0
LINE
  8
0
 10
277.358
 11
277.502
 20
0.763
 21
0.885
  0
LINE
  8
0
 10
277.502
 11
277.659
 20
0.885
 21
0.988
  0
LINE
  8
0
 10
277.659
 11
277.828
 20
0.988
 21
1.07
  0
LINE
  8
0
 10
277.828
 11
278.006
 20
1.07
 21
1.131
  0
LINE
  8
0
 10
278.006
 11
278.191
 20
1.131
 21
1.17
  0
LINE
  8
0
 10
278.191
 11
278.379
 20
1.17
 21
1.183
  0
LINE
  8
0
 10
278.379
 11
278.568
 20
1.183
 21
1.174
  0
LINE
  8
0
 10
278.568
 11
278.753
 20
1.174
 21
1.142
  0
LINE
  8
0
 10
278.753
 11
278.933
 20
1.142
 21
1.086
  0
LINE
  8
0
 10
278.933
 11
279.105
 20
1.086
 21
1.009
  0
LINE
  8
0
 10
279.105
 11
279.265
 20
1.009
 21
0.909
  0
LINE
  8
0
 10
279.265
 11
279.412
 20
0.909
 21
0.791
  0
LINE
  8
0
 10
279.412
 11
279.542
 20
0.791
 21
0.656
  0
LINE
  8
0
 10
279.542
 11
279.655
 20
0.656
 21
0.505
  0
LINE
  8
0
 10
279.655
 11
279.749
 20
0.505
 21
0.342
  0
LINE
  8
0
 10
279.749
 11
279.82
 20
0.342
 21
0.168
  0
LINE
  8
0
 10
279.82
 11
279.87
 20
0.168
 21
-0.015
  0
LINE
  8
0
 10
279.87
 11
279.896
 20
-0.015
 21
-0.201
  0
LINE
  8
0
 10
279.896
 11
279.898
 20
-0.201
 21
-0.389
  0
LINE
  8
0
 10
279.898
 11
279.877
 20
-0.389
 21
-0.577
  0
LINE
  8
0
 10
279.877
 11
279.833
 20
-0.577
 21
-0.76
  0
LINE
  8
0
 10
279.833
 11
279.766
 20
-0.76
 21
-0.936
  0
LINE
  8
0
 10
279.766
 11
279.678
 20
-0.936
 21
-1.102
  0
LINE
  8
0
 10
279.678
 11
279.569
 20
-1.102
 21
-1.256
  0
LINE
  8
0
 10
279.569
 11
279.443
 20
-1.256
 21
-1.396
  0
LINE
  8
0
 10
279.443
 11
279.298
 20
-1.396
 21
-1.517
  0
LINE
  8
0
 10
279.298
 11
279.141
 20
-1.517
 21
-1.621
  0
LINE
  8
0
 10
279.141
 11
278.972
 20
-1.621
 21
-1.703
  0
LINE
  8
0
 10
278.972
 11
278.794
 20
-1.703
 21
-1.764
  0
LINE
  8
0
 10
278.794
 11
278.609
 20
-1.764
 21
-1.802
  0
LINE
  8
0
 10
278.609
 11
278.421
 20
-1.802
 21
-1.816
  0
LINE
  8
0
 10
278.421
 11
278.233
 20
-1.816
 21
-1.807
  0
LINE
  8
0
 10
278.233
 11
278.048
 20
-1.807
 21
-1.774
  0
LINE
  8
0
 10
278.048
 11
277.868
 20
-1.774
 21
-1.718
  0
LINE
  8
0
 10
277.868
 11
277.695
 20
-1.718
 21
-1.641
  0
LINE
  8
0
 10
277.695
 11
277.535
 20
-1.641
 21
-1.542
  0
LINE
  8
0
 10
277.535
 11
277.389
 20
-1.542
 21
-1.423
  0
LINE
  8
0
 10
277.389
 11
277.258
 20
-1.423
 21
-1.289
  0
LINE
  8
0
 10
277.258
 11
277.145
 20
-1.289
 21
-1.138
  0
LINE
  8
0
 10
277.145
 11
277.051
 20
-1.138
 21
-0.974
  0
LINE
  8
0
 10
277.051
 11
276.981
 20
-0.974
 21
-0.8
  0
LINE
  8
0
 10
276.981
 11
276.93
 20
-0.8
 21
-0.618
  0
LINE
  8
0
 10
276.93
 11
276.904
 20
-0.618
 21
-0.431
  0
LINE
  8
0
 10
276.904
 11
276.902
 20
-0.431
 21
-0.243
  0
LINE
  8
0
 10
276.902
 11
276.923
 20
149.757
 21
149.944
  0
LINE
  8
0
 10
276.923
 11
276.967
 20
149.944
 21
150.127
  0
LINE
  8
0
 10
276.967
 11
277.034
 20
150.127
 21
150.303
  0
LINE
  8
0
 10
277.034
 11
277.122
 20
150.303
 21
150.47
  0
LINE
  8
0
 10
277.122
 11
277.232
 20
150.47
 21
150.624
  0
LINE
  8
0
 10
277.232
 11
277.358
 20
150.624
 21
150.763
  0
LINE
  8
0
 10
277.358
 11
277.502
 20
150.763
 21
150.885
  0
LINE
  8
0
 10
277.502
 11
277.659
 20
150.885
 21
150.988
  0
LINE
  8
0
 10
277.659
 11
277.828
 20
150.988
 21
151.07
  0
LINE
  8
0
 10
277.828
 11
278.006
 20
151.07
 21
151.131
  0
LINE
  8
0
 10
278.006
 11
278.191
 20
151.131
 21
151.17
  0
LINE
  8
0
 10
278.191
 11
278.379
 20
151.17
 21
151.183
  0
LINE
  8
0
 10
278.379
 11
278.568
 20
151.183
 21
151.174
  0
LINE
  8
0
 10
278.568
 11
278.753
 20
151.174
 21
151.142
  0
LINE
  8
0
 10
278.753
 11
278.933
 20
151.142
 21
151.086
  0
LINE
  8
0
 10
278.933
 11
279.105
 20
151.086
 21
151.009
  0
LINE
  8
0
 10
279.105
 11
279.265
 20
151.009
 21
150.909
  0
LINE
  8
0
 10
279.265
 11
279.412
 20
150.909
 21
150.791
  0
LINE
  8
0
 10
279.412
 11
279.542
 20
150.791
 21
150.656
  0
LINE
  8
0
 10
279.542
 11
279.655
 20
150.656
 21
150.505
  0
LINE
  8
0
 10
279.655
 11
279.749
 20
150.505
 21
150.342
  0
LINE
  8
0
 10
279.749
 11
279.82
 20
150.342
 21
150.168
  0
LINE
  8
0
 10
279.82
 11
279.87
 20
150.168
 21
149.985
  0
LINE
  8
0
 10
279.87
 11
279.896
 20
149.985
 21
149.799
  0
LINE
  8
0
 10
279.896
 11
279.898
 20
149.799
 21
149.611
  0
LINE
  8
0
 10
279.898
 11
279.877
 20
149.611
 21
149.423
  0
LINE
  8
0
 10
279.877
 11
279.833
 20
149.423
 21
149.24
  0
LINE
  8
0
 10
279.833
 11
279.766
 20
149.24
 21
149.064
  0
LINE
  8
0
 10
279.766
 11
279.678
 20
149.064
 21
148.898
  0
LINE
  8
0
 10
279.678
 11
279.569
 20
148.898
 21
148.744
  0
LINE
  8
0
 10
279.569
 11
279.443
 20
148.744
 21
148.604
  0
LINE
  8
0
 10
279.443
 11
279.298
 20
148.604
 21
148.483
  0
LINE
  8
0
 10
279.298
 11
279.141
 20
148.483
 21
148.379
  0
LINE
  8
0
 10
279.141
 11
278.972
 20
148.379
 21
148.297
  0
LINE
  8
0
 10
278.972
 11
278.794
 20
148.297
 21
148.236
  0
LINE
  8
0
 10
278.794
 11
278.609
 20
148.236
 21
148.198
  0
LINE
  8
0
 10
278.609
 11
278.421
 20
148.198
 21
148.184
  0
LINE
  8
0
 10
278.421
 11
278.233
 20
148.184
 21
148.193
  0
LINE
  8
0
 10
278.233
 11
278.048
 20
148.193
 21
148.226
  0
LINE
  8
0
 10
278.048
 11
277.868
 20
148.226
 21
148.282
  0
LINE
  8
0
 10
277.868
 11
277.695
 20
148.282
 21
148.359
  0
LINE
  8
0
 10
277.695
 11
277.535
 20
148.359
 21
148.458
  0
LINE
  8
0
 10
277.535
 11
277.389
 20
148.458
 21
148.577
  0
LINE
  8
0
 10
277.389
 11
277.258
 20
148.577
 21
148.711
  0
LINE
  8
0
 10
277.258
 11
277.145
 20
148.711
 21
148.862
  0
LINE
  8
0
 10
277.145
 11
277.051
 20
148.862
 21
149.026
  0
LINE
  8
0
 10
277.051
 11
276.981
 20
149.026
 21
149.2
  0
LINE
  8
0
 10
276.981
 11
276.93
 20
149.2
 21
149.382
  0
LINE
  8
0
 10
276.93
 11
276.904
 20
149.382
 21
149.569
  0
LINE
  8
0
 10
276.904
 11
276.902
 20
149.569
 21
149.757
  0
LINE
  8
0
 10
279.448
 11
280.055
 20
16.306
 21
19.754
  0
LINE
  8
0
 10
280.055
 11
280.856
 20
19.754
 21
19.613
  0
LINE
  8
0
 10
280.856
 11
281.726
 20
19.613
 21
24.545
  0
LINE
  8
0
 10
281.726
 11
280.925
 20
24.545
 21
24.686
  0
LINE
  8
0
 10
280.925
 11
281.533
 20
24.686
 21
28.134
  0
LINE
  8
0
 10
281.533
 11
282.334
 20
28.134
 21
27.993
  0
LINE
  8
0
 10
282.334
 11
282.504
 20
27.993
 21
28.958
  0
LINE
  8
0
 10
282.504
 11
296.262
 20
28.958
 21
26.532
  0
LINE
  8
0
 10
296.262
 11
296.091
 20
26.532
 21
25.567
  0
LINE
  8
0
 10
296.091
 11
296.892
 20
25.567
 21
25.426
  0
LINE
  8
0
 10
296.892
 11
296.284
 20
25.426
 21
21.978
  0
LINE
  8
0
 10
296.284
 11
295.484
 20
21.978
 21
22.119
  0
LINE
  8
0
 10
295.484
 11
294.614
 20
22.119
 21
17.187
  0
LINE
  8
0
 10
294.614
 11
295.415
 20
17.187
 21
17.046
  0
LINE
  8
0
 10
295.415
 11
294.807
 20
17.046
 21
13.598
  0
LINE
  8
0
 10
294.807
 11
294.006
 20
13.598
 21
13.739
  0
LINE
  8
0
 10
294.006
 11
293.836
 20
13.739
 21
12.774
  0
LINE
  8
0
 10
293.836
 11
280.078
 20
12.774
 21
15.2
  0
LINE
  8
0
 10
280.078
 11
280.248
 20
15.2
 21
16.165
  0
LINE
  8
0
 10
280.248
 11
279.448
 20
16.165
 21
16.306
  0
LINE
  8
0
 10
287.266
 11
287.287
 20
102.295
 21
102.482
  0
LINE
  8
0
 10
287.287
 11
287.331
 20
102.482
 21
102.665
  0
LINE
  8
0
 10
287.331
 11
287.398
 20
102.665
 21
102.841
  0
LINE
  8
0
 10
287.398
 11
287.486
 20
102.841
 21
103.007
  0
LINE
  8
0
 10
287.486
 11
287.596
 20
103.007
 21
103.162
  0
LINE
  8
0
 10
287.596
 11
287.722
 20
103.162
 21
103.301
  0
LINE
  8
0
 10
287.722
 11
287.866
 20
103.301
 21
103.423
  0
LINE
  8
0
 10
287.866
 11
288.023
 20
103.423
 21
103.526
  0
LINE
  8
0
 10
288.023
 11
288.192
 20
103.526
 21
103.608
  0
LINE
  8
0
 10
288.192
 11
288.37
 20
103.608
 21
103.669
  0
LINE
  8
0
 10
288.37
 11
288.555
 20
103.669
 21
103.707
  0
LINE
  8
0
 10
288.555
 11
288.743
 20
103.707
 21
103.721
  0
LINE
  8
0
 10
288.743
 11
288.931
 20
103.721
 21
103.712
  0
LINE
  8
0
 10
288.931
 11
289.117
 20
103.712
 21
103.679
  0
LINE
  8
0
 10
289.117
 11
289.297
 20
103.679
 21
103.623
  0
LINE
  8
0
 10
289.297
 11
289.469
 20
103.623
 21
103.546
  0
LINE
  8
0
 10
289.469
 11
289.629
 20
103.546
 21
103.447
  0
LINE
  8
0
 10
289.629
 11
289.776
 20
103.447
 21
103.329
  0
LINE
  8
0
 10
289.776
 11
289.906
 20
103.329
 21
103.194
  0
LINE
  8
0
 10
289.906
 11
290.019
 20
103.194
 21
103.043
  0
LINE
  8
0
 10
290.019
 11
290.113
 20
103.043
 21
102.879
  0
LINE
  8
0
 10
290.113
 11
290.184
 20
102.879
 21
102.705
  0
LINE
  8
0
 10
290.184
 11
290.234
 20
102.705
 21
102.523
  0
LINE
  8
0
 10
290.234
 11
290.26
 20
102.523
 21
102.336
  0
LINE
  8
0
 10
290.26
 11
290.262
 20
102.336
 21
102.148
  0
LINE
  8
0
 10
290.262
 11
290.241
 20
102.148
 21
101.961
  0
LINE
  8
0
 10
290.241
 11
290.197
 20
101.961
 21
101.778
  0
LINE
  8
0
 10
290.197
 11
290.13
 20
101.778
 21
101.602
  0
LINE
  8
0
 10
290.13
 11
290.042
 20
101.602
 21
101.436
  0
LINE
  8
0
 10
290.042
 11
289.933
 20
101.436
 21
101.281
  0
LINE
  8
0
 10
289.933
 11
289.806
 20
101.281
 21
101.142
  0
LINE
  8
0
 10
289.806
 11
289.662
 20
101.142
 21
101.02
  0
LINE
  8
0
 10
289.662
 11
289.505
 20
101.02
 21
100.917
  0
LINE
  8
0
 10
289.505
 11
289.336
 20
100.917
 21
100.835
  0
LINE
  8
0
 10
289.336
 11
289.158
 20
100.835
 21
100.774
  0
LINE
  8
0
 10
289.158
 11
288.973
 20
100.774
 21
100.736
  0
LINE
  8
0
 10
288.973
 11
288.785
 20
100.736
 21
100.722
  0
LINE
  8
0
 10
288.785
 11
288.597
 20
100.722
 21
100.731
  0
LINE
  8
0
 10
288.597
 11
288.412
 20
100.731
 21
100.764
  0
LINE
  8
0
 10
288.412
 11
288.232
 20
100.764
 21
100.82
  0
LINE
  8
0
 10
288.232
 11
288.059
 20
100.82
 21
100.897
  0
LINE
  8
0
 10
288.059
 11
287.899
 20
100.897
 21
100.996
  0
LINE
  8
0
 10
287.899
 11
287.752
 20
100.996
 21
101.114
  0
LINE
  8
0
 10
287.752
 11
287.622
 20
101.114
 21
101.249
  0
LINE
  8
0
 10
287.622
 11
287.509
 20
101.249
 21
101.4
  0
LINE
  8
0
 10
287.509
 11
287.415
 20
101.4
 21
101.564
  0
LINE
  8
0
 10
287.415
 11
287.344
 20
101.564
 21
101.738
  0
LINE
  8
0
 10
287.344
 11
287.294
 20
101.738
 21
101.92
  0
LINE
  8
0
 10
287.294
 11
287.268
 20
101.92
 21
102.106
  0
LINE
  8
0
 10
287.268
 11
287.266
 20
102.106
 21
102.295
  0
LINE
  8
0
 10
287.266
 11
287.287
 20
252.295
 21
252.482
  0
LINE
  8
0
 10
287.287
 11
287.331
 20
252.482
 21
252.665
  0
LINE
  8
0
 10
287.331
 11
287.398
 20
252.665
 21
252.841
  0
LINE
  8
0
 10
287.398
 11
287.486
 20
252.841
 21
253.007
  0
LINE
  8
0
 10
287.486
 11
287.596
 20
253.007
 21
253.162
  0
LINE
  8
0
 10
287.596
 11
287.722
 20
253.162
 21
253.301
  0
LINE
  8
0
 10
287.722
 11
287.866
 20
253.301
 21
253.423
  0
LINE
  8
0
 10
287.866
 11
288.023
 20
253.423
 21
253.526
  0
LINE
  8
0
 10
288.023
 11
288.192
 20
253.526
 21
253.608
  0
LINE
  8
0
 10
288.192
 11
288.37
 20
253.608
 21
253.669
  0
LINE
  8
0
 10
288.37
 11
288.555
 20
253.669
 21
253.707
  0
LINE
  8
0
 10
288.555
 11
288.743
 20
253.707
 21
253.721
  0
LINE
  8
0
 10
288.743
 11
288.931
 20
253.721
 21
253.712
  0
LINE
  8
0
 10
288.931
 11
289.117
 20
253.712
 21
253.679
  0
LINE
  8
0
 10
289.117
 11
289.297
 20
253.679
 21
253.623
  0
LINE
  8
0
 10
289.297
 11
289.469
 20
253.623
 21
253.546
  0
LINE
  8
0
 10
289.469
 11
289.629
 20
253.546
 21
253.447
  0
LINE
  8
0
 10
289.629
 11
289.776
 20
253.447
 21
253.329
  0
LINE
  8
0
 10
289.776
 11
289.906
 20
253.329
 21
253.194
  0
LINE
  8
0
 10
289.906
 11
290.019
 20
253.194
 21
253.043
  0
LINE
  8
0
 10
290.019
 11
290.113
 20
253.043
 21
252.879
  0
LINE
  8
0
 10
290.113
 11
290.184
 20
252.879
 21
252.705
  0
LINE
  8
0
 10
290.184
 11
290.234
 20
252.705
 21
252.523
  0
LINE
  8
0
 10
290.234
 11
290.26
 20
252.523
 21
252.336
  0
LINE
  8
0
 10
290.26
 11
290.262
 20
252.336
 21
252.148
  0
LINE
  8
0
 10
290.262
 11
290.241
 20
252.148
 21
251.961
  0
LINE
  8
0
 10
290.241
 11
290.197
 20
251.961
 21
251.778
  0
LINE
  8
0
 10
290.197
 11
290.13
 20
251.778
 21
251.602
  0
LINE
  8
0
 10
290.13
 11
290.042
 20
251.602
 21
251.436
  0
LINE
  8
0
 10
290.042
 11
289.933
 20
251.436
 21
251.281
  0
LINE
  8
0
 10
289.933
 11
289.806
 20
251.281
 21
251.142
  0
LINE
  8
0
 10
289.806
 11
289.662
 20
251.142
 21
251.02
  0
LINE
  8
0
 10
289.662
 11
289.505
 20
251.02
 21
250.917
  0
LINE
  8
0
 10
289.505
 11
289.336
 20
250.917
 21
250.835
  0
LINE
  8
0
 10
289.336
 11
289.158
 20
250.835
 21
250.774
  0
LINE
  8
0
 10
289.158
 11
288.973
 20
250.774
 21
250.736
  0
LINE
  8
0
 10
288.973
 11
288.785
 20
250.736
 21
250.722
  0
LINE
  8
0
 10
288.785
 11
288.597
 20
250.722
 21
250.731
  0
LINE
  8
0
 10
288.597
 11
288.412
 20
250.731
 21
250.764
  0
LINE
  8
0
 10
288.412
 11
288.232
 20
250.764
 21
250.82
  0
LINE
  8
0
 10
288.232
 11
288.059
 20
250.82
 21
250.897
  0
LINE
  8
0
 10
288.059
 11
287.899
 20
250.897
 21
250.996
  0
LINE
  8
0
 10
287.899
 11
287.752
 20
250.996
 21
251.114
  0
LINE
  8
0
 10
287.752
 11
287.622
 20
251.114
 21
251.249
  0
LINE
  8
0
 10
287.622
 11
287.509
 20
251.249
 21
251.4
  0
LINE
  8
0
 10
287.509
 11
287.415
 20
251.4
 21
251.564
  0
LINE
  8
0
 10
287.415
 11
287.344
 20
251.564
 21
251.738
  0
LINE
  8
0
 10
287.344
 11
287.294
 20
251.738
 21
251.92
  0
LINE
  8
0
 10
287.294
 11
287.268
 20
251.92
 21
252.106
  0
LINE
  8
0
 10
287.268
 11
287.266
 20
252.106
 21
252.295
  0
LINE
  8
0
 10
303.108
 11
303.909
 20
25.426
 21
25.567
  0
LINE
  8
0
 10
303.909
 11
303.738
 20
25.567
 21
26.532
  0
LINE
  8
0
 10
303.738
 11
317.496
 20
26.532
 21
28.958
  0
LINE
  8
0
 10
317.496
 11
317.666
 20
28.958
 21
27.993
  0
LINE
  8
0
 10
317.666
 11
318.467
 20
27.993
 21
28.134
  0
LINE
  8
0
 10
318.467
 11
319.075
 20
28.134
 21
24.686
  0
LINE
  8
0
 10
319.075
 11
318.274
 20
24.686
 21
24.545
  0
LINE
  8
0
 10
318.274
 11
319.144
 20
24.545
 21
19.613
  0
LINE
  8
0
 10
319.144
 11
319.945
 20
19.613
 21
19.754
  0
LINE
  8
0
 10
319.945
 11
320.552
 20
19.754
 21
16.306
  0
LINE
  8
0
 10
320.552
 11
319.752
 20
16.306
 21
16.165
  0
LINE
  8
0
 10
319.752
 11
319.922
 20
16.165
 21
15.2
  0
LINE
  8
0
 10
319.922
 11
306.164
 20
15.2
 21
12.774
  0
LINE
  8
0
 10
306.164
 11
305.994
 20
12.774
 21
13.739
  0
LINE
  8
0
 10
305.994
 11
305.193
 20
13.739
 21
13.598
  0
LINE
  8
0
 10
305.193
 11
304.585
 20
13.598
 21
17.046
  0
LINE
  8
0
 10
304.585
 11
305.386
 20
17.046
 21
17.187
  0
LINE
  8
0
 10
305.386
 11
304.516
 20
17.187
 21
22.119
  0
LINE
  8
0
 10
304.516
 11
303.716
 20
22.119
 21
21.978
  0
LINE
  8
0
 10
303.716
 11
303.108
 20
21.978
 21
25.426
  0
LINE
  8
0
 10
309.738
 11
309.74
 20
102.148
 21
102.336
  0
LINE
  8
0
 10
309.74
 11
309.766
 20
102.336
 21
102.523
  0
LINE
  8
0
 10
309.766
 11
309.816
 20
102.523
 21
102.705
  0
LINE
  8
0
 10
309.816
 11
309.887
 20
102.705
 21
102.879
  0
LINE
  8
0
 10
309.887
 11
309.981
 20
102.879
 21
103.043
  0
LINE
  8
0
 10
309.981
 11
310.094
 20
103.043
 21
103.194
  0
LINE
  8
0
 10
310.094
 11
310.224
 20
103.194
 21
103.329
  0
LINE
  8
0
 10
310.224
 11
310.371
 20
103.329
 21
103.447
  0
LINE
  8
0
 10
310.371
 11
310.531
 20
103.447
 21
103.546
  0
LINE
  8
0
 10
310.531
 11
310.703
 20
103.546
 21
103.623
  0
LINE
  8
0
 10
310.703
 11
310.883
 20
103.623
 21
103.679
  0
LINE
  8
0
 10
310.883
 11
311.069
 20
103.679
 21
103.712
  0
LINE
  8
0
 10
311.069
 11
311.257
 20
103.712
 21
103.721
  0
LINE
  8
0
 10
311.257
 11
311.445
 20
103.721
 21
103.707
  0
LINE
  8
0
 10
311.445
 11
311.63
 20
103.707
 21
103.669
  0
LINE
  8
0
 10
311.63
 11
311.808
 20
103.669
 21
103.608
  0
LINE
  8
0
 10
311.808
 11
311.977
 20
103.608
 21
103.526
  0
LINE
  8
0
 10
311.977
 11
312.134
 20
103.526
 21
103.423
  0
LINE
  8
0
 10
312.134
 11
312.278
 20
103.423
 21
103.301
  0
LINE
  8
0
 10
312.278
 11
312.404
 20
103.301
 21
103.162
  0
LINE
  8
0
 10
312.404
 11
312.514
 20
103.162
 21
103.007
  0
LINE
  8
0
 10
312.514
 11
312.602
 20
103.007
 21
102.841
  0
LINE
  8
0
 10
312.602
 11
312.669
 20
102.841
 21
102.665
  0
LINE
  8
0
 10
312.669
 11
312.713
 20
102.665
 21
102.482
  0
LINE
  8
0
 10
312.713
 11
312.734
 20
102.482
 21
102.295
  0
LINE
  8
0
 10
312.734
 11
312.732
 20
102.295
 21
102.106
  0
LINE
  8
0
 10
312.732
 11
312.706
 20
102.106
 21
101.92
  0
LINE
  8
0
 10
312.706
 11
312.656
 20
101.92
 21
101.738
  0
LINE
  8
0
 10
312.656
 11
312.585
 20
101.738
 21
101.564
  0
LINE
  8
0
 10
312.585
 11
312.491
 20
101.564
 21
101.4
  0
LINE
  8
0
 10
312.491
 11
312.378
 20
101.4
 21
101.249
  0
LINE
  8
0
 10
312.378
 11
312.248
 20
101.249
 21
101.114
  0
LINE
  8
0
 10
312.248
 11
312.101
 20
101.114
 21
100.996
  0
LINE
  8
0
 10
312.101
 11
311.941
 20
100.996
 21
100.897
  0
LINE
  8
0
 10
311.941
 11
311.768
 20
100.897
 21
100.82
  0
LINE
  8
0
 10
311.768
 11
311.588
 20
100.82
 21
100.764
  0
LINE
  8
0
 10
311.588
 11
311.403
 20
100.764
 21
100.731
  0
LINE
  8
0
 10
311.403
 11
311.215
 20
100.731
 21
100.722
  0
LINE
  8
0
 10
311.215
 11
311.027
 20
100.722
 21
100.736
  0
LINE
  8
0
 10
311.027
 11
310.842
 20
100.736
 21
100.774
  0
LINE
  8
0
 10
310.842
 11
310.664
 20
100.774
 21
100.835
  0
LINE
  8
0
 10
310.664
 11
310.495
 20
100.835
 21
100.917
  0
LINE
  8
0
 10
310.495
 11
310.338
 20
100.917
 21
101.02
  0
LINE
  8
0
 10
310.338
 11
310.194
 20
101.02
 21
101.142
  0
LINE
  8
0
 10
310.194
 11
310.067
 20
101.142
 21
101.281
  0
LINE
  8
0
 10
310.067
 11
309.958
 20
101.281
 21
101.436
  0
LINE
  8
0
 10
309.958
 11
309.87
 20
101.436
 21
101.602
  0
LINE
  8
0
 10
309.87
 11
309.803
 20
101.602
 21
101.778
  0
LINE
  8
0
 10
309.803
 11
309.759
 20
101.778
 21
101.961
  0
LINE
  8
0
 10
309.759
 11
309.738
 20
101.961
 21
102.148
  0
LINE
  8
0
 10
309.738
 11
309.74
 20
252.148
 21
252.336
  0
LINE
  8
0
 10
309.74
 11
309.766
 20
252.336
 21
252.523
  0
LINE
  8
0
 10
309.766
 11
309.816
 20
252.523
 21
252.705
  0
LINE
  8
0
 10
309.816
 11
309.887
 20
252.705
 21
252.879
  0
LINE
  8
0
 10
309.887
 11
309.981
 20
252.879
 21
253.043
  0
LINE
  8
0
 10
309.981
 11
310.094
 20
253.043
 21
253.194
  0
LINE
  8
0
 10
310.094
 11
310.224
 20
253.194
 21
253.329
  0
LINE
  8
0
 10
310.224
 11
310.371
 20
253.329
 21
253.447
  0
LINE
  8
0
 10
310.371
 11
310.531
 20
253.447
 21
253.546
  0
LINE
  8
0
 10
310.531
 11
310.703
 20
253.546
 21
253.623
  0
LINE
  8
0
 10
310.703
 11
310.883
 20
253.623
 21
253.679
  0
LINE
  8
0
 10
310.883
 11
311.069
 20
253.679
 21
253.712
  0
LINE
  8
0
 10
311.069
 11
311.257
 20
253.712
 21
253.721
  0
LINE
  8
0
 10
311.257
 11
311.445
 20
253.721
 21
253.707
  0
LINE
  8
0
 10
311.445
 11
311.63
 20
253.707
 21
253.669
  0
LINE
  8
0
 10
311.63
 11
311.808
 20
253.669
 21
253.608
  0
LINE
  8
0
 10
311.808
 11
311.977
 20
253.608
 21
253.526
  0
LINE
  8
0
 10
311.977
 11
312.134
 20
253.526
 21
253.423
  0
LINE
  8
0
 10
312.134
 11
312.278
 20
253.423
 21
253.301
  0
LINE
  8
0
 10
312.278
 11
312.404
 20
253.301
 21
253.162
  0
LINE
  8
0
 10
312.404
 11
312.514
 20
253.162
 21
253.007
  0
LINE
  8
0
 10
312.514
 11
312.602
 20
253.007
 21
252.841
  0
LINE
  8
0
 10
312.602
 11
312.669
 20
252.841
 21
252.665
  0
LINE
  8
0
 10
312.669
 11
312.713
 20
252.665
 21
252.482
  0
LINE
  8
0
 10
312.713
 11
312.734
 20
252.482
 21
252.295
  0
LINE
  8
0
 10
312.734
 11
312.732
 20
252.295
 21
252.106
  0
LINE
  8
0
 10
312.732
 11
312.706
 20
252.106
 21
251.92
  0
LINE
  8
0
 10
312.706
 11
312.656
 20
251.92
 21
251.738
  0
LINE
  8
0
 10
312.656
 11
312.585
 20
251.738
 21
251.564
  0
LINE
  8
0
 10
312.585
 11
312.491
 20
251.564
 21
251.4
  0
LINE
  8
0
 10
312.491
 11
312.378
 20
251.4
 21
251.249
  0
LINE
  8
0
 10
312.378
 11
312.248
 20
251.249
 21
251.114
  0
LINE
  8
0
 10
312.248
 11
312.101
 20
251.114
 21
250.996
  0
LINE
  8
0
 10
312.101
 11
311.941
 20
250.996
 21
250.897
  0
LINE
  8
0
 10
311.941
 11
311.768
 20
250.897
 21
250.82
  0
LINE
  8
0
 10
311.768
 11
311.588
 20
250.82
 21
250.764
  0
LINE
  8
0
 10
311.588
 11
311.403
 20
250.764
 21
250.731
  0
LINE
  8
0
 10
311.403
 11
311.215
 20
250.731
 21
250.722
  0
LINE
  8
0
 10
311.215
 11
311.027
 20
250.722
 21
250.736
  0
LINE
  8
0
 10
311.027
 11
310.842
 20
250.736
 21
250.774
  0
LINE
  8
0
 10
310.842
 11
310.664
 20
250.774
 21
250.835
  0
LINE
  8
0
 10
310.664
 11
310.495
 20
250.835
 21
250.917
  0
LINE
  8
0
 10
310.495
 11
310.338
 20
250.917
 21
251.02
  0
LINE
  8
0
 10
310.338
 11
310.194
 20
251.02
 21
251.142
  0
LINE
  8
0
 10
310.194
 11
310.067
 20
251.142
 21
251.281
  0
LINE
  8
0
 10
310.067
 11
309.958
 20
251.281
 21
251.436
  0
LINE
  8
0
 10
309.958
 11
309.87
 20
251.436
 21
251.602
  0
LINE
  8
0
 10
309.87
 11
309.803
 20
251.602
 21
251.778
  0
LINE
  8
0
 10
309.803
 11
309.759
 20
251.778
 21
251.961
  0
LINE
  8
0
 10
309.759
 11
309.738
 20
251.961
 21
252.148
  0
LINE
  8
0
 10
313.571
 11
314.372
 20
75.503
 21
75.645
  0
LINE
  8
0
 10
314.372
 11
314.201
 20
75.645
 21
76.61
  0
LINE
  8
0
 10
314.201
 11
327.959
 20
76.61
 21
79.036
  0
LINE
  8
0
 10
327.959
 11
328.129
 20
79.036
 21
78.071
  0
LINE
  8
0
 10
328.129
 11
328.93
 20
78.071
 21
78.212
  0
LINE
  8
0
 10
328.93
 11
329.538
 20
78.212
 21
74.764
  0
LINE
  8
0
 10
329.538
 11
328.737
 20
74.764
 21
74.623
  0
LINE
  8
0
 10
328.737
 11
329.607
 20
74.623
 21
69.691
  0
LINE
  8
0
 10
329.607
 11
330.408
 20
69.691
 21
69.832
  0
LINE
  8
0
 10
330.408
 11
331.016
 20
69.832
 21
66.384
  0
LINE
  8
0
 10
331.016
 11
330.215
 20
66.384
 21
66.243
  0
LINE
  8
0
 10
330.215
 11
330.385
 20
66.243
 21
65.278
  0
LINE
  8
0
 10
330.385
 11
316.627
 20
65.278
 21
62.852
  0
LINE
  8
0
 10
316.627
 11
316.457
 20
62.852
 21
63.817
  0
LINE
  8
0
 10
316.457
 11
315.656
 20
63.817
 21
63.676
  0
LINE
  8
0
 10
315.656
 11
315.049
 20
63.676
 21
67.124
  0
LINE
  8
0
 10
315.049
 11
315.849
 20
67.124
 21
67.265
  0
LINE
  8
0
 10
315.849
 11
314.98
 20
67.265
 21
72.197
  0
LINE
  8
0
 10
314.98
 11
314.179
 20
72.197
 21
72.056
  0
LINE
  8
0
 10
314.179
 11
313.571
 20
72.056
 21
75.503
  0
LINE
  8
0
 10
316.87
 11
317.671
 20
56.792
 21
56.933
  0
LINE
  8
0
 10
317.671
 11
317.501
 20
56.933
 21
57.898
  0
LINE
  8
0
 10
317.501
 11
331.258
 20
57.898
 21
60.324
  0
LINE
  8
0
 10
331.258
 11
331.429
 20
60.324
 21
59.359
  0
LINE
  8
0
 10
331.429
 11
332.229
 20
59.359
 21
59.5
  0
LINE
  8
0
 10
332.229
 11
332.837
 20
59.5
 21
56.053
  0
LINE
  8
0
 10
332.837
 11
332.037
 20
56.053
 21
55.911
  0
LINE
  8
0
 10
332.037
 11
332.906
 20
55.911
 21
50.979
  0
LINE
  8
0
 10
332.906
 11
333.707
 20
50.979
 21
51.121
  0
LINE
  8
0
 10
333.707
 11
334.315
 20
51.121
 21
47.673
  0
LINE
  8
0
 10
334.315
 11
333.514
 20
47.673
 21
47.532
  0
LINE
  8
0
 10
333.514
 11
333.684
 20
47.532
 21
46.567
  0
LINE
  8
0
 10
333.684
 11
319.927
 20
46.567
 21
44.141
  0
LINE
  8
0
 10
319.927
 11
319.756
 20
44.141
 21
45.106
  0
LINE
  8
0
 10
319.756
 11
318.956
 20
45.106
 21
44.965
  0
LINE
  8
0
 10
318.956
 11
318.348
 20
44.965
 21
48.412
  0
LINE
  8
0
 10
318.348
 11
319.148
 20
48.412
 21
48.554
  0
LINE
  8
0
 10
319.148
 11
318.279
 20
48.554
 21
53.486
  0
LINE
  8
0
 10
318.279
 11
317.478
 20
53.486
 21
53.344
  0
LINE
  8
0
 10
317.478
 11
316.87
 20
53.344
 21
56.792
  0
LINE
  8
0
 10
320.102
 11
320.104
 20
-0.389
 21
-0.201
  0
LINE
  8
0
 10
320.104
 11
320.13
 20
-0.201
 21
-0.015
  0
LINE
  8
0
 10
320.13
 11
320.18
 20
-0.015
 21
0.168
  0
LINE
  8
0
 10
320.18
 11
320.251
 20
0.168
 21
0.342
  0
LINE
  8
0
 10
320.251
 11
320.345
 20
0.342
 21
0.505
  0
LINE
  8
0
 10
320.345
 11
320.458
 20
0.505
 21
0.656
  0
LINE
  8
0
 10
320.458
 11
320.588
 20
0.656
 21
0.791
  0
LINE
  8
0
 10
320.588
 11
320.735
 20
0.791
 21
0.909
  0
LINE
  8
0
 10
320.735
 11
320.895
 20
0.909
 21
1.009
  0
LINE
  8
0
 10
320.895
 11
321.067
 20
1.009
 21
1.086
  0
LINE
  8
0
 10
321.067
 11
321.247
 20
1.086
 21
1.142
  0
LINE
  8
0
 10
321.247
 11
321.432
 20
1.142
 21
1.174
  0
LINE
  8
0
 10
321.432
 11
321.621
 20
1.174
 21
1.183
  0
LINE
  8
0
 10
321.621
 11
321.809
 20
1.183
 21
1.17
  0
LINE
  8
0
 10
321.809
 11
321.994
 20
1.17
 21
1.131
  0
LINE
  8
0
 10
321.994
 11
322.172
 20
1.131
 21
1.07
  0
LINE
  8
0
 10
322.172
 11
322.341
 20
1.07
 21
0.988
  0
LINE
  8
0
 10
322.341
 11
322.498
 20
0.988
 21
0.885
  0
LINE
  8
0
 10
322.498
 11
322.642
 20
0.885
 21
0.763
  0
LINE
  8
0
 10
322.642
 11
322.768
 20
0.763
 21
0.624
  0
LINE
  8
0
 10
322.768
 11
322.878
 20
0.624
 21
0.47
  0
LINE
  8
0
 10
322.878
 11
322.966
 20
0.47
 21
0.303
  0
LINE
  8
0
 10
322.966
 11
323.033
 20
0.303
 21
0.127
  0
LINE
  8
0
 10
323.033
 11
323.077
 20
0.127
 21
-0.056
  0
LINE
  8
0
 10
323.077
 11
323.098
 20
-0.056
 21
-0.243
  0
LINE
  8
0
 10
323.098
 11
323.096
 20
-0.243
 21
-0.431
  0
LINE
  8
0
 10
323.096
 11
323.07
 20
-0.431
 21
-0.618
  0
LINE
  8
0
 10
323.07
 11
323.019
 20
-0.618
 21
-0.8
  0
LINE
  8
0
 10
323.019
 11
322.949
 20
-0.8
 21
-0.974
  0
LINE
  8
0
 10
322.949
 11
322.855
 20
-0.974
 21
-1.138
  0
LINE
  8
0
 10
322.855
 11
322.742
 20
-1.138
 21
-1.289
  0
LINE
  8
0
 10
322.742
 11
322.611
 20
-1.289
 21
-1.423
  0
LINE
  8
0
 10
322.611
 11
322.465
 20
-1.423
 21
-1.542
  0
LINE
  8
0
 10
322.465
 11
322.305
 20
-1.542
 21
-1.641
  0
LINE
  8
0
 10
322.305
 11
322.132
 20
-1.641
 21
-1.718
  0
LINE
  8
0
 10
322.132
 11
321.952
 20
-1.718
 21
-1.774
  0
LINE
  8
0
 10
321.952
 11
321.767
 20
-1.774
 21
-1.807
  0
LINE
  8
0
 10
321.767
 11
321.579
 20
-1.807
 21
-1.816
  0
LINE
  8
0
 10
321.579
 11
321.391
 20
-1.816
 21
-1.802
  0
LINE
  8
0
 10
321.391
 11
321.206
 20
-1.802
 21
-1.764
  0
LINE
  8
0
 10
321.206
 11
321.028
 20
-1.764
 21
-1.703
  0
LINE
  8
0
 10
321.028
 11
320.859
 20
-1.703
 21
-1.621
  0
LINE
  8
0
 10
320.859
 11
320.702
 20
-1.621
 21
-1.517
  0
LINE
  8
0
 10
320.702
 11
320.557
 20
-1.517
 21
-1.396
  0
LINE
  8
0
 10
320.557
 11
320.431
 20
-1.396
 21
-1.256
  0
LINE
  8
0
 10
320.431
 11
320.322
 20
-1.256
 21
-1.102
  0
LINE
  8
0
 10
320.322
 11
320.234
 20
-1.102
 21
-0.936
  0
LINE
  8
0
 10
320.234
 11
320.167
 20
-0.936
 21
-0.76
  0
LINE
  8
0
 10
320.167
 11
320.123
 20
-0.76
 21
-0.577
  0
LINE
  8
0
 10
320.123
 11
320.102
 20
-0.577
 21
-0.389
  0
LINE
  8
0
 10
320.102
 11
320.104
 20
149.611
 21
149.799
  0
LINE
  8
0
 10
320.104
 11
320.13
 20
149.799
 21
149.985
  0
LINE
  8
0
 10
320.13
 11
320.18
 20
149.985
 21
150.168
  0
LINE
  8
0
 10
320.18
 11
320.251
 20
150.168
 21
150.342
  0
LINE
  8
0
 10
320.251
 11
320.345
 20
150.342
 21
150.505
  0
LINE
  8
0
 10
320.345
 11
320.458
 20
150.505
 21
150.656
  0
LINE
  8
0
 10
320.458
 11
320.588
 20
150.656
 21
150.791
  0
LINE
  8
0
 10
320.588
 11
320.735
 20
150.791
 21
150.909
  0
LINE
  8
0
 10
320.735
 11
320.895
 20
150.909
 21
151.009
  0
LINE
  8
0
 10
320.895
 11
321.067
 20
151.009
 21
151.086
  0
LINE
  8
0
 10
321.067
 11
321.247
 20
151.086
 21
151.142
  0
LINE
  8
0
 10
321.247
 11
321.432
 20
151.142
 21
151.174
  0
LINE
  8
0
 10
321.432
 11
321.621
 20
151.174
 21
151.183
  0
LINE
  8
0
 10
321.621
 11
321.809
 20
151.183
 21
151.17
  0
LINE
  8
0
 10
321.809
 11
321.994
 20
151.17
 21
151.131
  0
LINE
  8
0
 10
321.994
 11
322.172
 20
151.131
 21
151.07
  0
LINE
  8
0
 10
322.172
 11
322.341
 20
151.07
 21
150.988
  0
LINE
  8
0
 10
322.341
 11
322.498
 20
150.988
 21
150.885
  0
LINE
  8
0
 10
322.498
 11
322.642
 20
150.885
 21
150.763
  0
LINE
  8
0
 10
322.642
 11
322.768
 20
150.763
 21
150.624
  0
LINE
  8
0
 10
322.768
 11
322.878
 20
150.624
 21
150.47
  0
LINE
  8
0
 10
322.878
 11
322.966
 20
150.47
 21
150.303
  0
LINE
  8
0
 10
322.966
 11
323.033
 20
150.303
 21
150.127
  0
LINE
  8
0
 10
323.033
 11
323.077
 20
150.127
 21
149.944
  0
LINE
  8
0
 10
323.077
 11
323.098
 20
149.944
 21
149.757
  0
LINE
  8
0
 10
323.098
 11
323.096
 20
149.757
 21
149.569
  0
LINE
  8
0
 10
323.096
 11
323.07
 20
149.569
 21
149.382
  0
LINE
  8
0
 10
323.07
 11
323.019
 20
149.382
 21
149.2
  0
LINE
  8
0
 10
323.019
 11
322.949
 20
149.2
 21
149.026
  0
LINE
  8
0
 10
322.949
 11
322.855
 20
149.026
 21
148.862
  0
LINE
  8
0
 10
322.855
 11
322.742
 20
148.862
 21
148.711
  0
LINE
  8
0
 10
322.742
 11
322.611
 20
148.711
 21
148.577
  0
LINE
  8
0
 10
322.611
 11
322.465
 20
148.577
 21
148.458
  0
LINE
  8
0
 10
322.465
 11
322.305
 20
148.458
 21
148.359
  0
LINE
  8
0
 10
322.305
 11
322.132
 20
148.359
 21
148.282
  0
LINE
  8
0
 10
322.132
 11
321.952
 20
148.282
 21
148.226
  0
LINE
  8
0
 10
321.952
 11
321.767
 20
148.226
 21
148.193
  0
LINE
  8
0
 10
321.767
 11
321.579
 20
148.193
 21
148.184
  0
LINE
  8
0
 10
321.579
 11
321.391
 20
148.184
 21
148.198
  0
LINE
  8
0
 10
321.391
 11
321.206
 20
148.198
 21
148.236
  0
LINE
  8
0
 10
321.206
 11
321.028
 20
148.236
 21
148.297
  0
LINE
  8
0
 10
321.028
 11
320.859
 20
148.297
 21
148.379
  0
LINE
  8
0
 10
320.859
 11
320.702
 20
148.379
 21
148.483
  0
LINE
  8
0
 10
320.702
 11
320.557
 20
148.483
 21
148.604
  0
LINE
  8
0
 10
320.557
 11
320.431
 20
148.604
 21
148.744
  0
LINE
  8
0
 10
320.431
 11
320.322
 20
148.744
 21
148.898
  0
LINE
  8
0
 10
320.322
 11
320.234
 20
148.898
 21
149.064
  0
LINE
  8
0
 10
320.234
 11
320.167
 20
149.064
 21
149.24
  0
LINE
  8
0
 10
320.167
 11
320.123
 20
149.24
 21
149.423
  0
LINE
  8
0
 10
320.123
 11
320.102
 20
149.423
 21
149.611
  0
LINE
  8
0
 10
320.17
 11
320.97
 20
38.081
 21
38.222
  0
LINE
  8
0
 10
320.97
 11
320.8
 20
38.222
 21
39.187
  0
LINE
  8
0
 10
320.8
 11
334.558
 20
39.187
 21
41.613
  0
LINE
  8
0
 10
334.558
 11
334.728
 20
41.613
 21
40.648
  0
LINE
  8
0
 10
334.728
 11
335.529
 20
40.648
 21
40.789
  0
LINE
  8
0
 10
335.529
 11
336.137
 20
40.789
 21
37.341
  0
LINE
  8
0
 10
336.137
 11
335.336
 20
37.341
 21
37.2
  0
LINE
  8
0
 10
335.336
 11
336.206
 20
37.2
 21
32.268
  0
LINE
  8
0
 10
336.206
 11
337.006
 20
32.268
 21
32.409
  0
LINE
  8
0
 10
337.006
 11
337.614
 20
32.409
 21
28.961
  0
LINE
  8
0
 10
337.614
 11
336.813
 20
28.961
 21
28.82
  0
LINE
  8
0
 10
336.813
 11
336.984
 20
28.82
 21
27.855
  0
LINE
  8
0
 10
336.984
 11
323.226
 20
27.855
 21
25.429
  0
LINE
  8
0
 10
323.226
 11
323.056
 20
25.429
 21
26.394
  0
LINE
  8
0
 10
323.056
 11
322.255
 20
26.394
 21
26.253
  0
LINE
  8
0
 10
322.255
 11
321.647
 20
26.253
 21
29.701
  0
LINE
  8
0
 10
321.647
 11
322.448
 20
29.701
 21
29.842
  0
LINE
  8
0
 10
322.448
 11
321.578
 20
29.842
 21
34.774
  0
LINE
  8
0
 10
321.578
 11
320.778
 20
34.774
 21
34.633
  0
LINE
  8
0
 10
320.778
 11
320.17
 20
34.633
 21
38.081
  0
LINE
  8
0
 10
323.469
 11
324.27
 20
19.369
 21
19.511
  0
LINE
  8
0
 10
324.27
 11
324.099
 20
19.511
 21
20.476
  0
LINE
  8
0
 10
324.099
 11
337.857
 20
20.476
 21
22.902
  0
LINE
  8
0
 10
337.857
 11
338.027
 20
22.902
 21
21.936
  0
LINE
  8
0
 10
338.027
 11
338.828
 20
21.936
 21
22.078
  0
LINE
  8
0
 10
338.828
 11
339.436
 20
22.078
 21
18.63
  0
LINE
  8
0
 10
339.436
 11
338.635
 20
18.63
 21
18.489
  0
LINE
  8
0
 10
338.635
 11
339.505
 20
18.489
 21
13.557
  0
LINE
  8
0
 10
339.505
 11
340.306
 20
13.557
 21
13.698
  0
LINE
  8
0
 10
340.306
 11
340.913
 20
13.698
 21
10.25
  0
LINE
  8
0
 10
340.913
 11
340.113
 20
10.25
 21
10.109
  0
LINE
  8
0
 10
340.113
 11
340.283
 20
10.109
 21
9.144
  0
LINE
  8
0
 10
340.283
 11
326.525
 20
9.144
 21
6.718
  0
LINE
  8
0
 10
326.525
 11
326.355
 20
6.718
 21
7.683
  0
LINE
  8
0
 10
326.355
 11
325.554
 20
7.683
 21
7.542
  0
LINE
  8
0
 10
325.554
 11
324.946
 20
7.542
 21
10.99
  0
LINE
  8
0
 10
324.946
 11
325.747
 20
10.99
 21
11.131
  0
LINE
  8
0
 10
325.747
 11
324.877
 20
11.131
 21
16.063
  0
LINE
  8
0
 10
324.877
 11
324.077
 20
16.063
 21
15.922
  0
LINE
  8
0
 10
324.077
 11
323.469
 20
15.922
 21
19.369
  0
LINE
  8
0
 10
331.414
 11
332.215
 20
83.727
 21
83.868
  0
LINE
  8
0
 10
332.215
 11
332.045
 20
83.868
 21
84.833
  0
LINE
  8
0
 10
332.045
 11
345.802
 20
84.833
 21
87.259
  0
LINE
  8
0
 10
345.802
 11
345.972
 20
87.259
 21
86.294
  0
LINE
  8
0
 10
345.972
 11
346.773
 20
86.294
 21
86.435
  0
LINE
  8
0
 10
346.773
 11
347.381
 20
86.435
 21
82.987
  0
LINE
  8
0
 10
347.381
 11
346.58
 20
82.987
 21
82.846
  0
LINE
  8
0
 10
346.58
 11
347.45
 20
82.846
 21
77.914
  0
LINE
  8
0
 10
347.45
 11
348.251
 20
77.914
 21
78.055
  0
LINE
  8
0
 10
348.251
 11
348.859
 20
78.055
 21
74.608
  0
LINE
  8
0
 10
348.859
 11
348.058
 20
74.608
 21
74.466
  0
LINE
  8
0
 10
348.058
 11
348.228
 20
74.466
 21
73.501
  0
LINE
  8
0
 10
348.228
 11
334.47
 20
73.501
 21
71.075
  0
LINE
  8
0
 10
334.47
 11
334.3
 20
71.075
 21
72.04
  0
LINE
  8
0
 10
334.3
 11
333.5
 20
72.04
 21
71.899
  0
LINE
  8
0
 10
333.5
 11
332.892
 20
71.899
 21
75.347
  0
LINE
  8
0
 10
332.892
 11
333.692
 20
75.347
 21
75.488
  0
LINE
  8
0
 10
333.692
 11
332.823
 20
75.488
 21
80.42
  0
LINE
  8
0
 10
332.823
 11
332.022
 20
80.42
 21
80.279
  0
LINE
  8
0
 10
332.022
 11
331.414
 20
80.279
 21
83.727
  0
LINE
  8
0
 10
334.713
 11
335.514
 20
65.016
 21
65.157
  0
LINE
  8
0
 10
335.514
 11
335.344
 20
65.157
 21
66.122
  0
LINE
  8
0
 10
335.344
 11
349.102
 20
66.122
 21
68.548
  0
LINE
  8
0
 10
349.102
 11
349.272
 20
68.548
 21
67.583
  0
LINE
  8
0
 10
349.272
 11
350.072
 20
67.583
 21
67.724
  0
LINE
  8
0
 10
350.072
 11
350.68
 20
67.724
 21
64.276
  0
LINE
  8
0
 10
350.68
 11
349.88
 20
64.276
 21
64.135
  0
LINE
  8
0
 10
349.88
 11
350.749
 20
64.135
 21
59.203
  0
LINE
  8
0
 10
350.749
 11
351.55
 20
59.203
 21
59.344
  0
LINE
  8
0
 10
351.55
 11
352.158
 20
59.344
 21
55.896
  0
LINE
  8
0
 10
352.158
 11
351.357
 20
55.896
 21
55.755
  0
LINE
  8
0
 10
351.357
 11
351.527
 20
55.755
 21
54.79
  0
LINE
  8
0
 10
351.527
 11
337.77
 20
54.79
 21
52.364
  0
LINE
  8
0
 10
337.77
 11
337.6
 20
52.364
 21
53.329
  0
LINE
  8
0
 10
337.6
 11
336.799
 20
53.329
 21
53.188
  0
LINE
  8
0
 10
336.799
 11
336.191
 20
53.188
 21
56.636
  0
LINE
  8
0
 10
336.191
 11
336.992
 20
56.636
 21
56.777
  0
LINE
  8
0
 10
336.992
 11
336.122
 20
56.777
 21
61.709
  0
LINE
  8
0
 10
336.122
 11
335.321
 20
61.709
 21
61.568
  0
LINE
  8
0
 10
335.321
 11
334.713
 20
61.568
 21
65.016
  0
LINE
  8
0
 10
338.013
 11
338.813
 20
46.304
 21
46.445
  0
LINE
  8
0
 10
338.813
 11
338.643
 20
46.445
 21
47.41
  0
LINE
  8
0
 10
338.643
 11
352.401
 20
47.41
 21
49.836
  0
LINE
  8
0
 10
352.401
 11
352.571
 20
49.836
 21
48.871
  0
LINE
  8
0
 10
352.571
 11
353.372
 20
48.871
 21
49.012
  0
LINE
  8
0
 10
353.372
 11
353.98
 20
49.012
 21
45.565
  0
LINE
  8
0
 10
353.98
 11
353.179
 20
45.565
 21
45.423
  0
LINE
  8
0
 10
353.179
 11
354.049
 20
45.423
 21
40.491
  0
LINE
  8
0
 10
354.049
 11
354.849
 20
40.491
 21
40.633
  0
LINE
  8
0
 10
354.849
 11
355.457
 20
40.633
 21
37.185
  0
LINE
  8
0
 10
355.457
 11
354.657
 20
37.185
 21
37.044
  0
LINE
  8
0
 10
354.657
 11
354.827
 20
37.044
 21
36.079
  0
LINE
  8
0
 10
354.827
 11
341.069
 20
36.079
 21
33.653
  0
LINE
  8
0
 10
341.069
 11
340.899
 20
33.653
 21
34.618
  0
LINE
  8
0
 10
340.899
 11
340.098
 20
34.618
 21
34.477
  0
LINE
  8
0
 10
340.098
 11
339.49
 20
34.477
 21
37.924
  0
LINE
  8
0
 10
339.49
 11
340.291
 20
37.924
 21
38.066
  0
LINE
  8
0
 10
340.291
 11
339.421
 20
38.066
 21
42.998
  0
LINE
  8
0
 10
339.421
 11
338.621
 20
42.998
 21
42.856
  0
LINE
  8
0
 10
338.621
 11
338.013
 20
42.856
 21
46.304
  0
LINE
  8
0
 10
341.312
 11
342.113
 20
27.593
 21
27.734
  0
LINE
  8
0
 10
342.113
 11
341.942
 20
27.734
 21
28.699
  0
LINE
  8
0
 10
341.942
 11
355.7
 20
28.699
 21
31.125
  0
LINE
  8
0
 10
355.7
 11
355.87
 20
31.125
 21
30.16
  0
LINE
  8
0
 10
355.87
 11
356.671
 20
30.16
 21
30.301
  0
LINE
  8
0
 10
356.671
 11
357.279
 20
30.301
 21
26.853
  0
LINE
  8
0
 10
357.279
 11
356.478
 20
26.853
 21
26.712
  0
LINE
  8
0
 10
356.478
 11
357.348
 20
26.712
 21
21.78
  0
LINE
  8
0
 10
357.348
 11
358.149
 20
21.78
 21
21.921
  0
LINE
  8
0
 10
358.149
 11
358.757
 20
21.921
 21
18.473
  0
LINE
  8
0
 10
358.757
 11
357.956
 20
18.473
 21
18.332
  0
LINE
  8
0
 10
357.956
 11
358.126
 20
18.332
 21
17.367
  0
LINE
  8
0
 10
358.126
 11
344.368
 20
17.367
 21
14.941
  0
LINE
  8
0
 10
344.368
 11
344.198
 20
14.941
 21
15.906
  0
LINE
  8
0
 10
344.198
 11
343.397
 20
15.906
 21
15.765
  0
LINE
  8
0
 10
343.397
 11
342.79
 20
15.765
 21
19.213
  0
LINE
  8
0
 10
342.79
 11
343.59
 20
19.213
 21
19.354
  0
LINE
  8
0
 10
343.59
 11
342.721
 20
19.354
 21
24.286
  0
LINE
  8
0
 10
342.721
 11
341.92
 20
24.286
 21
24.145
  0
LINE
  8
0
 10
341.92
 11
341.312
 20
24.145
 21
27.593
  0
LINE
  8
0
 10
349.083
 11
349.884
 20
92.935
 21
93.076
  0
LINE
  8
0
 10
349.884
 11
349.714
 20
93.076
 21
94.041
  0
LINE
  8
0
 10
349.714
 11
363.472
 20
94.041
 21
96.467
  0
LINE
  8
0
 10
363.472
 11
363.642
 20
96.467
 21
95.502
  0
LINE
  8
0
 10
363.642
 11
364.443
 20
95.502
 21
95.643
  0
LINE
  8
0
 10
364.443
 11
365.051
 20
95.643
 21
92.195
  0
LINE
  8
0
 10
365.051
 11
364.25
 20
92.195
 21
92.054
  0
LINE
  8
0
 10
364.25
 11
365.119
 20
92.054
 21
87.122
  0
LINE
  8
0
 10
365.119
 11
365.92
 20
87.122
 21
87.263
  0
LINE
  8
0
 10
365.92
 11
366.528
 20
87.263
 21
83.816
  0
LINE
  8
0
 10
366.528
 11
365.727
 20
83.816
 21
83.675
  0
LINE
  8
0
 10
365.727
 11
365.898
 20
83.675
 21
82.709
  0
LINE
  8
0
 10
365.898
 11
352.14
 20
82.709
 21
80.284
  0
LINE
  8
0
 10
352.14
 11
351.97
 20
80.284
 21
81.249
  0
LINE
  8
0
 10
351.97
 11
351.169
 20
81.249
 21
81.107
  0
LINE
  8
0
 10
351.169
 11
350.561
 20
81.107
 21
84.555
  0
LINE
  8
0
 10
350.561
 11
351.362
 20
84.555
 21
84.696
  0
LINE
  8
0
 10
351.362
 11
350.492
 20
84.696
 21
89.628
  0
LINE
  8
0
 10
350.492
 11
349.691
 20
89.628
 21
89.487
  0
LINE
  8
0
 10
349.691
 11
349.083
 20
89.487
 21
92.935
  0
LINE
  8
0
 10
352.383
 11
353.183
 20
74.224
 21
74.365
  0
LINE
  8
0
 10
353.183
 11
353.013
 20
74.365
 21
75.33
  0
LINE
  8
0
 10
353.013
 11
366.771
 20
75.33
 21
77.756
  0
LINE
  8
0
 10
366.771
 11
366.941
 20
77.756
 21
76.791
  0
LINE
  8
0
 10
366.941
 11
367.742
 20
76.791
 21
76.932
  0
LINE
  8
0
 10
367.742
 11
368.35
 20
76.932
 21
73.484
  0
LINE
  8
0
 10
368.35
 11
367.549
 20
73.484
 21
73.343
  0
LINE
  8
0
 10
367.549
 11
368.419
 20
73.343
 21
68.411
  0
LINE
  8
0
 10
368.419
 11
369.219
 20
68.411
 21
68.552
  0
LINE
  8
0
 10
369.219
 11
369.827
 20
68.552
 21
65.104
  0
LINE
  8
0
 10
369.827
 11
369.027
 20
65.104
 21
64.963
  0
LINE
  8
0
 10
369.027
 11
369.197
 20
64.963
 21
63.998
  0
LINE
  8
0
 10
369.197
 11
355.439
 20
63.998
 21
61.572
  0
LINE
  8
0
 10
355.439
 11
355.269
 20
61.572
 21
62.537
  0
LINE
  8
0
 10
355.269
 11
354.468
 20
62.537
 21
62.396
  0
LINE
  8
0
 10
354.468
 11
353.86
 20
62.396
 21
65.844
  0
LINE
  8
0
 10
353.86
 11
354.661
 20
65.844
 21
65.985
  0
LINE
  8
0
 10
354.661
 11
353.791
 20
65.985
 21
70.917
  0
LINE
  8
0
 10
353.791
 11
352.991
 20
70.917
 21
70.776
  0
LINE
  8
0
 10
352.991
 11
352.383
 20
70.776
 21
74.224
  0
LINE
  8
0
 10
355.682
 11
356.483
 20
55.512
 21
55.653
  0
LINE
  8
0
 10
356.483
 11
356.313
 20
55.653
 21
56.619
  0
LINE
  8
0
 10
356.313
 11
370.07
 20
56.619
 21
59.044
  0
LINE
  8
0
 10
370.07
 11
370.241
 20
59.044
 21
58.079
  0
LINE
  8
0
 10
370.241
 11
371.041
 20
58.079
 21
58.221
  0
LINE
  8
0
 10
371.041
 11
371.649
 20
58.221
 21
54.773
  0
LINE
  8
0
 10
371.649
 11
370.848
 20
54.773
 21
54.632
  0
LINE
  8
0
 10
370.848
 11
371.718
 20
54.632
 21
49.7
  0
LINE
  8
0
 10
371.718
 11
372.519
 20
49.7
 21
49.841
  0
LINE
  8
0
 10
372.519
 11
373.127
 20
49.841
 21
46.393
  0
LINE
  8
0
 10
373.127
 11
372.326
 20
46.393
 21
46.252
  0
LINE
  8
0
 10
372.326
 11
372.496
 20
46.252
 21
45.287
  0
LINE
  8
0
 10
372.496
 11
358.738
 20
45.287
 21
42.861
  0
LINE
  8
0
 10
358.738
 11
358.568
 20
42.861
 21
43.826
  0
LINE
  8
0
 10
358.568
 11
357.768
 20
43.826
 21
43.685
  0
LINE
  8
0
 10
357.768
 11
357.16
 20
43.685
 21
47.133
  0
LINE
  8
0
 10
357.16
 11
357.96
 20
47.133
 21
47.274
  0
LINE
  8
0
 10
357.96
 11
357.091
 20
47.274
 21
52.206
  0
LINE
  8
0
 10
357.091
 11
356.29
 20
52.206
 21
52.065
  0
LINE
  8
0
 10
356.29
 11
355.682
 20
52.065
 21
55.512
  0
LINE
  8
0
 10
358.981
 11
359.782
 20
36.801
 21
36.942
  0
LINE
  8
0
 10
359.782
 11
359.612
 20
36.942
 21
37.907
  0
LINE
  8
0
 10
359.612
 11
373.37
 20
37.907
 21
40.333
  0
LINE
  8
0
 10
373.37
 11
373.54
 20
40.333
 21
39.368
  0
LINE
  8
0
 10
373.54
 11
374.341
 20
39.368
 21
39.509
  0
LINE
  8
0
 10
374.341
 11
374.948
 20
39.509
 21
36.061
  0
LINE
  8
0
 10
374.948
 11
374.148
 20
36.061
 21
35.92
  0
LINE
  8
0
 10
374.148
 11
375.017
 20
35.92
 21
30.988
  0
LINE
  8
0
 10
375.017
 11
375.818
 20
30.988
 21
31.129
  0
LINE
  8
0
 10
375.818
 11
376.426
 20
31.129
 21
27.682
  0
LINE
  8
0
 10
376.426
 11
375.625
 20
27.682
 21
27.54
  0
LINE
  8
0
 10
375.625
 11
375.796
 20
27.54
 21
26.575
  0
LINE
  8
0
 10
375.796
 11
362.038
 20
26.575
 21
24.149
  0
LINE
  8
0
 10
362.038
 11
361.868
 20
24.149
 21
25.115
  0
LINE
  8
0
 10
361.868
 11
361.067
 20
25.115
 21
24.973
  0
LINE
  8
0
 10
361.067
 11
360.459
 20
24.973
 21
28.421
  0
LINE
  8
0
 10
360.459
 11
361.26
 20
28.421
 21
28.562
  0
LINE
  8
0
 10
361.26
 11
360.39
 20
28.562
 21
33.494
  0
LINE
  8
0
 10
360.39
 11
359.589
 20
33.494
 21
33.353
  0
LINE
  8
0
 10
359.589
 11
358.981
 20
33.353
 21
36.801
  0
LINE
  8
0
 10
368.663
 11
369.464
 20
91.31
 21
91.451
  0
LINE
  8
0
 10
369.464
 11
369.294
 20
91.451
 21
92.417
  0
LINE
  8
0
 10
369.294
 11
383.051
 20
92.417
 21
94.842
  0
LINE
  8
0
 10
383.051
 11
383.221
 20
94.842
 21
93.877
  0
LINE
  8
0
 10
383.221
 11
384.022
 20
93.877
 21
94.019
  0
LINE
  8
0
 10
384.022
 11
384.63
 20
94.019
 21
90.571
  0
LINE
  8
0
 10
384.63
 11
383.829
 20
90.571
 21
90.43
  0
LINE
  8
0
 10
383.829
 11
384.699
 20
90.43
 21
85.498
  0
LINE
  8
0
 10
384.699
 11
385.5
 20
85.498
 21
85.639
  0
LINE
  8
0
 10
385.5
 11
386.108
 20
85.639
 21
82.191
  0
LINE
  8
0
 10
386.108
 11
385.307
 20
82.191
 21
82.05
  0
LINE
  8
0
 10
385.307
 11
385.477
 20
82.05
 21
81.085
  0
LINE
  8
0
 10
385.477
 11
371.719
 20
81.085
 21
78.659
  0
LINE
  8
0
 10
371.719
 11
371.549
 20
78.659
 21
79.624
  0
LINE
  8
0
 10
371.549
 11
370.749
 20
79.624
 21
79.483
  0
LINE
  8
0
 10
370.749
 11
370.141
 20
79.483
 21
82.931
  0
LINE
  8
0
 10
370.141
 11
370.941
 20
82.931
 21
83.072
  0
LINE
  8
0
 10
370.941
 11
370.072
 20
83.072
 21
88.004
  0
LINE
  8
0
 10
370.072
 11
369.271
 20
88.004
 21
87.862
  0
LINE
  8
0
 10
369.271
 11
368.663
 20
87.862
 21
91.31
  0
LINE
  8
0
 10
371.962
 11
372.763
 20
72.599
 21
72.74
  0
LINE
  8
0
 10
372.763
 11
372.593
 20
72.74
 21
73.705
  0
LINE
  8
0
 10
372.593
 11
386.351
 20
73.705
 21
76.131
  0
LINE
  8
0
 10
386.351
 11
386.521
 20
76.131
 21
75.166
  0
LINE
  8
0
 10
386.521
 11
387.321
 20
75.166
 21
75.307
  0
LINE
  8
0
 10
387.321
 11
387.929
 20
75.307
 21
71.859
  0
LINE
  8
0
 10
387.929
 11
387.129
 20
71.859
 21
71.718
  0
LINE
  8
0
 10
387.129
 11
387.998
 20
71.718
 21
66.786
  0
LINE
  8
0
 10
387.998
 11
388.799
 20
66.786
 21
66.927
  0
LINE
  8
0
 10
388.799
 11
389.407
 20
66.927
 21
63.48
  0
LINE
  8
0
 10
389.407
 11
388.606
 20
63.48
 21
63.338
  0
LINE
  8
0
 10
388.606
 11
388.777
 20
63.338
 21
62.373
  0
LINE
  8
0
 10
388.777
 11
375.019
 20
62.373
 21
59.947
  0
LINE
  8
0
 10
375.019
 11
374.849
 20
59.947
 21
60.913
  0
LINE
  8
0
 10
374.849
 11
374.048
 20
60.913
 21
60.771
  0
LINE
  8
0
 10
374.048
 11
373.44
 20
60.771
 21
64.219
  0
LINE
  8
0
 10
373.44
 11
374.241
 20
64.219
 21
64.36
  0
LINE
  8
0
 10
374.241
 11
373.371
 20
64.36
 21
69.292
  0
LINE
  8
0
 10
373.371
 11
372.57
 20
69.292
 21
69.151
  0
LINE
  8
0
 10
372.57
 11
371.962
 20
69.151
 21
72.599
  0
LINE
  8
0
 10
375.262
 11
376.062
 20
53.888
 21
54.029
  0
LINE
  8
0
 10
376.062
 11
375.892
 20
54.029
 21
54.994
  0
LINE
  8
0
 10
375.892
 11
389.65
 20
54.994
 21
57.42
  0
LINE
  8
0
 10
389.65
 11
389.82
 20
57.42
 21
56.455
  0
LINE
  8
0
 10
389.82
 11
390.621
 20
56.455
 21
56.596
  0
LINE
  8
0
 10
390.621
 11
391.229
 20
56.596
 21
53.148
  0
LINE
  8
0
 10
391.229
 11
390.428
 20
53.148
 21
53.007
  0
LINE
  8
0
 10
390.428
 11
391.298
 20
53.007
 21
48.075
  0
LINE
  8
0
 10
391.298
 11
392.098
 20
48.075
 21
48.216
  0
LINE
  8
0
 10
392.098
 11
392.706
 20
48.216
 21
44.768
  0
LINE
  8
0
 10
392.706
 11
391.906
 20
44.768
 21
44.627
  0
LINE
  8
0
 10
391.906
 11
392.076
 20
44.627
 21
43.662
  0
LINE
  8
0
 10
392.076
 11
378.318
 20
43.662
 21
41.236
  0
LINE
  8
0
 10
378.318
 11
378.148
 20
41.236
 21
42.201
  0
LINE
  8
0
 10
378.148
 11
377.347
 20
42.201
 21
42.06
  0
LINE
  8
0
 10
377.347
 11
376.739
 20
42.06
 21
45.508
  0
LINE
  8
0
 10
376.739
 11
377.54
 20
45.508
 21
45.649
  0
LINE
  8
0
 10
377.54
 11
376.67
 20
45.649
 21
50.581
  0
LINE
  8
0
 10
376.67
 11
375.87
 20
50.581
 21
50.44
  0
LINE
  8
0
 10
375.87
 11
375.262
 20
50.44
 21
53.888
  0
LINE
  8
0
 10
378.561
 11
379.362
 20
35.176
 21
35.317
  0
LINE
  8
0
 10
379.362
 11
379.192
 20
35.317
 21
36.283
  0
LINE
  8
0
 10
379.192
 11
392.949
 20
36.283
 21
38.708
  0
LINE
  8
0
 10
392.949
 11
393.119
 20
38.708
 21
37.743
  0
LINE
  8
0
 10
393.119
 11
393.92
 20
37.743
 21
37.884
  0
LINE
  8
0
 10
393.92
 11
394.528
 20
37.884
 21
34.437
  0
LINE
  8
0
 10
394.528
 11
393.727
 20
34.437
 21
34.295
  0
LINE
  8
0
 10
393.727
 11
394.597
 20
34.295
 21
29.364
  0
LINE
  8
0
 10
394.597
 11
395.398
 20
29.364
 21
29.505
  0
LINE
  8
0
 10
395.398
 11
396.006
 20
29.505
 21
26.057
  0
LINE
  8
0
 10
396.006
 11
395.205
 20
26.057
 21
25.916
  0
LINE
  8
0
 10
395.205
 11
395.375
 20
25.916
 21
24.951
  0
LINE
  8
0
 10
395.375
 11
381.617
 20
24.951
 21
22.525
  0
LINE
  8
0
 10
381.617
 11
381.447
 20
22.525
 21
23.49
  0
LINE
  8
0
 10
381.447
 11
380.647
 20
23.49
 21
23.349
  0
LINE
  8
0
 10
380.647
 11
380.039
 20
23.349
 21
26.797
  0
LINE
  8
0
 10
380.039
 11
380.839
 20
26.797
 21
26.938
  0
LINE
  8
0
 10
380.839
 11
379.97
 20
26.938
 21
31.87
  0
LINE
  8
0
 10
379.97
 11
379.169
 20
31.87
 21
31.728
  0
LINE
  8
0
 10
379.169
 11
378.561
 20
31.728
 21
35.176
  0
LINE
  8
0
 10
387.895
 11
388.696
 20
91.655
 21
91.796
  0
LINE
  8
0
 10
388.696
 11
388.526
 20
91.796
 21
92.761
  0
LINE
  8
0
 10
388.526
 11
402.284
 20
92.761
 21
95.187
  0
LINE
  8
0
 10
402.284
 11
402.454
 20
95.187
 21
94.222
  0
LINE
  8
0
 10
402.454
 11
403.254
 20
94.222
 21
94.363
  0
LINE
  8
0
 10
403.254
 11
403.862
 20
94.363
 21
90.916
  0
LINE
  8
0
 10
403.862
 11
403.062
 20
90.916
 21
90.774
  0
LINE
  8
0
 10
403.062
 11
403.931
 20
90.774
 21
85.842
  0
LINE
  8
0
 10
403.931
 11
404.732
 20
85.842
 21
85.984
  0
LINE
  8
0
 10
404.732
 11
405.34
 20
85.984
 21
82.536
  0
LINE
  8
0
 10
405.34
 11
404.539
 20
82.536
 21
82.395
  0
LINE
  8
0
 10
404.539
 11
404.709
 20
82.395
 21
81.43
  0
LINE
  8
0
 10
404.709
 11
390.952
 20
81.43
 21
79.004
  0
LINE
  8
0
 10
390.952
 11
390.782
 20
79.004
 21
79.969
  0
LINE
  8
0
 10
390.782
 11
389.981
 20
79.969
 21
79.828
  0
LINE
  8
0
 10
389.981
 11
389.373
 20
79.828
 21
83.275
  0
LINE
  8
0
 10
389.373
 11
390.174
 20
83.275
 21
83.417
  0
LINE
  8
0
 10
390.174
 11
389.304
 20
83.417
 21
88.349
  0
LINE
  8
0
 10
389.304
 11
388.503
 20
88.349
 21
88.207
  0
LINE
  8
0
 10
388.503
 11
387.895
 20
88.207
 21
91.655
  0
LINE
  8
0
 10
391.195
 11
391.995
 20
72.944
 21
73.085
  0
LINE
  8
0
 10
391.995
 11
391.825
 20
73.085
 21
74.05
  0
LINE
  8
0
 10
391.825
 11
405.583
 20
74.05
 21
76.476
  0
LINE
  8
0
 10
405.583
 11
405.753
 20
76.476
 21
75.511
  0
LINE
  8
0
 10
405.753
 11
406.554
 20
75.511
 21
75.652
  0
LINE
  8
0
 10
406.554
 11
407.162
 20
75.652
 21
72.204
  0
LINE
  8
0
 10
407.162
 11
406.361
 20
72.204
 21
72.063
  0
LINE
  8
0
 10
406.361
 11
407.231
 20
72.063
 21
67.131
  0
LINE
  8
0
 10
407.231
 11
408.031
 20
67.131
 21
67.272
  0
LINE
  8
0
 10
408.031
 11
408.639
 20
67.272
 21
63.825
  0
LINE
  8
0
 10
408.639
 11
407.839
 20
63.825
 21
63.683
  0
LINE
  8
0
 10
407.839
 11
408.009
 20
63.683
 21
62.718
  0
LINE
  8
0
 10
408.009
 11
394.251
 20
62.718
 21
60.292
  0
LINE
  8
0
 10
394.251
 11
394.081
 20
60.292
 21
61.257
  0
LINE
  8
0
 10
394.081
 11
393.28
 20
61.257
 21
61.116
  0
LINE
  8
0
 10
393.28
 11
392.672
 20
61.116
 21
64.564
  0
LINE
  8
0
 10
392.672
 11
393.473
 20
64.564
 21
64.705
  0
LINE
  8
0
 10
393.473
 11
392.603
 20
64.705
 21
69.637
  0
LINE
  8
0
 10
392.603
 11
391.803
 20
69.637
 21
69.496
  0
LINE
  8
0
 10
391.803
 11
391.195
 20
69.496
 21
72.944
  0
LINE
  8
0
 10
394.494
 11
395.295
 20
54.232
 21
54.374
  0
LINE
  8
0
 10
395.295
 11
395.124
 20
54.374
 21
55.339
  0
LINE
  8
0
 10
395.124
 11
408.882
 20
55.339
 21
57.765
  0
LINE
  8
0
 10
408.882
 11
409.052
 20
57.765
 21
56.8
  0
LINE
  8
0
 10
409.052
 11
409.853
 20
56.8
 21
56.941
  0
LINE
  8
0
 10
409.853
 11
410.461
 20
56.941
 21
53.493
  0
LINE
  8
0
 10
410.461
 11
409.66
 20
53.493
 21
53.352
  0
LINE
  8
0
 10
409.66
 11
410.53
 20
53.352
 21
48.42
  0
LINE
  8
0
 10
410.53
 11
411.331
 20
48.42
 21
48.561
  0
LINE
  8
0
 10
411.331
 11
411.939
 20
48.561
 21
45.113
  0
LINE
  8
0
 10
411.939
 11
411.138
 20
45.113
 21
44.972
  0
LINE
  8
0
 10
411.138
 11
411.308
 20
44.972
 21
44.007
  0
LINE
  8
0
 10
411.308
 11
397.55
 20
44.007
 21
41.581
  0
LINE
  8
0
 10
397.55
 11
397.38
 20
41.581
 21
42.546
  0
LINE
  8
0
 10
397.38
 11
396.58
 20
42.546
 21
42.405
  0
LINE
  8
0
 10
396.58
 11
395.972
 20
42.405
 21
45.853
  0
LINE
  8
0
 10
395.972
 11
396.772
 20
45.853
 21
45.994
  0
LINE
  8
0
 10
396.772
 11
395.903
 20
45.994
 21
50.926
  0
LINE
  8
0
 10
395.903
 11
395.102
 20
50.926
 21
50.785
  0
LINE
  8
0
 10
395.102
 11
394.494
 20
50.785
 21
54.232
  0
LINE
  8
0
 10
397.793
 11
398.594
 20
35.521
 21
35.662
  0
LINE
  8
0
 10
398.594
 11
398.424
 20
35.662
 21
36.627
  0
LINE
  8
0
 10
398.424
 11
412.182
 20
36.627
 21
39.053
  0
LINE
  8
0
 10
412.182
 11
412.352
 20
39.053
 21
38.088
  0
LINE
  8
0
 10
412.352
 11
413.152
 20
38.088
 21
38.229
  0
LINE
  8
0
 10
413.152
 11
413.76
 20
38.229
 21
34.782
  0
LINE
  8
0
 10
413.76
 11
412.96
 20
34.782
 21
34.64
  0
LINE
  8
0
 10
412.96
 11
413.829
 20
34.64
 21
29.708
  0
LINE
  8
0
 10
413.829
 11
414.63
 20
29.708
 21
29.85
  0
LINE
  8
0
 10
414.63
 11
415.238
 20
29.85
 21
26.402
  0
LINE
  8
0
 10
415.238
 11
414.437
 20
26.402
 21
26.261
  0
LINE
  8
0
 10
414.437
 11
414.607
 20
26.261
 21
25.296
  0
LINE
  8
0
 10
414.607
 11
400.85
 20
25.296
 21
22.87
  0
LINE
  8
0
 10
400.85
 11
400.679
 20
22.87
 21
23.835
  0
LINE
  8
0
 10
400.679
 11
399.879
 20
23.835
 21
23.694
  0
LINE
  8
0
 10
399.879
 11
399.271
 20
23.694
 21
27.141
  0
LINE
  8
0
 10
399.271
 11
400.072
 20
27.141
 21
27.283
  0
LINE
  8
0
 10
400.072
 11
399.202
 20
27.283
 21
32.215
  0
LINE
  8
0
 10
399.202
 11
398.401
 20
32.215
 21
32.073
  0
LINE
  8
0
 10
398.401
 11
397.793
 20
32.073
 21
35.521
  0
LINE
  8
0
 10
405.711
 11
405.713
 20
102.148
 21
102.336
  0
LINE
  8
0
 10
405.713
 11
405.739
 20
102.336
 21
102.523
  0
LINE
  8
0
 10
405.739
 11
405.789
 20
102.523
 21
102.705
  0
LINE
  8
0
 10
405.789
 11
405.86
 20
102.705
 21
102.879
  0
LINE
  8
0
 10
405.86
 11
405.954
 20
102.879
 21
103.043
  0
LINE
  8
0
 10
405.954
 11
406.067
 20
103.043
 21
103.194
  0
LINE
  8
0
 10
406.067
 11
406.197
 20
103.194
 21
103.329
  0
LINE
  8
0
 10
406.197
 11
406.344
 20
103.329
 21
103.447
  0
LINE
  8
0
 10
406.344
 11
406.504
 20
103.447
 21
103.546
  0
LINE
  8
0
 10
406.504
 11
406.676
 20
103.546
 21
103.623
  0
LINE
  8
0
 10
406.676
 11
406.856
 20
103.623
 21
103.679
  0
LINE
  8
0
 10
406.856
 11
407.042
 20
103.679
 21
103.712
  0
LINE
  8
0
 10
407.042
 11
407.23
 20
103.712
 21
103.721
  0
LINE
  8
0
 10
407.23
 11
407.418
 20
103.721
 21
103.707
  0
LINE
  8
0
 10
407.418
 11
407.603
 20
103.707
 21
103.669
  0
LINE
  8
0
 10
407.603
 11
407.781
 20
103.669
 21
103.608
  0
LINE
  8
0
 10
407.781
 11
407.95
 20
103.608
 21
103.526
  0
LINE
  8
0
 10
407.95
 11
408.107
 20
103.526
 21
103.423
  0
LINE
  8
0
 10
408.107
 11
408.251
 20
103.423
 21
103.301
  0
LINE
  8
0
 10
408.251
 11
408.377
 20
103.301
 21
103.162
  0
LINE
  8
0
 10
408.377
 11
408.487
 20
103.162
 21
103.007
  0
LINE
  8
0
 10
408.487
 11
408.575
 20
103.007
 21
102.841
  0
LINE
  8
0
 10
408.575
 11
408.642
 20
102.841
 21
102.665
  0
LINE
  8
0
 10
408.642
 11
408.686
 20
102.665
 21
102.482
  0
LINE
  8
0
 10
408.686
 11
408.707
 20
102.482
 21
102.295
  0
LINE
  8
0
 10
408.707
 11
408.705
 20
102.295
 21
102.106
  0
LINE
  8
0
 10
408.705
 11
408.679
 20
102.106
 21
101.92
  0
LINE
  8
0
 10
408.679
 11
408.629
 20
101.92
 21
101.738
  0
LINE
  8
0
 10
408.629
 11
408.558
 20
101.738
 21
101.564
  0
LINE
  8
0
 10
408.558
 11
408.464
 20
101.564
 21
101.4
  0
LINE
  8
0
 10
408.464
 11
408.351
 20
101.4
 21
101.249
  0
LINE
  8
0
 10
408.351
 11
408.221
 20
101.249
 21
101.114
  0
LINE
  8
0
 10
408.221
 11
408.074
 20
101.114
 21
100.996
  0
LINE
  8
0
 10
408.074
 11
407.914
 20
100.996
 21
100.897
  0
LINE
  8
0
 10
407.914
 11
407.741
 20
100.897
 21
100.82
  0
LINE
  8
0
 10
407.741
 11
407.561
 20
100.82
 21
100.764
  0
LINE
  8
0
 10
407.561
 11
407.376
 20
100.764
 21
100.731
  0
LINE
  8
0
 10
407.376
 11
407.188
 20
100.731
 21
100.722
  0
LINE
  8
0
 10
407.188
 11
407
 20
100.722
 21
100.736
  0
LINE
  8
0
 10
407
 11
406.815
 20
100.736
 21
100.774
  0
LINE
  8
0
 10
406.815
 11
406.637
 20
100.774
 21
100.835
  0
LINE
  8
0
 10
406.637
 11
406.468
 20
100.835
 21
100.917
  0
LINE
  8
0
 10
406.468
 11
406.311
 20
100.917
 21
101.02
  0
LINE
  8
0
 10
406.311
 11
406.167
 20
101.02
 21
101.142
  0
LINE
  8
0
 10
406.167
 11
406.04
 20
101.142
 21
101.281
  0
LINE
  8
0
 10
406.04
 11
405.931
 20
101.281
 21
101.436
  0
LINE
  8
0
 10
405.931
 11
405.843
 20
101.436
 21
101.602
  0
LINE
  8
0
 10
405.843
 11
405.776
 20
101.602
 21
101.778
  0
LINE
  8
0
 10
405.776
 11
405.732
 20
101.778
 21
101.961
  0
LINE
  8
0
 10
405.732
 11
405.711
 20
101.961
 21
102.148
  0
LINE
  8
0
 10
405.711
 11
405.713
 20
252.148
 21
252.336
  0
LINE
  8
0
 10
405.713
 11
405.739
 20
252.336
 21
252.523
  0
LINE
  8
0
 10
405.739
 11
405.789
 20
252.523
 21
252.705
  0
LINE
  8
0
 10
405.789
 11
405.86
 20
252.705
 21
252.879
  0
LINE
  8
0
 10
405.86
 11
405.954
 20
252.879
 21
253.043
  0
LINE
  8
0
 10
405.954
 11
406.067
 20
253.043
 21
253.194
  0
LINE
  8
0
 10
406.067
 11
406.197
 20
253.194
 21
253.329
  0
LINE
  8
0
 10
406.197
 11
406.344
 20
253.329
 21
253.447
  0
LINE
  8
0
 10
406.344
 11
406.504
 20
253.447
 21
253.546
  0
LINE
  8
0
 10
406.504
 11
406.676
 20
253.546
 21
253.623
  0
LINE
  8
0
 10
406.676
 11
406.856
 20
253.623
 21
253.679
  0
LINE
  8
0
 10
406.856
 11
407.042
 20
253.679
 21
253.712
  0
LINE
  8
0
 10
407.042
 11
407.23
 20
253.712
 21
253.721
  0
LINE
  8
0
 10
407.23
 11
407.418
 20
253.721
 21
253.707
  0
LINE
  8
0
 10
407.418
 11
407.603
 20
253.707
 21
253.669
  0
LINE
  8
0
 10
407.603
 11
407.781
 20
253.669
 21
253.608
  0
LINE
  8
0
 10
407.781
 11
407.95
 20
253.608
 21
253.526
  0
LINE
  8
0
 10
407.95
 11
408.107
 20
253.526
 21
253.423
  0
LINE
  8
0
 10
408.107
 11
408.251
 20
253.423
 21
253.301
  0
LINE
  8
0
 10
408.251
 11
408.377
 20
253.301
 21
253.162
  0
LINE
  8
0
 10
408.377
 11
408.487
 20
253.162
 21
253.007
  0
LINE
  8
0
 10
408.487
 11
408.575
 20
253.007
 21
252.841
  0
LINE
  8
0
 10
408.575
 11
408.642
 20
252.841
 21
252.665
  0
LINE
  8
0
 10
408.642
 11
408.686
 20
252.665
 21
252.482
  0
LINE
  8
0
 10
408.686
 11
408.707
 20
252.482
 21
252.295
  0
LINE
  8
0
 10
408.707
 11
408.705
 20
252.295
 21
252.106
  0
LINE
  8
0
 10
408.705
 11
408.679
 20
252.106
 21
251.92
  0
LINE
  8
0
 10
408.679
 11
408.629
 20
251.92
 21
251.738
  0
LINE
  8
0
 10
408.629
 11
408.558
 20
251.738
 21
251.564
  0
LINE
  8
0
 10
408.558
 11
408.464
 20
251.564
 21
251.4
  0
LINE
  8
0
 10
408.464
 11
408.351
 20
251.4
 21
251.249
  0
LINE
  8
0
 10
408.351
 11
408.221
 20
251.249
 21
251.114
  0
LINE
  8
0
 10
408.221
 11
408.074
 20
251.114
 21
250.996
  0
LINE
  8
0
 10
408.074
 11
407.914
 20
250.996
 21
250.897
  0
LINE
  8
0
 10
407.914
 11
407.741
 20
250.897
 21
250.82
  0
LINE
  8
0
 10
407.741
 11
407.561
 20
250.82
 21
250.764
  0
LINE
  8
0
 10
407.561
 11
407.376
 20
250.764
 21
250.731
  0
LINE
  8
0
 10
407.376
 11
407.188
 20
250.731
 21
250.722
  0
LINE
  8
0
 10
407.188
 11
407
 20
250.722
 21
250.736
  0
LINE
  8
0
 10
407
 11
406.815
 20
250.736
 21
250.774
  0
LINE
  8
0
 10
406.815
 11
406.637
 20
250.774
 21
250.835
  0
LINE
  8
0
 10
406.637
 11
406.468
 20
250.835
 21
250.917
  0
LINE
  8
0
 10
406.468
 11
406.311
 20
250.917
 21
251.02
  0
LINE
  8
0
 10
406.311
 11
406.167
 20
251.02
 21
251.142
  0
LINE
  8
0
 10
406.167
 11
406.04
 20
251.142
 21
251.281
  0
LINE
  8
0
 10
406.04
 11
405.931
 20
251.281
 21
251.436
  0
LINE
  8
0
 10
405.931
 11
405.843
 20
251.436
 21
251.602
  0
LINE
  8
0
 10
405.843
 11
405.776
 20
251.602
 21
251.778
  0
LINE
  8
0
 10
405.776
 11
405.732
 20
251.778
 21
251.961
  0
LINE
  8
0
 10
405.732
 11
405.711
 20
251.961
 21
252.148
  0
LINE
  8
0
 10
420.144
 11
420.146
 20
20.297
 21
20.485
  0
LINE
  8
0
 10
420.146
 11
420.172
 20
20.485
 21
20.672
  0
LINE
  8
0
 10
420.172
 11
420.222
 20
20.672
 21
20.854
  0
LINE
  8
0
 10
420.222
 11
420.293
 20
20.854
 21
21.028
  0
LINE
  8
0
 10
420.293
 11
420.387
 20
21.028
 21
21.192
  0
LINE
  8
0
 10
420.387
 11
420.499
 20
21.192
 21
21.343
  0
LINE
  8
0
 10
420.499
 11
420.63
 20
21.343
 21
21.477
  0
LINE
  8
0
 10
420.63
 11
420.777
 20
21.477
 21
21.596
  0
LINE
  8
0
 10
420.777
 11
420.937
 20
21.596
 21
21.695
  0
LINE
  8
0
 10
420.937
 11
421.109
 20
21.695
 21
21.772
  0
LINE
  8
0
 10
421.109
 11
421.289
 20
21.772
 21
21.828
  0
LINE
  8
0
 10
421.289
 11
421.474
 20
21.828
 21
21.861
  0
LINE
  8
0
 10
421.474
 11
421.663
 20
21.861
 21
21.87
  0
LINE
  8
0
 10
421.663
 11
421.851
 20
21.87
 21
21.856
  0
LINE
  8
0
 10
421.851
 11
422.035
 20
21.856
 21
21.818
  0
LINE
  8
0
 10
422.035
 11
422.214
 20
21.818
 21
21.757
  0
LINE
  8
0
 10
422.214
 11
422.382
 20
21.757
 21
21.675
  0
LINE
  8
0
 10
422.382
 11
422.54
 20
21.675
 21
21.571
  0
LINE
  8
0
 10
422.54
 11
422.684
 20
21.571
 21
21.45
  0
LINE
  8
0
 10
422.684
 11
422.81
 20
21.45
 21
21.31
  0
LINE
  8
0
 10
422.81
 11
422.92
 20
21.31
 21
21.156
  0
LINE
  8
0
 10
422.92
 11
423.008
 20
21.156
 21
20.99
  0
LINE
  8
0
 10
423.008
 11
423.074
 20
20.99
 21
20.814
  0
LINE
  8
0
 10
423.074
 11
423.119
 20
20.814
 21
20.631
  0
LINE
  8
0
 10
423.119
 11
423.14
 20
20.631
 21
20.443
  0
LINE
  8
0
 10
423.14
 11
423.137
 20
20.443
 21
20.255
  0
LINE
  8
0
 10
423.137
 11
423.111
 20
20.255
 21
20.069
  0
LINE
  8
0
 10
423.111
 11
423.061
 20
20.069
 21
19.886
  0
LINE
  8
0
 10
423.061
 11
422.99
 20
19.886
 21
19.712
  0
LINE
  8
0
 10
422.99
 11
422.896
 20
19.712
 21
19.549
  0
LINE
  8
0
 10
422.896
 11
422.784
 20
19.549
 21
19.398
  0
LINE
  8
0
 10
422.784
 11
422.653
 20
19.398
 21
19.263
  0
LINE
  8
0
 10
422.653
 11
422.507
 20
19.263
 21
19.145
  0
LINE
  8
0
 10
422.507
 11
422.346
 20
19.145
 21
19.045
  0
LINE
  8
0
 10
422.346
 11
422.174
 20
19.045
 21
18.968
  0
LINE
  8
0
 10
422.174
 11
421.994
 20
18.968
 21
18.912
  0
LINE
  8
0
 10
421.994
 11
421.809
 20
18.912
 21
18.88
  0
LINE
  8
0
 10
421.809
 11
421.621
 20
18.88
 21
18.871
  0
LINE
  8
0
 10
421.621
 11
421.432
 20
18.871
 21
18.884
  0
LINE
  8
0
 10
421.432
 11
421.248
 20
18.884
 21
18.923
  0
LINE
  8
0
 10
421.248
 11
421.07
 20
18.923
 21
18.984
  0
LINE
  8
0
 10
421.07
 11
420.901
 20
18.984
 21
19.066
  0
LINE
  8
0
 10
420.901
 11
420.744
 20
19.066
 21
19.169
  0
LINE
  8
0
 10
420.744
 11
420.599
 20
19.169
 21
19.291
  0
LINE
  8
0
 10
420.599
 11
420.473
 20
19.291
 21
19.43
  0
LINE
  8
0
 10
420.473
 11
420.364
 20
19.43
 21
19.584
  0
LINE
  8
0
 10
420.364
 11
420.275
 20
19.584
 21
19.751
  0
LINE
  8
0
 10
420.275
 11
420.209
 20
19.751
 21
19.927
  0
LINE
  8
0
 10
420.209
 11
420.164
 20
19.927
 21
20.11
  0
LINE
  8
0
 10
420.164
 11
420.144
 20
20.11
 21
20.297
  0
LINE
  8
0
 10
420.144
 11
420.146
 20
170.297
 21
170.485
  0
LINE
  8
0
 10
420.146
 11
420.172
 20
170.485
 21
170.672
  0
LINE
  8
0
 10
420.172
 11
420.222
 20
170.672
 21
170.854
  0
LINE
  8
0
 10
420.222
 11
420.293
 20
170.854
 21
171.028
  0
LINE
  8
0
 10
420.293
 11
420.387
 20
171.028
 21
171.192
  0
LINE
  8
0
 10
420.387
 11
420.499
 20
171.192
 21
171.343
  0
LINE
  8
0
 10
420.499
 11
420.63
 20
171.343
 21
171.477
  0
LINE
  8
0
 10
420.63
 11
420.777
 20
171.477
 21
171.596
  0
LINE
  8
0
 10
420.777
 11
420.937
 20
171.596
 21
171.695
  0
LINE
  8
0
 10
420.937
 11
421.109
 20
171.695
 21
171.772
  0
LINE
  8
0
 10
421.109
 11
421.289
 20
171.772
 21
171.828
  0
LINE
  8
0
 10
421.289
 11
421.474
 20
171.828
 21
171.861
  0
LINE
  8
0
 10
421.474
 11
421.663
 20
171.861
 21
171.87
  0
LINE
  8
0
 10
421.663
 11
421.851
 20
171.87
 21
171.856
  0
LINE
  8
0
 10
421.851
 11
422.035
 20
171.856
 21
171.818
  0
LINE
  8
0
 10
422.035
 11
422.214
 20
171.818
 21
171.757
  0
LINE
  8
0
 10
422.214
 11
422.382
 20
171.757
 21
171.675
  0
LINE
  8
0
 10
422.382
 11
422.54
 20
171.675
 21
171.571
  0
LINE
  8
0
 10
422.54
 11
422.684
 20
171.571
 21
171.45
  0
LINE
  8
0
 10
422.684
 11
422.81
 20
171.45
 21
171.31
  0
LINE
  8
0
 10
422.81
 11
422.92
 20
171.31
 21
171.156
  0
LINE
  8
0
 10
422.92
 11
423.008
 20
171.156
 21
170.99
  0
LINE
  8
0
 10
423.008
 11
423.074
 20
170.99
 21
170.814
  0
LINE
  8
0
 10
423.074
 11
423.119
 20
170.814
 21
170.631
  0
LINE
  8
0
 10
423.119
 11
423.14
 20
170.631
 21
170.443
  0
LINE
  8
0
 10
423.14
 11
423.137
 20
170.443
 21
170.255
  0
LINE
  8
0
 10
423.137
 11
423.111
 20
170.255
 21
170.069
  0
LINE
  8
0
 10
423.111
 11
423.061
 20
170.069
 21
169.886
  0
LINE
  8
0
 10
423.061
 11
422.99
 20
169.886
 21
169.712
  0
LINE
  8
0
 10
422.99
 11
422.896
 20
169.712
 21
169.549
  0
LINE
  8
0
 10
422.896
 11
422.784
 20
169.549
 21
169.398
  0
LINE
  8
0
 10
422.784
 11
422.653
 20
169.398
 21
169.263
  0
LINE
  8
0
 10
422.653
 11
422.507
 20
169.263
 21
169.145
  0
LINE
  8
0
 10
422.507
 11
422.346
 20
169.145
 21
169.045
  0
LINE
  8
0
 10
422.346
 11
422.174
 20
169.045
 21
168.968
  0
LINE
  8
0
 10
422.174
 11
421.994
 20
168.968
 21
168.912
  0
LINE
  8
0
 10
421.994
 11
421.809
 20
168.912
 21
168.88
  0
LINE
  8
0
 10
421.809
 11
421.621
 20
168.88
 21
168.871
  0
LINE
  8
0
 10
421.621
 11
421.432
 20
168.871
 21
168.884
  0
LINE
  8
0
 10
421.432
 11
421.248
 20
168.884
 21
168.923
  0
LINE
  8
0
 10
421.248
 11
421.07
 20
168.923
 21
168.984
  0
LINE
  8
0
 10
421.07
 11
420.901
 20
168.984
 21
169.066
  0
LINE
  8
0
 10
420.901
 11
420.744
 20
169.066
 21
169.169
  0
LINE
  8
0
 10
420.744
 11
420.599
 20
169.169
 21
169.291
  0
LINE
  8
0
 10
420.599
 11
420.473
 20
169.291
 21
169.43
  0
LINE
  8
0
 10
420.473
 11
420.364
 20
169.43
 21
169.584
  0
LINE
  8
0
 10
420.364
 11
420.275
 20
169.584
 21
169.751
  0
LINE
  8
0
 10
420.275
 11
420.209
 20
169.751
 21
169.927
  0
LINE
  8
0
 10
420.209
 11
420.164
 20
169.927
 21
170.11
  0
LINE
  8
0
 10
420.164
 11
420.144
 20
170.11
 21
170.297
  0
ENDSEC
  0
SECTION
  2
OBJECTS
  0
DICTIONARY
  0
ENDSEC
  0
EOF
