0
SECTION
2
HEADER
9
$INSUNITS
70
4
9
$ACADVER
1
AC1014
9
$HANDSEED
5
FFFF
0
ENDSEC
0
SECTION
2
TABLES
0
TABLE
2
VPORT
5
8
100
AcDbSymbolTable
0
ENDTAB
0
TABLE
2
LTYPE
5
5
100
AcDbSymbolTable
0
LTYPE
5
14
100
AcDbSymbolTableRecord
100
AcDbLinetypeTableRecord
2
BYBLOCK
70
0
0
LTYPE
5
15
100
AcDbSymbolTableRecord
100
AcDbLinetypeTableRecord
2
BYLAYER
70
0
0
ENDTAB
0
TABLE
2
LAYER
5
2
100
AcDbSymbolTable
70
2
0
LAYER
5
50
100
AcDbSymbolTableRecord
100
AcDbLayerTableRecord
2
0
70
0
6
CONTINUOUS
0
ENDTAB
0
TABLE
2
STYLE
5
3
100
AcDbSymbolTable
70
1
0
STYLE
5
11
100
AcDbSymbolTableRecord
100
AcDbTextStyleTableRecord
2
STANDARD
70
0
0
ENDTAB
0
TABLE
2
VIEW
5
6
100
AcDbSymbolTable
70
0
0
ENDTAB
0
TABLE
2
UCS
5
7
100
AcDbSymbolTable
70
0
0
ENDTAB
0
TABLE
2
APPID
5
9
100
AcDbSymbolTable
70
2
0
APPID
5
12
100
AcDbSymbolTableRecord
100
AcDbRegAppTableRecord
2
ACAD
70
0
0
ENDTAB
0
TABLE
2
DIMSTYLE
5
A
100
AcDbSymbolTable
70
1
0
ENDTAB
0
TABLE
2
BLOCK_RECORD
5
1
100
AcDbSymbolTable
70
1
0
BLOCK_RECORD
5
1F
100
AcDbSymbolTableRecord
100
AcDbBlockTableRecord
2
*MODEL_SPACE
0
BLOCK_RECORD
5
1B
100
AcDbSymbolTableRecord
100
AcDbBlockTableRecord
2
*PAPER_SPACE
0
ENDTAB
0
ENDSEC
0
SECTION
2
BLOCKS
0
BLOCK
5
20
100
AcDbEntity
100
AcDbBlockBegin
2
*MODEL_SPACE
0
ENDBLK
5
21
100
AcDbEntity
100
AcDbBlockEnd
0
BLOCK
5
1C
100
AcDbEntity
100
AcDbBlockBegin
2
*PAPER_SPACE
0
ENDBLK
5
1D
100
AcDbEntity
100
AcDbBlockEnd
0
ENDSEC
0
SECTION
2
ENTITIES
0
LWPOLYLINE
5
100
100
AcDbEntity
8
0
100
AcDbPolyline
90
20
70
1
43
0.0
10
16.701130001111633
20
63.040039788694671
10
30.458894310692202
20
65.465904830701689
10
30.288642691380442
20
66.431449744064963
10
31.089094433028755
20
66.57259098287264
10
30.48130497341317
20
70.019536295345731
10
29.680853231764864
20
69.878395056538068
10
28.811070347612535
20
74.811178914445847
10
29.611522089260841
20
74.952320153253538
10
29.003732629645267
20
78.399265465726614
10
28.20328088799695
20
78.258124226918937
10
28.033029268685198
20
79.223669140282198
10
14.275264959104621
20
76.797804098275208
10
14.445516578416381
20
75.832259184911919
10
13.645064836768071
20
75.691117946104228
10
14.252854296383653
20
72.244172633631152
10
15.053306038031964
20
72.385313872438829
10
15.92308892218429
20
67.45253001453105
10
15.122637180535992
20
67.311388775723358
10
15.73042664015156
20
63.864443463250282
10
16.530878381799869
20
64.005584702057931
0
LWPOLYLINE
5
101
100
AcDbEntity
8
0
100
AcDbPolyline
90
20
70
1
43
0.0
10
17.753514362971398
20
57.071671490029374
10
16.953062621323099
20
56.930530251221683
10
17.560852080938673
20
53.483584938748585
10
18.361303822586979
20
53.624726177556248
10
19.231086706739308
20
48.691942319648476
10
18.430634965091013
20
48.550801080840806
10
19.038424424706577
20
45.103855768367708
10
19.83887616635489
20
45.244997007175385
10
20.009127785666649
20
44.279452093812111
10
33.766892095247229
20
46.705317135819129
10
33.596640475935459
20
47.670862049182396
10
34.397092217583769
20
47.81200328799008
10
33.789302757968194
20
51.258948600463192
10
32.988851016319877
20
51.117807361655522
10
32.119068132167556
20
56.050591219563302
10
32.919519873815858
20
56.191732458370964
10
32.311730414200284
20
59.638677770844055
10
31.511278672551974
20
59.497536532036378
10
31.341027053240211
20
60.463081445399673
10
17.583262743659642
20
58.037216403392627
0
LWPOLYLINE
5
102
100
AcDbEntity
8
0
100
AcDbPolyline
90
20
70
1
43
0.0
10
-25.654419993816632
20
7.5826803786025865
10
-26.454871735464934
20
7.7238216174102643
10
-26.625123354776701
20
6.7582767040469882
10
-40.38288766435727
20
9.1841417460540082
10
-40.212636045045507
20
10.14968665941729
10
-41.013087786693831
20
10.290827898224961
10
-40.405298327078228
20
13.737773210698061
10
-39.604846585429939
20
13.596631971890393
10
-38.735063701277596
20
18.529415829798161
10
-39.535515442925899
20
18.670557068605842
10
-38.927725983310317
20
22.117502381078943
10
-38.127274241662036
20
21.976361142271262
10
-37.957022622350252
20
22.941906055634536
10
-24.199258312769693
20
20.516041013627518
10
-24.369509932081456
20
19.55049610026424
10
-23.56905819043314
20
19.40935486145656
10
-24.176847650048717
20
15.962409548983462
10
-24.97729939169702
20
16.103550787791143
10
-25.847082275849363
20
11.170766929883358
10
-25.04663053420105
20
11.02962569107568
0
LWPOLYLINE
5
103
100
AcDbEntity
8
0
100
AcDbPolyline
90
20
70
1
43
0.0
10
-4.5627128045369467
20
22.175846850677413
10
-5.4324956886892783
20
17.24306299276963
10
-4.6320439470409731
20
17.10192175396195
10
-5.2398334066565475
20
13.65497644148885
10
-6.0402851483048581
20
13.796117680296529
10
-6.2105367676166212
20
12.830572766933253
10
-19.968301077197196
20
15.256437808940271
10
-19.798049457885433
20
16.221982722303551
10
-20.598501199533729
20
16.363123961111231
10
-19.990711739918147
20
19.810069273584329
10
-19.190259998269852
20
19.668928034776648
10
-18.320477114117519
20
24.601711892684435
10
-19.120928855765818
20
24.742853131492101
10
-18.513139396150237
20
28.189798443965213
10
-17.712687654501941
20
28.048657205157532
10
-17.542436035190178
20
29.014202118520803
10
-3.784671725609607
20
26.588337076513785
10
-3.9549233449213683
20
25.622792163150514
10
-3.1544716032730631
20
25.48165092434283
10
-3.7622610628886415
20
22.034705611869732
0
LWPOLYLINE
5
104
100
AcDbEntity
8
0
100
AcDbPolyline
90
20
70
1
43
0.0
10
102.55443551521459
20
95.410083537538938
10
88.796671205634055
20
92.98421849553192
10
88.966922824945854
20
92.018673582168645
10
88.166471083297537
20
91.877532343360969
10
88.774260542913112
20
88.43058703088785
10
89.574712284561414
20
88.571728269695527
10
90.444495168713743
20
83.638944411787747
10
89.644043427065426
20
83.497803172980056
10
90.251832886681029
20
80.05085786050698
10
91.052284628329318
20
80.191999099314657
10
91.222536247641102
20
79.226454185951383
10
104.9803005572217
20
81.652319227958401
10
104.81004893790993
20
82.617864141321689
10
105.6105006795582
20
82.759005380129352
10
105.0027112199426
20
86.205950692602457
10
104.20225947829429
20
86.064809453794794
10
103.33247659414199
20
90.997593311702531
10
104.1329283357903
20
91.138734550510236
10
103.52513887617469
20
94.585679862983341
10
102.72468713452641
20
94.444538624175664
0
CIRCLE
5
105
100
AcDbEntity
8
0
100
AcDbCircle
10
-107.21811921746072
20
103.84922639130622
30
0
40
1.5000000000000002
0
LWPOLYLINE
5
106
100
AcDbEntity
8
0
100
AcDbPolyline
90
20
70
1
43
0.0
10
83.443154906643031
20
94.090964098657238
10
83.27290328733126
20
95.056509012020513
10
69.515138977750709
20
92.630643970013523
10
69.685390597062479
20
91.665099056650234
10
68.884938855414148
20
91.523957817842557
10
69.492728315029751
20
88.077012505369481
10
70.293180056678054
20
88.21815374417713
10
71.162962940830369
20
83.285369886269365
10
70.36251119918208
20
83.144228647461688
10
70.970300658797655
20
79.697283334988569
10
71.770752400445986
20
79.83842457379626
10
71.941004019757742
20
78.872879660433
10
85.698768329338279
20
81.298744702440018
10
85.528516710026508
20
82.264289615803278
10
86.328968451674825
20
82.40543085461097
10
85.721178992059265
20
85.85237616708406
10
84.920727250410962
20
85.711234928276383
10
84.050944366258591
20
90.644018786184176
10
84.851396107906936
20
90.785160024991839
10
84.243606648291347
20
94.23210533746493
0
LWPOLYLINE
5
107
100
AcDbEntity
8
0
100
AcDbPolyline
90
14
70
1
43
0.0
10
-104.49496122275491
20
110.60389306791382
42
0.36397023426619951
10
-114.34303875287702
20
102.34037484458321
10
-128.46092149394701
20
22.273883123658361
42
0.41421356237309465
10
-120.34932574049432
20
10.689323816866985
10
-31.723190282820127
20
-4.9378550602441704
42
0.043660942908512454
10
-28.250226729481504
20
-5.2417000000000087
10
0
20
-5.2416999999999998
10
28.250226729481504
20
-5.2417000000000087
42
0.04366094290851244
10
31.723190282820148
20
-4.9378550602441651
10
120.34932574049429
20
10.689323816866983
42
0.41421356237309531
10
128.46092149394701
20
22.273883123658358
10
114.34303875287702
20
102.34037484458321
42
0.36397023426619951
10
104.49496122275491
20
110.6038930679138
10
0
20
110.6038930679138
0
LWPOLYLINE
5
108
100
AcDbEntity
8
0
100
AcDbPolyline
90
20
70
1
43
0.0
10
19.968301077197196
20
15.256437808940271
10
19.798049457885433
20
16.221982722303551
10
20.598501199533729
20
16.363123961111231
10
19.990711739918147
20
19.810069273584329
10
19.190259998269852
20
19.668928034776648
10
18.320477114117519
20
24.601711892684435
10
19.120928855765818
20
24.742853131492101
10
18.513139396150237
20
28.189798443965213
10
17.712687654501941
20
28.048657205157532
10
17.542436035190178
20
29.014202118520803
10
3.784671725609607
20
26.588337076513785
10
3.9549233449213683
20
25.622792163150514
10
3.1544716032730631
20
25.48165092434283
10
3.7622610628886415
20
22.034705611869732
10
4.5627128045369467
20
22.175846850677413
10
5.4324956886892783
20
17.24306299276963
10
4.6320439470409731
20
17.10192175396195
10
5.2398334066565475
20
13.65497644148885
10
6.0402851483048581
20
13.796117680296529
10
6.2105367676166212
20
12.830572766933253
0
CIRCLE
5
109
100
AcDbEntity
8
0
100
AcDbCircle
10
-15
20
105.6038930679138
30
0
40
1.5000000000000002
0
LWPOLYLINE
5
110
100
AcDbEntity
8
0
100
AcDbPolyline
90
20
70
1
43
0.0
10
26.454871735464934
20
7.7238216174102643
10
26.625123354776701
20
6.7582767040469882
10
40.38288766435727
20
9.1841417460540082
10
40.212636045045507
20
10.14968665941729
10
41.013087786693831
20
10.290827898224961
10
40.405298327078228
20
13.737773210698061
10
39.604846585429939
20
13.596631971890393
10
38.735063701277596
20
18.529415829798161
10
39.535515442925899
20
18.670557068605842
10
38.927725983310317
20
22.117502381078943
10
38.127274241662036
20
21.976361142271262
10
37.957022622350252
20
22.941906055634536
10
24.199258312769693
20
20.516041013627518
10
24.369509932081456
20
19.55049610026424
10
23.56905819043314
20
19.40935486145656
10
24.176847650048717
20
15.962409548983462
10
24.97729939169702
20
16.103550787791143
10
25.847082275849363
20
11.170766929883358
10
25.04663053420105
20
11.02962569107568
10
25.654419993816632
20
7.5826803786025865
0
LWPOLYLINE
5
111
100
AcDbEntity
8
0
100
AcDbPolyline
90
20
70
1
43
0.0
10
-88.796671205634055
20
92.98421849553192
10
-88.966922824945854
20
92.018673582168645
10
-88.166471083297537
20
91.877532343360969
10
-88.774260542913112
20
88.43058703088785
10
-89.574712284561414
20
88.571728269695527
10
-90.444495168713743
20
83.638944411787747
10
-89.644043427065426
20
83.497803172980056
10
-90.251832886681029
20
80.05085786050698
10
-91.052284628329318
20
80.191999099314657
10
-91.222536247641102
20
79.226454185951383
10
-104.9803005572217
20
81.652319227958401
10
-104.81004893790993
20
82.617864141321689
10
-105.6105006795582
20
82.759005380129352
10
-105.0027112199426
20
86.205950692602457
10
-104.20225947829429
20
86.064809453794794
10
-103.33247659414199
20
90.997593311702531
10
-104.1329283357903
20
91.138734550510236
10
-103.52513887617469
20
94.585679862983341
10
-102.72468713452641
20
94.444538624175664
10
-102.55443551521459
20
95.410083537538938
0
LWPOLYLINE
5
112
100
AcDbEntity
8
0
100
AcDbPolyline
90
20
70
1
43
0.0
10
37.123433513287218
20
56.923978869264538
10
36.322981771638922
20
56.782837630456875
10
36.930771231254504
20
53.335892317983777
10
37.731222972902799
20
53.477033556791447
10
37.901474592214569
20
52.511488643428173
10
51.659238901795135
20
54.937353685435184
10
51.488987282483393
20
55.902898598798465
10
52.289439024131681
20
56.044039837606149
10
51.681649564516093
20
59.490985150079247
10
50.881197822867804
20
59.349843911271563
10
50.011414938715468
20
64.282627769179342
10
50.811866680363764
20
64.423769007987033
10
50.204077220748189
20
67.870714320460124
10
49.403625479099901
20
67.729573081652447
10
49.233373859788117
20
68.695117995015721
10
35.475609550207551
20
66.269252953008703
10
35.645861169519314
20
65.303708039645429
10
34.845409427870997
20
65.162566800837752
10
35.453198887486593
20
61.715621488364647
10
36.253650629134889
20
61.856762727172317
0
LWPOLYLINE
5
113
100
AcDbEntity
8
0
100
AcDbPolyline
90
20
70
1
43
0.0
10
43.739429082397272
20
19.402803479499433
10
42.938977340748956
20
19.261662240691749
10
43.546766800364544
20
15.814716928218653
10
44.347218542012847
20
15.955858167026332
10
44.51747016132461
20
14.990313253663052
10
58.27523447090519
20
17.416178295670072
10
58.104982851593419
20
18.381723209033353
10
58.905434593241722
20
18.52286444784102
10
58.297645133626155
20
21.969809760314121
10
57.497193391977852
20
21.828668521506451
10
56.627410507825502
20
26.76145237941423
10
57.427862249473804
20
26.902593618221896
10
56.82007278985823
20
30.349538930695005
10
56.019621048209942
20
30.208397691887324
10
55.849369428898179
20
31.173942605250602
10
42.091605119317592
20
28.748077563243584
10
42.261856738629355
20
27.782532649880302
10
41.461404996981052
20
27.641391411072632
10
42.069194456596641
20
24.194446098599531
10
42.869646198244943
20
24.335587337407198
0
LWPOLYLINE
5
114
100
AcDbEntity
8
0
100
AcDbPolyline
90
20
70
1
43
0.0
10
45.925376075233103
20
87.455705689898281
10
32.167611765652516
20
85.029840647891248
10
32.337863384964287
20
84.064295734527974
10
31.537411643315988
20
83.923154495720297
10
32.145201102931573
20
80.476209183247178
10
32.945652844579875
20
80.617350422054869
10
33.815435728732197
20
75.68456656414709
10
33.014983987083895
20
75.543425325339399
10
33.622773446699469
20
72.096480012866323
10
34.423225188347772
20
72.237621251674
10
34.593476807659542
20
71.27207633831074
10
48.351241117240107
20
73.697941380317729
10
48.180989497928351
20
74.663486293681032
10
48.981441239576647
20
74.804627532488695
10
48.373651779961087
20
78.2515728449618
10
47.573200038312777
20
78.110431606154123
10
46.703417154160434
20
83.043215464061916
10
47.503868895808743
20
83.184356702869579
10
46.896079436193162
20
86.631302015342712
10
46.095627694544859
20
86.490160776534992
0
LWPOLYLINE
5
115
100
AcDbEntity
8
0
100
AcDbPolyline
90
20
70
1
43
0.0
10
-71.907894236303804
20
49.806100519017278
10
-71.038111352151446
20
54.738884376925057
10
-71.838563093799763
20
54.880025615732734
10
-71.230773634184189
20
58.326970928205824
10
-70.430321892535886
20
58.185829689398147
10
-70.260070273224116
20
59.15137460276145
10
-56.502305963643558
20
56.725509560754432
10
-56.672557582955321
20
55.759964647391129
10
-55.872105841307011
20
55.618823408583459
10
-56.479895300922578
20
52.171878096110369
10
-57.280347042570902
20
52.313019334918039
10
-58.150129926723224
20
47.38023547701026
10
-57.349678185074907
20
47.23909423820259
10
-57.95746764469051
20
43.792148925729478
10
-58.757919386338806
20
43.933290164537141
10
-58.928171005650576
20
42.967745251173888
10
-72.68593531523112
20
45.393610293180899
10
-72.515683695919364
20
46.359155206544173
10
-73.316135437567709
20
46.50029644535185
10
-72.708345977952092
20
49.947241757824955
0
LWPOLYLINE
5
116
100
AcDbEntity
8
0
100
AcDbPolyline
90
20
70
1
43
0.0
10
-66.092350408842051
20
87.46841714759006
10
-65.291898667193749
20
87.327275908782411
10
-64.42211578304142
20
92.260059766690205
10
-65.222567524689737
20
92.401201005497853
10
-64.614778065074148
20
95.848146317970944
10
-63.81432632342586
20
95.707005079163281
10
-63.644074704114075
20
96.672549992526555
10
-49.886310394533517
20
94.246684950519523
10
-50.05656201384528
20
93.281140037156248
10
-49.256110272196963
20
93.139998798348557
10
-49.863899731812538
20
89.69305348587551
10
-50.664351473460854
20
89.834194724683158
10
-51.534134357613191
20
84.901410866775379
10
-50.733682615964881
20
84.760269627967716
10
-51.341472075580441
20
81.313324315494597
10
-52.141923817228758
20
81.45446555430226
10
-52.312175436540507
20
80.488920640939
10
-66.069939746121108
20
82.914785682946018
10
-65.899688126809338
20
83.880330596309292
10
-66.700139868457626
20
84.021471835116984
0
LWPOLYLINE
5
117
100
AcDbEntity
8
0
100
AcDbPolyline
90
20
70
1
43
0.0
10
-17.583262743659642
20
58.037216403392627
10
-17.753514362971398
20
57.071671490029374
10
-16.953062621323099
20
56.930530251221683
10
-17.560852080938673
20
53.483584938748585
10
-18.361303822586979
20
53.624726177556248
10
-19.231086706739308
20
48.691942319648476
10
-18.430634965091013
20
48.550801080840806
10
-19.038424424706577
20
45.103855768367708
10
-19.83887616635489
20
45.244997007175385
10
-20.009127785666649
20
44.279452093812111
10
-33.766892095247229
20
46.705317135819129
10
-33.596640475935459
20
47.670862049182396
10
-34.397092217583769
20
47.81200328799008
10
-33.789302757968194
20
51.258948600463192
10
-32.988851016319877
20
51.117807361655522
10
-32.119068132167556
20
56.050591219563302
10
-32.919519873815858
20
56.191732458370964
10
-32.311730414200284
20
59.638677770844055
10
-31.511278672551974
20
59.497536532036378
10
-31.341027053240211
20
60.463081445399673
0
LWPOLYLINE
5
118
100
AcDbEntity
8
0
100
AcDbPolyline
90
20
70
1
43
0.0
10
-34.649024837795238
20
41.702493750517114
10
-20.891260528214662
20
39.276628708510074
10
-21.061512147526429
20
38.3110837951468
10
-20.261060405878123
20
38.169942556339116
10
-20.868849865493697
20
34.722997243866033
10
-21.669301607142
20
34.864138482673695
10
-22.539084491294339
20
29.931354624765923
10
-21.73863274964603
20
29.790213385958253
10
-22.346422209261611
20
26.343268073485149
10
-23.146873950909914
20
26.484409312292829
10
-23.31712557022168
20
25.518864398929555
10
-37.074889879802242
20
27.944729440936573
10
-36.904638260490493
20
28.910274354299851
10
-37.705090002138789
20
29.051415593107524
10
-37.097300542523215
20
32.498360905580633
10
-36.296848800874905
20
32.357219666772949
10
-35.427065916722576
20
37.290003524680728
10
-36.227517658370893
20
37.431144763488398
10
-35.619728198755297
20
40.878090075961502
10
-34.819276457106987
20
40.736948837153825
0
LWPOLYLINE
5
119
100
AcDbEntity
8
0
100
AcDbPolyline
90
20
70
1
43
0.0
10
-76.978506768292121
20
45.62305325769654
10
-77.58629622790771
20
42.176107945223464
10
-78.386747969556012
20
42.317249184031141
10
-78.556999588867782
20
41.351704270667867
10
-92.314763898448319
20
43.777569312674885
10
-92.144512279136563
20
44.743114226038159
10
-92.94496402078488
20
44.88425546484585
10
-92.337174561169277
20
48.331200777318941
10
-91.536722819521003
20
48.19005953851125
10
-90.666939935368646
20
53.122843396419029
10
-91.467391677016948
20
53.26398463522672
10
-90.859602217401402
20
56.710929947699817
10
-90.059150475753114
20
56.569788708892133
10
-89.888898856441301
20
57.535333622255401
10
-76.131134546860764
20
55.109468580248404
10
-76.30138616617252
20
54.143923666885115
10
-75.500934424524218
20
54.002782428077438
10
-76.108723884139792
20
50.555837115604334
10
-76.909175625788109
20
50.696978354412011
10
-77.778958509940438
20
45.764194496504231
0
CIRCLE
5
120
100
AcDbEntity
8
0
100
AcDbCircle
10
-121.8603444692946
20
18.263477012719413
30
0
40
1.5000000000000002
0
LWPOLYLINE
5
121
100
AcDbEntity
8
0
100
AcDbPolyline
90
20
70
1
43
0.0
10
-31.089094433028755
20
66.57259098287264
10
-30.48130497341317
20
70.019536295345731
10
-29.680853231764864
20
69.878395056538068
10
-28.811070347612535
20
74.811178914445847
10
-29.611522089260841
20
74.952320153253538
10
-29.003732629645267
20
78.399265465726614
10
-28.20328088799695
20
78.258124226918937
10
-28.033029268685198
20
79.223669140282198
10
-14.275264959104621
20
76.797804098275208
10
-14.445516578416381
20
75.832259184911919
10
-13.645064836768071
20
75.691117946104228
10
-14.252854296383653
20
72.244172633631152
10
-15.053306038031964
20
72.385313872438829
10
-15.92308892218429
20
67.45253001453105
10
-15.122637180535992
20
67.311388775723358
10
-15.73042664015156
20
63.864443463250282
10
-16.530878381799869
20
64.005584702057931
10
-16.701130001111633
20
63.040039788694671
10
-30.458894310692202
20
65.465904830701689
10
-30.288642691380442
20
66.431449744064963
0
LWPOLYLINE
5
122
100
AcDbEntity
8
0
100
AcDbPolyline
90
20
70
1
43
0.0
10
-84.050944366258591
20
90.644018786184176
10
-84.851396107906936
20
90.785160024991839
10
-84.243606648291347
20
94.23210533746493
10
-83.443154906643031
20
94.090964098657238
10
-83.27290328733126
20
95.056509012020513
10
-69.515138977750709
20
92.630643970013523
10
-69.685390597062479
20
91.665099056650234
10
-68.884938855414148
20
91.523957817842557
10
-69.492728315029751
20
88.077012505369481
10
-70.293180056678054
20
88.21815374417713
10
-71.162962940830369
20
83.285369886269365
10
-70.36251119918208
20
83.144228647461688
10
-70.970300658797655
20
79.697283334988569
10
-71.770752400445986
20
79.83842457379626
10
-71.941004019757742
20
78.872879660433
10
-85.698768329338279
20
81.298744702440018
10
-85.528516710026508
20
82.264289615803278
10
-86.328968451674825
20
82.40543085461097
10
-85.721178992059265
20
85.85237616708406
10
-84.920727250410962
20
85.711234928276383
0
LWPOLYLINE
5
123
100
AcDbEntity
8
0
100
AcDbPolyline
90
20
70
1
43
0.0
10
-46.095627694544859
20
86.490160776534992
10
-45.925376075233103
20
87.455705689898281
10
-32.167611765652516
20
85.029840647891248
10
-32.337863384964287
20
84.064295734527974
10
-31.537411643315988
20
83.923154495720297
10
-32.145201102931573
20
80.476209183247178
10
-32.945652844579875
20
80.617350422054869
10
-33.815435728732197
20
75.68456656414709
10
-33.014983987083895
20
75.543425325339399
10
-33.622773446699469
20
72.096480012866323
10
-34.423225188347772
20
72.237621251674
10
-34.593476807659542
20
71.27207633831074
10
-48.351241117240107
20
73.697941380317729
10
-48.180989497928351
20
74.663486293681032
10
-48.981441239576647
20
74.804627532488695
10
-48.373651779961087
20
78.2515728449618
10
-47.573200038312777
20
78.110431606154123
10
-46.703417154160434
20
83.043215464061916
10
-47.503868895808743
20
83.184356702869579
10
-46.896079436193162
20
86.631302015342712
0
CIRCLE
5
124
100
AcDbEntity
8
0
100
AcDbCircle
10
121.8603444692946
20
18.263477012719413
30
0
40
1.5000000000000002
0
LWPOLYLINE
5
125
100
AcDbEntity
8
0
100
AcDbPolyline
90
20
70
1
43
0.0
10
71.907894236303804
20
49.806100519017278
10
71.038111352151446
20
54.738884376925057
10
71.838563093799763
20
54.880025615732734
10
71.230773634184189
20
58.326970928205824
10
70.430321892535886
20
58.185829689398147
10
70.260070273224116
20
59.15137460276145
10
56.502305963643558
20
56.725509560754432
10
56.672557582955321
20
55.759964647391129
10
55.872105841307011
20
55.618823408583459
10
56.479895300922578
20
52.171878096110369
10
57.280347042570902
20
52.313019334918039
10
58.150129926723224
20
47.38023547701026
10
57.349678185074907
20
47.23909423820259
10
57.95746764469051
20
43.792148925729478
10
58.757919386338806
20
43.933290164537141
10
58.928171005650576
20
42.967745251173888
10
72.68593531523112
20
45.393610293180899
10
72.515683695919364
20
46.359155206544173
10
73.316135437567709
20
46.50029644535185
10
72.708345977952092
20
49.947241757824955
0
LWPOLYLINE
5
126
100
AcDbEntity
8
0
100
AcDbPolyline
90
20
70
1
43
0.0
10
-34.845409427870997
20
65.162566800837752
10
-35.453198887486593
20
61.715621488364647
10
-36.253650629134889
20
61.856762727172317
10
-37.123433513287218
20
56.923978869264538
10
-36.322981771638922
20
56.782837630456875
10
-36.930771231254504
20
53.335892317983777
10
-37.731222972902799
20
53.477033556791447
10
-37.901474592214569
20
52.511488643428173
10
-51.659238901795135
20
54.937353685435184
10
-51.488987282483393
20
55.902898598798465
10
-52.289439024131681
20
56.044039837606149
10
-51.681649564516093
20
59.490985150079247
10
-50.881197822867804
20
59.349843911271563
10
-50.011414938715468
20
64.282627769179342
10
-50.811866680363764
20
64.423769007987033
10
-50.204077220748189
20
67.870714320460124
10
-49.403625479099901
20
67.729573081652447
10
-49.233373859788117
20
68.695117995015721
10
-35.475609550207551
20
66.269252953008703
10
-35.645861169519314
20
65.303708039645429
0
LWPOLYLINE
5
127
100
AcDbEntity
8
0
100
AcDbPolyline
90
20
70
1
43
0.0
10
-40.431431297842238
20
38.163391174381992
10
-39.630979556193935
20
38.022249935574315
10
-40.238769015809524
20
34.575304623101204
10
-41.039220757457819
20
34.71644586190888
10
-41.209472376769575
20
33.750900948545606
10
-54.967236686350162
20
36.176765990552639
10
-54.796985067038399
20
37.142310903915913
10
-55.597436808686695
20
37.283452142723597
10
-54.98964734907112
20
40.73039745519668
10
-54.189195607422818
20
40.589256216388996
10
-53.319412723270503
20
45.52204007429679
10
-54.119864464918791
20
45.663181313104459
10
-53.51207500530321
20
49.110126625577564
10
-52.711623263654907
20
48.968985386769894
10
-52.541371644343144
20
49.934530300133162
10
-38.783607334762564
20
47.508665258126143
10
-38.953858954074327
20
46.543120344762869
10
-38.153407212426032
20
46.401979105955192
10
-38.761196672041613
20
42.955033793482102
10
-39.561648413689902
20
43.096175032289771
0
LWPOLYLINE
5
128
100
AcDbEntity
8
0
100
AcDbPolyline
90
20
70
1
43
0.0
10
76.909175625788109
20
50.696978354412011
10
77.778958509940438
20
45.764194496504231
10
76.978506768292121
20
45.62305325769654
10
77.58629622790771
20
42.176107945223464
10
78.386747969556012
20
42.317249184031141
10
78.556999588867782
20
41.351704270667867
10
92.314763898448319
20
43.777569312674885
10
92.144512279136563
20
44.743114226038159
10
92.94496402078488
20
44.88425546484585
10
92.337174561169277
20
48.331200777318941
10
91.536722819521003
20
48.19005953851125
10
90.666939935368646
20
53.122843396419029
10
91.467391677016948
20
53.26398463522672
10
90.859602217401402
20
56.710929947699817
10
90.059150475753114
20
56.569788708892133
10
89.888898856441301
20
57.535333622255401
10
76.131134546860764
20
55.109468580248404
10
76.30138616617252
20
54.143923666885115
10
75.500934424524218
20
54.002782428077438
10
76.108723884139792
20
50.555837115604334
0
LWPOLYLINE
5
129
100
AcDbEntity
8
0
100
AcDbPolyline
90
20
70
1
43
0.0
10
72.993388381617493
20
72.904511361767675
10
72.19293663996919
20
72.763370122959998
10
72.800726099584779
20
69.316424810486893
10
73.601177841233081
20
69.45756604929457
10
74.47096072538541
20
64.524782191386805
10
73.670508983737108
20
64.383640952579114
10
74.278298443352696
20
60.936695640106024
10
75.078750185000985
20
61.077836878913708
10
75.249001804312755
20
60.112291965550433
10
89.006766113893306
20
62.538157007557444
10
88.83651449458155
20
63.503701920920719
10
89.636966236229853
20
63.64484315972841
10
89.029176776614264
20
67.0917884722015
10
88.228725034965962
20
66.950647233393823
10
87.358942150813618
20
71.883431091301588
10
88.159393892461949
20
72.024572330109265
10
87.551604432846361
20
75.471517642582384
10
86.751152691198058
20
75.330376403774707
10
86.580901071886288
20
76.295921317137967
10
72.823136762305737
20
73.870056275130949
0
LWPOLYLINE
5
130
100
AcDbEntity
8
0
100
AcDbPolyline
90
20
70
1
43
0.0
10
65.899688126809338
20
83.880330596309292
10
66.700139868457626
20
84.021471835116984
10
66.092350408842051
20
87.46841714759006
10
65.291898667193749
20
87.327275908782411
10
64.42211578304142
20
92.260059766690205
10
65.222567524689737
20
92.401201005497853
10
64.614778065074148
20
95.848146317970944
10
63.81432632342586
20
95.707005079163281
10
63.644074704114075
20
96.672549992526555
10
49.886310394533517
20
94.246684950519523
10
50.05656201384528
20
93.281140037156248
10
49.256110272196963
20
93.139998798348557
10
49.863899731812538
20
89.69305348587551
10
50.664351473460854
20
89.834194724683158
10
51.534134357613191
20
84.901410866775379
10
50.733682615964881
20
84.760269627967716
10
51.341472075580441
20
81.313324315494597
10
52.141923817228758
20
81.45446555430226
10
52.312175436540507
20
80.488920640939
10
66.069939746121108
20
82.914785682946018
0
LWPOLYLINE
5
131
100
AcDbEntity
8
0
100
AcDbPolyline
90
20
70
1
43
0.0
10
-74.538771418739231
20
39.566383233323265
10
-73.738319677090914
20
39.425241994515602
10
-73.568068057779143
20
40.390786907878883
10
-59.810303748198585
20
37.964921865871844
10
-59.980555367510327
20
36.99937695250857
10
-59.180103625862046
20
36.858235713700893
10
-59.787893085477613
20
33.411290401227795
10
-60.588344827125908
20
33.552431640035479
10
-61.458127711278252
20
28.6196477821277
10
-60.657675969629928
20
28.478506543320027
10
-61.265465429245509
20
25.031561230846918
10
-62.06591717089384
20
25.172702469654602
10
-62.236168790205575
20
24.207157556291321
10
-75.993933099786162
20
26.633022598298339
10
-75.823681480474391
20
27.598567511661621
10
-76.624133222122708
20
27.739708750469294
10
-76.01634376250712
20
31.186654062942402
10
-75.215892020858817
20
31.045512824134718
10
-74.346109136706502
20
35.978296682042497
10
-75.146560878354791
20
36.119437920850174
0
LWPOLYLINE
5
132
100
AcDbEntity
8
0
100
AcDbPolyline
90
20
70
1
43
0.0
10
-42.091605119317592
20
28.748077563243584
10
-42.261856738629355
20
27.782532649880302
10
-41.461404996981052
20
27.641391411072632
10
-42.069194456596641
20
24.194446098599531
10
-42.869646198244943
20
24.335587337407198
10
-43.739429082397272
20
19.402803479499433
10
-42.938977340748956
20
19.261662240691749
10
-43.546766800364544
20
15.814716928218653
10
-44.347218542012847
20
15.955858167026332
10
-44.51747016132461
20
14.990313253663052
10
-58.27523447090519
20
17.416178295670072
10
-58.104982851593419
20
18.381723209033353
10
-58.905434593241722
20
18.52286444784102
10
-58.297645133626155
20
21.969809760314121
10
-57.497193391977852
20
21.828668521506451
10
-56.627410507825502
20
26.76145237941423
10
-57.427862249473804
20
26.902593618221896
10
-56.82007278985823
20
30.349538930695005
10
-56.019621048209942
20
30.208397691887324
10
-55.849369428898179
20
31.173942605250602
0
LWPOLYLINE
5
133
100
AcDbEntity
8
0
100
AcDbPolyline
90
20
70
1
43
0.0
10
-79.416721668694805
20
31.795249420721778
10
-80.217173410343122
20
31.936390659529451
10
-81.086956294495451
20
27.003606801621682
10
-80.286504552847177
20
26.862465562814002
10
-80.894294012462723
20
23.415520250340901
10
-81.694745754111068
20
23.556661489148581
10
-81.864997373422796
20
22.591116575785307
10
-95.622761683003375
20
25.016981617792325
10
-95.452510063691591
20
25.982526531155603
10
-96.252961805339922
20
26.123667769963284
10
-95.645172345724333
20
29.570613082436381
10
-94.844720604076031
20
29.429471843628701
10
-93.974937719923702
20
34.362255701536476
10
-94.775389461571976
20
34.50339694034416
10
-94.167600001956401
20
37.950342252817251
10
-93.367148260308113
20
37.809201014009574
10
-93.196896640996343
20
38.774745927372848
10
-79.439132331415777
20
36.34888088536583
10
-79.609383950727562
20
35.383335972002563
10
-78.808932209079231
20
35.242194733194879
0
LWPOLYLINE
5
134
100
AcDbEntity
8
0
100
AcDbPolyline
90
20
70
1
43
0.0
10
69.400348193397079
20
68.707829452707514
10
68.599896451748776
20
68.566688213899852
10
67.730113567596462
20
73.499472071807617
10
68.53056530924475
20
73.640613310615322
10
67.922775849629147
20
77.087558623088384
10
67.122324107980859
20
76.946417384280721
10
66.952072488669103
20
77.911962297643981
10
53.194308179088523
20
75.486097255636949
10
53.364559798400286
20
74.520552342273703
10
52.564108056751984
20
74.379411103466012
10
53.171897516367572
20
70.932465790992907
10
53.972349258015875
20
71.073607029800584
10
54.842132142168211
20
66.140823171892833
10
54.041680400519887
20
65.999681933085142
10
54.649469860135476
20
62.552736620612038
10
55.449921601783799
20
62.693877859419715
10
55.620173221095541
20
61.728332946056447
10
69.377937530676121
20
64.154197988063459
10
69.207685911364351
20
65.119742901426719
10
70.008137653012653
20
65.26088414023441
0
LWPOLYLINE
5
135
100
AcDbEntity
8
0
100
AcDbPolyline
90
20
70
1
43
0.0
10
76.624133222122708
20
27.739708750469294
10
76.01634376250712
20
31.186654062942402
10
75.215892020858817
20
31.045512824134718
10
74.346109136706502
20
35.978296682042497
10
75.146560878354791
20
36.119437920850174
10
74.538771418739231
20
39.566383233323265
10
73.738319677090914
20
39.425241994515602
10
73.568068057779143
20
40.390786907878883
10
59.810303748198585
20
37.964921865871844
10
59.980555367510327
20
36.99937695250857
10
59.180103625862046
20
36.858235713700893
10
59.787893085477613
20
33.411290401227795
10
60.588344827125908
20
33.552431640035479
10
61.458127711278252
20
28.6196477821277
10
60.657675969629928
20
28.478506543320027
10
61.265465429245509
20
25.031561230846918
10
62.06591717089384
20
25.172702469654602
10
62.236168790205575
20
24.207157556291321
10
75.993933099786162
20
26.633022598298339
10
75.823681480474391
20
27.598567511661621
0
LWPOLYLINE
5
136
100
AcDbEntity
8
0
100
AcDbPolyline
90
20
70
1
43
0.0
10
-109.94847216325199
20
53.476417921937447
10
-110.74892390490032
20
53.617559160745117
10
-110.14113444528482
20
57.064504473218214
10
-109.3406827036364
20
56.923363234410544
10
-109.17043108432472
20
57.888908147773819
10
-95.412666774744125
20
55.463043105766801
10
-95.582918394055895
20
54.497498192403512
10
-94.782466652407578
20
54.356356953595856
10
-95.390256112023181
20
50.90941164112273
10
-96.190707853671455
20
51.050552879930429
10
-97.060490737823784
20
46.117769022022642
10
-96.260038996175496
20
45.976627783214951
10
-96.867828455791084
20
42.529682470741861
10
-97.668280197439373
20
42.670823709549538
10
-97.838531816751129
20
41.705278796186256
10
-111.59629612633171
20
44.131143838193282
10
-111.4260445070199
20
45.096688751556556
10
-112.2264962486683
20
45.237829990364233
10
-111.61870678905271
20
48.684775302837345
10
-110.81825504740429
20
48.543634064029661
0
LWPOLYLINE
5
137
100
AcDbEntity
8
0
100
AcDbPolyline
90
20
70
1
43
0.0
10
96.190707853671455
20
51.050552879930429
10
97.060490737823784
20
46.117769022022642
10
96.260038996175496
20
45.976627783214951
10
96.867828455791084
20
42.529682470741861
10
97.668280197439373
20
42.670823709549538
10
97.838531816751129
20
41.705278796186256
10
111.59629612633171
20
44.131143838193282
10
111.4260445070199
20
45.096688751556556
10
112.2264962486683
20
45.237829990364233
10
111.61870678905271
20
48.684775302837345
10
110.81825504740429
20
48.543634064029661
10
109.94847216325199
20
53.476417921937447
10
110.74892390490032
20
53.617559160745117
10
110.14113444528482
20
57.064504473218214
10
109.3406827036364
20
56.923363234410544
10
109.17043108432472
20
57.888908147773819
10
95.412666774744125
20
55.463043105766801
10
95.582918394055895
20
54.497498192403512
10
94.782466652407578
20
54.356356953595856
10
95.390256112023181
20
50.90941164112273
0
LWPOLYLINE
5
138
100
AcDbEntity
8
0
100
AcDbPolyline
90
20
70
1
43
0.0
10
80.286504552847177
20
26.862465562814002
10
80.894294012462723
20
23.415520250340901
10
81.694745754111068
20
23.556661489148581
10
81.864997373422796
20
22.591116575785307
10
95.622761683003375
20
25.016981617792325
10
95.452510063691591
20
25.982526531155603
10
96.252961805339922
20
26.123667769963284
10
95.645172345724333
20
29.570613082436381
10
94.844720604076031
20
29.429471843628701
10
93.974937719923702
20
34.362255701536476
10
94.775389461571976
20
34.50339694034416
10
94.167600001956401
20
37.950342252817251
10
93.367148260308113
20
37.809201014009574
10
93.196896640996343
20
38.774745927372848
10
79.439132331415777
20
36.34888088536583
10
79.609383950727562
20
35.383335972002563
10
78.808932209079231
20
35.242194733194879
10
79.416721668694805
20
31.795249420721778
10
80.217173410343122
20
31.936390659529451
10
81.086956294495451
20
27.003606801621682
0
LWPOLYLINE
5
139
100
AcDbEntity
8
0
100
AcDbPolyline
90
20
70
1
43
0.0
10
92.082258327468168
20
69.669999336005304
10
92.882710069116442
20
69.811140574812967
10
93.752492953268757
20
64.878356716905202
10
92.952041211620497
20
64.737215478097511
10
93.559830671236043
20
61.290270165624428
10
94.360282412884388
20
61.431411404432112
10
94.530534032196115
20
60.465866491068823
10
108.2882983417767
20
62.891731533075856
10
108.11804672246492
20
63.857276446439116
10
108.9184984641132
20
63.9984176852468
10
108.31070900449771
20
67.445362997719911
10
107.51025726284929
20
67.30422175891222
10
106.64047437869699
20
72.237005616819985
10
107.44092612034532
20
72.378146855627691
10
106.83313666072969
20
75.825092168100781
10
106.0326849190814
20
75.683950929293104
10
105.86243329976972
20
76.649495842656393
10
92.104668990189097
20
74.223630800649346
10
92.274920609500853
20
73.258085887286057
10
91.474468867852551
20
73.116944648478409
0
LWPOLYLINE
5
140
100
AcDbEntity
8
0
100
AcDbPolyline
90
20
70
1
43
0.0
10
-54.649469860135476
20
62.552736620612038
10
-55.449921601783799
20
62.693877859419715
10
-55.620173221095541
20
61.728332946056447
10
-69.377937530676121
20
64.154197988063459
10
-69.207685911364351
20
65.119742901426719
10
-70.008137653012653
20
65.26088414023441
10
-69.400348193397079
20
68.707829452707514
10
-68.599896451748776
20
68.566688213899852
10
-67.730113567596462
20
73.499472071807617
10
-68.53056530924475
20
73.640613310615322
10
-67.922775849629147
20
77.087558623088384
10
-67.122324107980859
20
76.946417384280721
10
-66.952072488669103
20
77.911962297643981
10
-53.194308179088523
20
75.486097255636949
10
-53.364559798400286
20
74.520552342273703
10
-52.564108056751984
20
74.379411103466012
10
-53.171897516367572
20
70.932465790992907
10
-53.972349258015875
20
71.073607029800584
10
-54.842132142168211
20
66.140823171892833
10
-54.041680400519887
20
65.999681933085142
0
LWPOLYLINE
5
141
100
AcDbEntity
8
0
100
AcDbPolyline
90
20
70
1
43
0.0
10
-75.249001804312755
20
60.112291965550433
10
-89.006766113893306
20
62.538157007557444
10
-88.83651449458155
20
63.503701920920719
10
-89.636966236229853
20
63.64484315972841
10
-89.029176776614264
20
67.0917884722015
10
-88.228725034965962
20
66.950647233393823
10
-87.358942150813618
20
71.883431091301588
10
-88.159393892461949
20
72.024572330109265
10
-87.551604432846361
20
75.471517642582384
10
-86.751152691198058
20
75.330376403774707
10
-86.580901071886288
20
76.295921317137967
10
-72.823136762305737
20
73.870056275130949
10
-72.993388381617493
20
72.904511361767675
10
-72.19293663996919
20
72.763370122959998
10
-72.800726099584779
20
69.316424810486893
10
-73.601177841233081
20
69.45756604929457
10
-74.47096072538541
20
64.524782191386805
10
-73.670508983737108
20
64.383640952579114
10
-74.278298443352696
20
60.936695640106024
10
-75.078750185000985
20
61.077836878913708
0
LWPOLYLINE
5
142
100
AcDbEntity
8
0
100
AcDbPolyline
90
20
70
1
43
0.0
10
114.73404229157501
20
26.336101056674003
10
115.53449403322333
20
26.47724229548168
10
114.92670457360772
20
29.924187607954789
10
114.12625283195942
20
29.783046369147105
10
113.25646994780701
20
34.71583022705488
10
114.05692168945542
20
34.856971465862557
10
113.44913222983982
20
38.303916778335662
10
112.64868048819153
20
38.162775539527971
10
112.47842886887972
20
39.128320452891238
10
98.720664559299138
20
36.702455410884227
10
98.890916178610908
20
35.736910497520952
10
98.090464436962606
20
35.595769258713283
10
98.698253896578194
20
32.148823946240185
10
99.498705638226497
20
32.289965185047862
10
100.3684885223788
20
27.357181327140083
10
99.568036780730509
20
27.216040088332399
10
100.1758262403461
20
23.769094775859298
10
100.9762779819944
20
23.910236014666985
10
101.14652960130621
20
22.9446911013037
10
114.90429391088671
20
25.370556143310719
0
LWPOLYLINE
5
143
100
AcDbEntity
8
0
100
AcDbPolyline
90
20
70
1
43
0.0
10
-114.90429391088671
20
25.370556143310719
10
-114.73404229157501
20
26.336101056674003
10
-115.53449403322333
20
26.47724229548168
10
-114.92670457360772
20
29.924187607954789
10
-114.12625283195942
20
29.783046369147105
10
-113.25646994780701
20
34.71583022705488
10
-114.05692168945542
20
34.856971465862557
10
-113.44913222983982
20
38.303916778335662
10
-112.64868048819153
20
38.162775539527971
10
-112.47842886887972
20
39.128320452891238
10
-98.720664559299138
20
36.702455410884227
10
-98.890916178610908
20
35.736910497520952
10
-98.090464436962606
20
35.595769258713283
10
-98.698253896578194
20
32.148823946240185
10
-99.498705638226497
20
32.289965185047862
10
-100.3684885223788
20
27.357181327140083
10
-99.568036780730509
20
27.216040088332399
10
-100.1758262403461
20
23.769094775859298
10
-100.9762779819944
20
23.910236014666985
10
-101.14652960130621
20
22.9446911013037
0
LWPOLYLINE
5
144
100
AcDbEntity
8
0
100
AcDbPolyline
90
20
70
1
43
0.0
10
20.868849865493697
20
34.722997243866033
10
21.669301607142
20
34.864138482673695
10
22.539084491294339
20
29.931354624765923
10
21.73863274964603
20
29.790213385958253
10
22.346422209261611
20
26.343268073485149
10
23.146873950909914
20
26.484409312292829
10
23.31712557022168
20
25.518864398929555
10
37.074889879802242
20
27.944729440936573
10
36.904638260490493
20
28.910274354299851
10
37.705090002138789
20
29.051415593107524
10
37.097300542523215
20
32.498360905580633
10
36.296848800874905
20
32.357219666772949
10
35.427065916722576
20
37.290003524680728
10
36.227517658370893
20
37.431144763488398
10
35.619728198755297
20
40.878090075961502
10
34.819276457106987
20
40.736948837153825
10
34.649024837795238
20
41.702493750517114
10
20.891260528214662
20
39.276628708510074
10
21.061512147526429
20
38.3110837951468
10
20.261060405878123
20
38.169942556339116
0
LWPOLYLINE
5
145
100
AcDbEntity
8
0
100
AcDbPolyline
90
20
70
1
43
0.0
10
54.967236686350162
20
36.176765990552639
10
54.796985067038399
20
37.142310903915913
10
55.597436808686695
20
37.283452142723597
10
54.98964734907112
20
40.73039745519668
10
54.189195607422818
20
40.589256216388996
10
53.319412723270503
20
45.52204007429679
10
54.119864464918791
20
45.663181313104459
10
53.51207500530321
20
49.110126625577564
10
52.711623263654907
20
48.968985386769894
10
52.541371644343144
20
49.934530300133162
10
38.783607334762564
20
47.508665258126143
10
38.953858954074327
20
46.543120344762869
10
38.153407212426032
20
46.401979105955192
10
38.761196672041613
20
42.955033793482102
10
39.561648413689902
20
43.096175032289771
10
40.431431297842238
20
38.163391174381992
10
39.630979556193935
20
38.022249935574315
10
40.238769015809524
20
34.575304623101204
10
41.039220757457819
20
34.71644586190888
10
41.209472376769575
20
33.750900948545606
0
LWPOLYLINE
5
146
100
AcDbEntity
8
0
100
AcDbPolyline
90
20
70
1
43
0.0
10
-108.31070900449771
20
67.445362997719911
10
-107.51025726284929
20
67.30422175891222
10
-106.64047437869699
20
72.237005616819985
10
-107.44092612034532
20
72.378146855627691
10
-106.83313666072969
20
75.825092168100781
10
-106.0326849190814
20
75.683950929293104
10
-105.86243329976972
20
76.649495842656393
10
-92.104668990189097
20
74.223630800649346
10
-92.274920609500853
20
73.258085887286057
10
-91.474468867852551
20
73.116944648478409
10
-92.082258327468168
20
69.669999336005304
10
-92.882710069116442
20
69.811140574812967
10
-93.752492953268757
20
64.878356716905202
10
-92.952041211620497
20
64.737215478097511
10
-93.559830671236043
20
61.290270165624428
10
-94.360282412884388
20
61.431411404432112
10
-94.530534032196115
20
60.465866491068823
10
-108.2882983417767
20
62.891731533075856
10
-108.11804672246492
20
63.857276446439116
10
-108.9184984641132
20
63.9984176852468
0
CIRCLE
5
147
100
AcDbEntity
8
0
100
AcDbCircle
10
107.21811921746072
20
103.84922639130622
30
0
40
1.5000000000000002
0
CIRCLE
5
148
100
AcDbEntity
8
0
100
AcDbCircle
10
15
20
105.6038930679138
30
0
40
1.5000000000000002
0
CIRCLE
5
149
100
AcDbEntity
8
0
100
AcDbCircle
10
29.559227474587718
20
-0.20364698091745931
30
0
40
1.5000000000000002
0
CIRCLE
5
150
100
AcDbEntity
8
0
100
AcDbCircle
10
-29.559227474587718
20
-0.20364698091745931
30
0
40
1.5000000000000002
0
ENDSEC
0
SECTION
2
OBJECTS
0
DICTIONARY
5
C
100
AcDbDictionary
3
ACAD_GROUP
350
D
3
ACAD_MLINESTYLE
350
17
0
DICTIONARY
5
D
100
AcDbDictionary
0
DICTIONARY
5
1A
330
C
100
AcDbDictionary
0
DICTIONARY
5
17
100
AcDbDictionary
0
ENDSEC
0
EOF
