  0
SECTION
  2
HEADER
  9
$ACADVER
  1
AC1014
  9
$HANDSEED
  5
FFFF
  9
$MEASUREMENT
 70
     1
  0
ENDSEC
  0
SECTION
  2
TABLES
  0
TABLE
  2
VPORT
  5
8
330
0
100
AcDbSymbolTable
 70
     4
  0
VPORT
  5
2E
330
8
100
AcDbSymbolTableRecord
100
AcDbViewportTableRecord
  2
*ACTIVE
 70
     0
 10
0.0
 20
0.0
 11
1.0
 21
1.0
 12
210.0
 22
148.5
 13
0.0
 23
0.0
 14
10.0
 24
10.0
 15
10.0
 25
10.0
 16
0.0
 26
0.0
 36
1.0
 17
0.0
 27
0.0
 37
0.0
 40
341.0
 41
1.24
 42
50.0
 43
0.0
 44
0.0
 50
0.0
 51
0.0
 71
     0
 72
   100
 73
     1
 74
     3
 75
     0
 76
     0
 77
     0
 78
     0
  0
ENDTAB
  0
TABLE
  2
LTYPE
  5
5
330
0
100
AcDbSymbolTable
 70
     1
  0
LTYPE
  5
14
330
5
100
AcDbSymbolTableRecord
100
AcDbLinetypeTableRecord
  2
BYBLOCK
 70
     0
  3

 72
    65
 73
     0
 40
0.0
  0
LTYPE
  5
15
330
5
100
AcDbSymbolTableRecord
100
AcDbLinetypeTableRecord
  2
BYLAYER
 70
     0
  3

 72
    65
 73
     0
 40
0.0
  0
LTYPE
  5
16
330
5
100
AcDbSymbolTableRecord
100
AcDbLinetypeTableRecord
  2
CONTINUOUS
 70
     0
  3
Solid line
 72
    65
 73
     0
 40
0.0
  0
ENDTAB
  0
TABLE
  2
LAYER
  5
2
100
AcDbSymbolTable
 70
2
  0
LAYER
  5
50
100
AcDbSymbolTableRecord
100
AcDbLayerTableRecord
  2
0
 70
0
  6
CONTINUOUS
  0
LAYER
  5
51
100
AcDbSymbolTableRecord
100
AcDbLayerTableRecord
  2
Top
 70
0
  6
CONTINUOUS
  0
ENDTAB
  0
TABLE
  2
STYLE
  5
3
330
0
100
AcDbSymbolTable
 70
     1
  0
STYLE
  5
11
330
3
100
AcDbSymbolTableRecord
100
AcDbTextStyleTableRecord
  2
STANDARD
 70
     0
 40
0.0
 41
1.0
 50
0.0
 71
     0
 42
2.5
  3
txt
  4

  0
ENDTAB
  0
TABLE
  2
VIEW
  5
6
330
0
100
AcDbSymbolTable
 70
     0
  0
ENDTAB
  0
TABLE
  2
UCS
  5
7
330
0
100
AcDbSymbolTable
 70
     0
  0
ENDTAB
  0
TABLE
  2
APPID
  5
9
330
0
100
AcDbSymbolTable
 70
     2
  0
APPID
  5
12
330
9
100
AcDbSymbolTableRecord
100
AcDbRegAppTableRecord
  2
ACAD
 70
     0
  0
ENDTAB
  0
TABLE
  2
DIMSTYLE
  5
A
330
0
100
AcDbSymbolTable
 70
     1
  0
DIMSTYLE
105
27
330
A
100
AcDbSymbolTableRecord
100
AcDbDimStyleTableRecord
  2
ISO-25
 70
     0
  3

  4

  5

  6

  7

 40
1.0
 41
2.5
 42
0.625
 43
3.75
 44
1.25
 45
0.0
 46
0.0
 47
0.0
 48
0.0
140
2.5
141
2.5
142
0.0
143
0.03937007874016
144
1.0
145
0.0
146
1.0
147
0.625
 71
     0
 72
     0
 73
     0
 74
     0
 75
     0
 76
     0
 77
     1
 78
     8
170
     0
171
     3
172
     1
173
     0
174
     0
175
     0
176
     0
177
     0
178
     0
270
     2
271
     2
272
     2
273
     2
274
     3
340
11
275
     0
280
     0
281
     0
282
     0
283
     0
284
     8
285
     0
286
     0
287
     3
288
     0
  0
ENDTAB
  0
TABLE
  2
BLOCK_RECORD
  5
1
330
0
100
AcDbSymbolTable
 70
     1
  0
BLOCK_RECORD
  5
1F
330
1
100
AcDbSymbolTableRecord
100
AcDbBlockTableRecord
  2
*MODEL_SPACE
  0
BLOCK_RECORD
  5
1B
330
1
100
AcDbSymbolTableRecord
100
AcDbBlockTableRecord
  2
*PAPER_SPACE
  0
ENDTAB
  0
ENDSEC
  0
SECTION
  2
BLOCKS
  0
BLOCK
  5
20
330
1F
100
AcDbEntity
  8
0
100
AcDbBlockBegin
  2
*MODEL_SPACE
 70
     0
 10
0.0
 20
0.0
 30
0.0
  3
*MODEL_SPACE
  1

  0
ENDBLK
  5
21
330
1F
100
AcDbEntity
  8
0
100
AcDbBlockEnd
  0
BLOCK
  5
1C
330
1B
100
AcDbEntity
 67
     1
  8
0
100
AcDbBlockBegin
  2
*PAPER_SPACE
  1

  0
ENDBLK
  5
1D
330
1B
100
AcDbEntity
 67
     1
  8
0
100
AcDbBlockEnd
  0
ENDSEC
  0
SECTION
  2
ENTITIES
  0
LWPOLYLINE
  5
100
100
AcDbEntity
  8
Top
 62
1
100
AcDbPolyline
 90
22
 70
0
 10
4.843684
 20
0.243569
 30
0.0
 10
4.195453
 20
0.243569
 30
0.0
 10
4.060948
 20
0.711313
 30
0.0
 10
3.900897
 20
1.114629
 30
0.0
 10
3.718633
 20
1.453959
 30
0.0
 10
3.517488
 20
1.729744
 30
0.0
 10
3.300795
 20
1.942428
 30
0.0
 10
3.071886
 20
2.092450
 30
0.0
 10
2.834093
 20
2.180255
 30
0.0
 10
2.590750
 20
2.206282
 30
0.0
 10
2.345188
 20
2.170975
 30
0.0
 10
2.100740
 20
2.074775
 30
0.0
 10
1.860739
 20
1.918123
 30
0.0
 10
1.628516
 20
1.701463
 30
0.0
 10
1.407405
 20
1.425236
 30
0.0
 10
1.200738
 20
1.089883
 30
0.0
 10
1.011847
 20
0.695847
 30
0.0
 10
0.844065
 20
0.243569
 30
0.0
 10
0.195837
 20
0.243569
 30
0.0
 10
2.109656
 20
5.998255
 30
0.0
 10
2.929865
 20
5.998255
 30
0.0
 10
4.843684
 20
0.243569
 30
0.0
  0
LWPOLYLINE
  5
101
100
AcDbEntity
  8
Top
 62
1
100
AcDbPolyline
 90
27
 70
0
 10
9.504759
 20
4.053569
 30
0.0
 10
8.988823
 20
4.053569
 30
0.0
 10
8.886920
 20
4.293803
 30
0.0
 10
8.821254
 20
4.538082
 30
0.0
 10
8.696198
 20
4.995459
 30
0.0
 10
8.585586
 20
5.186903
 30
0.0
 10
8.408773
 20
5.339079
 30
0.0
 10
8.140148
 20
5.441161
 30
0.0
 10
7.754101
 20
5.482319
 30
0.0
 10
7.754101
 20
0.759505
 30
0.0
 10
8.680142
 20
0.759505
 30
0.0
 10
8.680142
 20
0.243569
 30
0.0
 10
6.215106
 20
0.243569
 30
0.0
 10
6.215106
 20
0.759505
 30
0.0
 10
7.145559
 20
0.759505
 30
0.0
 10
7.145559
 20
5.482319
 30
0.0
 10
6.754565
 20
5.449030
 30
0.0
 10
6.503967
 20
5.365382
 30
0.0
 10
6.357373
 20
5.235796
 30
0.0
 10
6.278395
 20
5.064695
 30
0.0
 10
6.177725
 20
4.615633
 30
0.0
 10
6.083253
 20
4.346516
 30
0.0
 10
5.910837
 20
4.053569
 30
0.0
 10
5.394898
 20
4.053569
 30
0.0
 10
5.394898
 20
5.998255
 30
0.0
 10
9.504759
 20
5.998255
 30
0.0
 10
9.504759
 20
4.053569
 30
0.0
  0
LWPOLYLINE
  5
102
100
AcDbEntity
  8
Top
 62
1
100
AcDbPolyline
 90
44
 70
0
 10
14.496565
 20
0.243569
 30
0.0
 10
13.729273
 20
0.243569
 30
0.0
 10
12.049170
 20
2.708602
 30
0.0
 10
11.153995
 20
2.708602
 30
0.0
 10
11.153995
 20
0.243569
 30
0.0
 10
10.549865
 20
0.243569
 30
0.0
 10
10.549865
 20
3.224386
 30
0.0
 10
11.153995
 20
3.224541
 30
0.0
 10
12.446045
 20
3.224541
 30
0.0
 10
13.012692
 20
3.290685
 30
0.0
 10
13.244754
 20
3.373368
 30
0.0
 10
13.442642
 20
3.489125
 30
0.0
 10
13.602768
 20
3.644013
 30
0.0
 10
13.717144
 20
3.839694
 30
0.0
 10
13.785771
 20
4.076166
 30
0.0
 10
13.808648
 20
4.353430
 30
0.0
 10
13.785771
 20
4.626830
 30
0.0
 10
13.717144
 20
4.860544
 30
0.0
 10
13.602768
 20
5.054573
 30
0.0
 10
13.442642
 20
5.208916
 30
0.0
 10
13.244754
 20
5.328526
 30
0.0
 10
13.012692
 20
5.413964
 30
0.0
 10
12.446045
 20
5.482319
 30
0.0
 10
11.153995
 20
5.482319
 30
0.0
 10
10.549865
 20
5.482384
 30
0.0
 10
10.549865
 20
5.998255
 30
0.0
 10
12.446045
 20
5.998255
 30
0.0
 10
12.893354
 20
5.972345
 30
0.0
 10
13.287197
 20
5.894623
 30
0.0
 10
13.627573
 20
5.765088
 30
0.0
 10
13.914481
 20
5.583741
 30
0.0
 10
14.142132
 20
5.353055
 30
0.0
 10
14.304740
 20
5.071108
 30
0.0
 10
14.402305
 20
4.737899
 30
0.0
 10
14.434828
 20
4.353430
 30
0.0
 10
14.402856
 20
4.009468
 30
0.0
 10
14.306948
 20
3.700791
 30
0.0
 10
14.155911
 20
3.435102
 30
0.0
 10
13.958578
 20
3.211311
 30
0.0
 10
13.716042
 20
3.028306
 30
0.0
 10
13.429412
 20
2.884991
 30
0.0
 10
13.110808
 20
2.785771
 30
0.0
 10
12.763545
 20
2.735061
 30
0.0
 10
14.496565
 20
0.243569
 30
0.0
  0
LWPOLYLINE
  5
103
100
AcDbEntity
  8
Top
 62
1
100
AcDbPolyline
 90
13
 70
0
 10
19.166462
 20
0.243569
 30
0.0
 10
15.488753
 20
0.243569
 30
0.0
 10
15.488753
 20
5.998255
 30
0.0
 10
19.166462
 20
5.998255
 30
0.0
 10
19.166462
 20
5.482319
 30
0.0
 10
16.092884
 20
5.482319
 30
0.0
 10
16.092884
 20
3.422977
 30
0.0
 10
18.359481
 20
3.422977
 30
0.0
 10
18.359481
 20
2.907041
 30
0.0
 10
16.092884
 20
2.907041
 30
0.0
 10
16.092884
 20
0.759505
 30
0.0
 10
19.166462
 20
0.759505
 30
0.0
 10
19.166462
 20
0.243569
 30
0.0
  0
LWPOLYLINE
  5
104
100
AcDbEntity
  8
Top
 62
1
100
AcDbPolyline
 90
37
 70
0
 10
24.105351
 20
2.294088
 30
0.0
 10
24.077786
 20
1.827760
 30
0.0
 10
23.995106
 20
1.407736
 30
0.0
 10
23.858403
 20
1.039522
 30
0.0
 10
23.659967
 20
0.728639
 30
0.0
 10
23.404202
 20
0.481694
 30
0.0
 10
23.086703
 20
0.296486
 30
0.0
 10
22.706364
 20
0.180729
 30
0.0
 10
22.262087
 20
0.142144
 30
0.0
 10
21.814499
 20
0.180729
 30
0.0
 10
21.433059
 20
0.296486
 30
0.0
 10
21.118866
 20
0.481694
 30
0.0
 10
20.864203
 20
0.728639
 30
0.0
 10
20.671278
 20
1.040625
 30
0.0
 10
20.533476
 20
1.412144
 30
0.0
 10
20.454101
 20
1.835477
 30
0.0
 10
20.427642
 20
2.302908
 30
0.0
 10
20.427642
 20
5.998255
 30
0.0
 10
21.031773
 20
5.998255
 30
0.0
 10
21.031773
 20
2.294088
 30
0.0
 10
21.075870
 20
1.742875
 30
0.0
 10
21.145324
 20
1.465060
 30
0.0
 10
21.256670
 20
1.213708
 30
0.0
 10
21.418726
 20
0.995425
 30
0.0
 10
21.631495
 20
0.816833
 30
0.0
 10
21.910410
 20
0.697770
 30
0.0
 10
22.262087
 20
0.658083
 30
0.0
 10
22.613760
 20
0.697770
 30
0.0
 10
22.892676
 20
0.816833
 30
0.0
 10
23.110956
 20
0.995425
 30
0.0
 10
23.271912
 20
1.213708
 30
0.0
 10
23.385461
 20
1.465060
 30
0.0
 10
23.452712
 20
1.742875
 30
0.0
 10
23.496809
 20
2.294088
 30
0.0
 10
23.496809
 20
5.998255
 30
0.0
 10
24.105351
 20
5.998255
 30
0.0
 10
24.105351
 20
2.294088
 30
0.0
  0
LWPOLYLINE
  5
105
100
AcDbEntity
  8
Top
 62
1
100
AcDbPolyline
 90
86
 70
0
 10
29.114795
 20
1.742875
 30
0.0
 10
29.077309
 20
1.397813
 30
0.0
 10
28.964865
 20
1.085825
 30
0.0
 10
28.789575
 20
0.814627
 30
0.0
 10
28.563578
 20
0.583116
 30
0.0
 10
28.293481
 20
0.395704
 30
0.0
 10
27.985906
 20
0.256797
 30
0.0
 10
27.652970
 20
0.170808
 30
0.0
 10
27.306809
 20
0.142144
 30
0.0
 10
26.841582
 20
0.187344
 30
0.0
 10
26.416045
 20
0.322944
 30
0.0
 10
26.115990
 20
0.529294
 30
0.0
 10
26.004147
 20
0.616778
 30
0.0
 10
25.937299
 20
0.537500
 30
0.0
 10
25.772226
 20
0.243569
 30
0.0
 10
25.260698
 20
0.243569
 30
0.0
 10
25.260698
 20
1.994227
 30
0.0
 10
25.772226
 20
1.994227
 30
0.0
 10
25.806400
 20
1.710903
 30
0.0
 10
25.908926
 20
1.451833
 30
0.0
 10
26.064369
 20
1.225834
 30
0.0
 10
26.257295
 20
1.032908
 30
0.0
 10
26.484394
 20
0.875260
 30
0.0
 10
26.742365
 20
0.755097
 30
0.0
 10
27.022380
 20
0.682336
 30
0.0
 10
27.306809
 20
0.658083
 30
0.0
 10
27.778648
 20
0.728639
 30
0.0
 10
28.157884
 20
0.935894
 30
0.0
 10
28.303403
 20
1.086927
 30
0.0
 10
28.413648
 20
1.266625
 30
0.0
 10
28.486407
 20
1.473881
 30
0.0
 10
28.510662
 20
1.707597
 30
0.0
 10
28.479792
 20
1.965563
 30
0.0
 10
28.387190
 20
2.183847
 30
0.0
 10
28.246077
 20
2.367950
 30
0.0
 10
28.060870
 20
2.523394
 30
0.0
 10
27.602259
 20
2.761519
 30
0.0
 10
27.081912
 20
2.959958
 30
0.0
 10
26.455731
 20
3.189264
 30
0.0
 10
26.159178
 20
3.328167
 30
0.0
 10
25.895698
 20
3.497944
 30
0.0
 10
25.671904
 20
3.702993
 30
0.0
 10
25.494412
 20
3.947736
 30
0.0
 10
25.378658
 20
4.248696
 30
0.0
 10
25.340073
 20
4.613602
 30
0.0
 10
25.377555
 20
4.946533
 30
0.0
 10
25.490003
 20
5.239783
 30
0.0
 10
25.663084
 20
5.495543
 30
0.0
 10
25.882467
 20
5.707213
 30
0.0
 10
26.144846
 20
5.873677
 30
0.0
 10
26.446912
 20
5.993847
 30
0.0
 10
26.773231
 20
6.069909
 30
0.0
 10
27.108370
 20
6.095269
 30
0.0
 10
27.497949
 20
6.059229
 30
0.0
 10
27.784233
 20
5.996140
 30
0.0
 10
28.125698
 20
5.856579
 30
0.0
 10
28.290332
 20
5.812109
 30
0.0
 10
28.435698
 20
5.998255
 30
0.0
 10
28.969273
 20
5.998255
 30
0.0
 10
28.969273
 20
4.353430
 30
0.0
 10
28.435698
 20
4.353430
 30
0.0
 10
28.408135
 20
4.604781
 30
0.0
 10
28.325453
 20
4.838500
 30
0.0
 10
28.199774
 20
5.050162
 30
0.0
 10
28.034412
 20
5.226555
 30
0.0
 10
27.835972
 20
5.372072
 30
0.0
 10
27.611078
 20
5.482319
 30
0.0
 10
27.366339
 20
5.555075
 30
0.0
 10
27.108370
 20
5.579333
 30
0.0
 10
26.662990
 20
5.526416
 30
0.0
 10
26.292573
 20
5.354436
 30
0.0
 10
26.149256
 20
5.222140
 30
0.0
 10
26.036809
 20
5.054575
 30
0.0
 10
25.967355
 20
4.851725
 30
0.0
 10
25.944203
 20
4.613602
 30
0.0
 10
25.971765
 20
4.405241
 30
0.0
 10
26.054448
 20
4.229958
 30
0.0
 10
26.358717
 20
3.947736
 30
0.0
 10
26.795281
 20
3.727250
 30
0.0
 10
27.306809
 20
3.528811
 30
0.0
 10
27.955037
 20
3.273047
 30
0.0
 10
28.532712
 20
2.933500
 30
0.0
 10
28.765321
 20
2.711908
 30
0.0
 10
28.951634
 20
2.444019
 30
0.0
 10
29.074002
 20
2.125416
 30
0.0
 10
29.114795
 20
1.742875
 30
0.0
  0
ENDSEC
  0
SECTION
  2
OBJECTS
  0
DICTIONARY
  5
C
330
0
100
AcDbDictionary
  3
ACAD_GROUP
350
D
  3
ACAD_MLINESTYLE
350
17
  0
DICTIONARY
  5
D
330
C
100
AcDbDictionary
  0
DICTIONARY
  5
1A
330
C
100
AcDbDictionary
  0
DICTIONARY
  5
17
330
C
100
AcDbDictionary
  3
STANDARD
350
18
  0
DICTIONARY
  5
19
330
C
100
AcDbDictionary
  0
ENDSEC
  0
EOF
